<?xml version="1.0" encoding="UTF-8"?>
<svg version="1.1" xmlns="http://www.w3.org/2000/svg" width="312" height="120">
<path d="M0 0 C2.20082999 0.97423544 4.36432923 2.03543116 6.4921875 3.16015625 C7.5735498 3.72613525 8.65491211 4.29211426 9.76904297 4.87524414 C11.12400879 5.59703857 12.47897461 6.31883301 13.875 7.0625 C18.20625 9.351875 22.5375 11.64125 27 14 C27 25.22 27 36.44 27 48 C17.1875 52.875 17.1875 52.875 14.10620117 54.40185547 C13.30158447 54.80291504 12.49696777 55.20397461 11.66796875 55.6171875 C10.84578857 56.02565918 10.0236084 56.43413086 9.17651367 56.85498047 C6.80922565 58.05241571 6.80922565 58.05241571 4 60 C1.04182816 59.69814573 -1.33437658 59.33281171 -4 58 C-4 55.69 -4 53.38 -4 51 C2.27 47.7 8.54 44.4 15 41 C15 34.4 15 27.8 15 21 C12.31875 19.494375 9.6375 17.98875 6.875 16.4375 C6.04210449 15.95853271 5.20920898 15.47956543 4.35107422 14.98608398 C1.1591807 13.24695517 -1.22707606 12.02712014 -4.89453125 11.8984375 C-10.64453023 13.93805978 -15.99385853 16.84016145 -21.38867188 19.66992188 C-22.74508789 20.34958008 -22.74508789 20.34958008 -24.12890625 21.04296875 C-24.94431885 21.46602295 -25.75973145 21.88907715 -26.59985352 22.32495117 C-29.71191918 23.20022953 -31.18008753 22.44146977 -34 21 C-34 18.69 -34 16.38 -34 14 C-30.45929322 12.06074205 -26.91726567 10.12390879 -23.375 8.1875 C-22.37597656 7.64029297 -21.37695312 7.09308594 -20.34765625 6.52929688 C-18.41310404 5.47233954 -16.47536754 4.42118528 -14.53417969 3.37646484 C-12.55796659 2.30306509 -10.60580007 1.18535625 -8.6640625 0.05078125 C-5.24617634 -1.29732927 -3.56361094 -0.83960264 0 0 Z " fill="#0EB38F" transform="translate(34,1)"/>
<path d="M0 0 C2.9375 0.6875 2.9375 0.6875 4.9375 1.6875 C4.9375 3.9975 4.9375 6.3075 4.9375 8.6875 C-4.4675 13.6375 -4.4675 13.6375 -14.0625 18.6875 C-14.0625 25.2875 -14.0625 31.8875 -14.0625 38.6875 C-4.15002546 46.23840488 -4.15002546 46.23840488 7.58935547 48.32617188 C12.75914553 46.58636675 17.31307958 43.86502085 21.89428711 40.94311523 C24.82674411 39.14103299 27.6973586 37.85313577 30.9375 36.6875 C33.375 37.5 33.375 37.5 34.9375 38.6875 C34.9375 40.9975 34.9375 43.3075 34.9375 45.6875 C31.39679322 47.62675795 27.85476567 49.56359121 24.3125 51.5 C23.31347656 52.04720703 22.31445312 52.59441406 21.28515625 53.15820312 C19.35060404 54.21516046 17.41286754 55.26631472 15.47167969 56.31103516 C13.49546659 57.38443491 11.54330007 58.50214375 9.6015625 59.63671875 C6.18367634 60.98482927 4.50111094 60.52710264 0.9375 59.6875 C-1.26332999 58.71326456 -3.42682923 57.65206884 -5.5546875 56.52734375 C-7.17673096 55.67837524 -7.17673096 55.67837524 -8.83154297 54.81225586 C-10.18650879 54.09046143 -11.54147461 53.36866699 -12.9375 52.625 C-17.26875 50.335625 -21.6 48.04625 -26.0625 45.6875 C-26.0625 34.4675 -26.0625 23.2475 -26.0625 11.6875 C-16.25 6.8125 -16.25 6.8125 -13.16870117 5.28564453 C-12.36408447 4.88458496 -11.55946777 4.48352539 -10.73046875 4.0703125 C-9.90828857 3.66184082 -9.0861084 3.25336914 -8.23901367 2.83251953 C-2.39103472 -0.24398314 -2.39103472 -0.24398314 0 0 Z " fill="#0EB38F" transform="translate(26.0625,25.3125)"/>
<path d="M0 0 C0.99 0.66 1.98 1.32 3 2 C3.66 1.34 4.32 0.68 5 0 C11.11737749 -1.34789674 14.55518663 -1.15799176 20 2 C21.81849275 4.83243567 22.24294156 6.99409102 22.1953125 10.328125 C22.18886719 11.12734375 22.18242187 11.9265625 22.17578125 12.75 C22.15902344 13.575 22.14226562 14.4 22.125 15.25 C22.11597656 16.09046875 22.10695312 16.9309375 22.09765625 17.796875 C22.07415817 19.86470604 22.03828908 21.93238995 22 24 C19.69 24 17.38 24 15 24 C14.93941406 22.85660156 14.87882812 21.71320313 14.81640625 20.53515625 C14.73201572 19.04425695 14.64736698 17.55337225 14.5625 16.0625 C14.52318359 15.30775391 14.48386719 14.55300781 14.44335938 13.77539062 C14.55961976 10.08055813 14.55961976 10.08055813 13 7 C10.54207971 6.66656449 10.54207971 6.66656449 8 7 C5.57520264 10.63719605 5.61337423 12.85703482 5.375 17.1875 C5.30023438 18.45980469 5.22546875 19.73210937 5.1484375 21.04296875 C5.09945312 22.01878906 5.05046875 22.99460937 5 24 C2.69 24 0.38 24 -2 24 C-2.06058594 22.85660156 -2.12117188 21.71320313 -2.18359375 20.53515625 C-2.26798428 19.04425695 -2.35263302 17.55337225 -2.4375 16.0625 C-2.47681641 15.30775391 -2.51613281 14.55300781 -2.55664062 13.77539062 C-2.44038024 10.08055813 -2.44038024 10.08055813 -4 7 C-6.45792029 6.66656449 -6.45792029 6.66656449 -9 7 C-11.42479736 10.63719605 -11.38662577 12.85703482 -11.625 17.1875 C-11.73714844 19.09595703 -11.73714844 19.09595703 -11.8515625 21.04296875 C-11.90054688 22.01878906 -11.94953125 22.99460937 -12 24 C-14.31 24 -16.62 24 -19 24 C-19 16.08 -19 8.16 -19 0 C-16.03 0 -13.06 0 -10 0 C-6.80429821 -1.59785089 -3.38635924 -0.77115111 0 0 Z " fill="#FFFFFF" transform="translate(170,52)"/>
<path d="M0 0 C2.9375 0.6875 2.9375 0.6875 4.9375 1.6875 C4.9375 3.9975 4.9375 6.3075 4.9375 8.6875 C4.36717041 8.88569336 3.79684082 9.08388672 3.20922852 9.28808594 C-2.95190391 11.56370061 -9.37017339 13.95443306 -14.0625 18.6875 C-16.63724762 24.9732097 -15.88920374 32.07579485 -15.0625 38.6875 C-16.7125 39.3475 -18.3625 40.0075 -20.0625 40.6875 C-20.0625 41.3475 -20.0625 42.0075 -20.0625 42.6875 C-19.4025 43.0175 -18.7425 43.3475 -18.0625 43.6875 C-19.25 45.25 -19.25 45.25 -21.0625 46.6875 C-22.7125 46.3575 -24.3625 46.0275 -26.0625 45.6875 C-26.0625 34.4675 -26.0625 23.2475 -26.0625 11.6875 C-16.25 6.8125 -16.25 6.8125 -13.16870117 5.28564453 C-12.36408447 4.88458496 -11.55946777 4.48352539 -10.73046875 4.0703125 C-9.90828857 3.66184082 -9.0861084 3.25336914 -8.23901367 2.83251953 C-2.39103472 -0.24398314 -2.39103472 -0.24398314 0 0 Z " fill="#11A49A" transform="translate(26.0625,25.3125)"/>
<path d="M0 0 C3.5165686 2.00946777 5.69336274 4.08008821 7 8 C7.39308695 12.79566077 7.48270142 15.06907584 5.25 19.375 C2.53613919 22.54117095 0.70248775 23.84131631 -3.47265625 24.23046875 C-4.75462891 24.20919922 -4.75462891 24.20919922 -6.0625 24.1875 C-6.91972656 24.18105469 -7.77695313 24.17460938 -8.66015625 24.16796875 C-11 24 -11 24 -14 23 C-14 26.3 -14 29.6 -14 33 C-16.64 33 -19.28 33 -22 33 C-22 22.11 -22 11.22 -22 0 C-18.66666667 0 -15.33333333 0 -12 0 C-7.80720942 -1.39759686 -4.26703601 -1.07584554 0 0 Z M-13.0625 7.6875 C-14.26807437 10.66125011 -14.14880448 12.01310836 -13 15 C-11.40383995 17.00965774 -11.40383995 17.00965774 -9 18 C-5.84001386 17.87102097 -3.76317137 17.4677502 -1.0625 15.8125 C0.28000937 13.9083468 0.28000937 13.9083468 -0.1875 10.9375 C-0.76648363 7.90484132 -0.76648363 7.90484132 -3 6 C-8.47256304 5.29686862 -8.47256304 5.29686862 -13.0625 7.6875 Z " fill="#FFFFFF" transform="translate(219,52)"/>
<path d="M0 0 C2.31 0 4.62 0 7 0 C7.33 3.63 7.66 7.26 8 11 C9.340625 10.62875 10.68125 10.2575 12.0625 9.875 C16.62339336 8.87820098 19.65277394 9.03948629 24 11 C27.16076487 14.32712092 28.89679486 16.65833317 29.25 21.25 C28.9150706 26.273941 27.69516119 29.41078639 24 32.875 C19.38356028 34.60616489 14.87228258 34.20364029 10 34 C9.01 34 8.02 34 7 34 C4.69 34 2.38 34 0 34 C0 22.78 0 11.56 0 0 Z M9.0625 17.125 C7.49577755 19.88980433 7.61023565 21.88188517 8 25 C8.93597315 27.01951062 8.93597315 27.01951062 11 28 C15.68500506 28.55042363 15.68500506 28.55042363 19.875 26.75 C21.17051136 24.73476011 21.78229742 23.39472838 22 21 C21.00974907 18.33393981 20.5722047 17.28610235 18 16 C13.33714722 15.57621401 13.33714722 15.57621401 9.0625 17.125 Z " fill="#FFFFFF" transform="translate(175,2)"/>
<path d="M0 0 C-1.32 1.65 -2.64 3.3 -4 5 C-4.969375 4.649375 -5.93875 4.29875 -6.9375 3.9375 C-11.4265297 2.68093591 -15.5106235 2.72451359 -20 4 C-22.99828256 6.01925152 -24.59926592 7.36063329 -25.47265625 10.93359375 C-25.76087657 14.84304368 -25.24292621 16.64320213 -23 19.9375 C-19.31060347 22.47396012 -16.45126253 23.20851128 -12 23 C-10.31763529 22.37400383 -8.6476038 21.71247732 -7 21 C-4.3125 21.125 -4.3125 21.125 -2 22 C-0.6875 24.0625 -0.6875 24.0625 0 26 C-6.56936026 31.21018228 -13.9745809 30.71894379 -22 30 C-26.97876201 28.41450138 -29.92038148 25.68188691 -32.5 21.1875 C-34.57452884 16.25123272 -34.89985887 12.03139957 -33.375 6.89453125 C-31.01118621 1.26992075 -27.4498033 -1.45675846 -22 -4 C-14.41099183 -6.79595038 -6.39914462 -4.31246703 0 0 Z " fill="#FFFFFF" transform="translate(119,46)"/>
<path d="M0 0 C2.1796875 1.10546875 2.1796875 1.10546875 5.3671875 3.10546875 C4.3671875 6.10546875 4.3671875 6.10546875 1.3671875 8.10546875 C-0.8828125 7.79296875 -0.8828125 7.79296875 -3.6328125 7.10546875 C-9.5544547 5.78954826 -12.43883657 6.25387412 -17.6328125 9.10546875 C-20.09209994 12.79439991 -20.32586829 15.82188296 -19.6328125 20.10546875 C-17.5083298 23.54859589 -16.48428609 24.82164422 -12.6328125 26.10546875 C-8.64201962 26.3357068 -5.77248007 26.15044644 -1.9453125 24.91796875 C1.3671875 24.10546875 1.3671875 24.10546875 3.8046875 25.48046875 C4.3203125 26.01671875 4.8359375 26.55296875 5.3671875 27.10546875 C4.70635736 29.500978 3.90789182 30.79631006 1.734375 32.0390625 C-5.59486229 35.04261268 -12.22070036 34.84446491 -19.5859375 32.15234375 C-23.74802705 30.02364146 -25.75290538 26.73958197 -27.9453125 22.66796875 C-29.6083021 16.46955298 -28.7621825 11.65757681 -25.6328125 6.10546875 C-18.70781688 -1.17969213 -9.76851278 -3.31897541 0 0 Z " fill="#FFFFFF" transform="translate(113.6328125,2.89453125)"/>
<path d="M0 0 C0.99 0 1.98 0 3 0 C5.31 0 7.62 0 10 0 C10 7.92 10 15.84 10 24 C6.66666667 24 3.33333333 24 0 24 C-1.2375 24.226875 -2.475 24.45375 -3.75 24.6875 C-8.19702022 25.26078069 -11.07330308 24.23282766 -15 22 C-18.36372802 19.08476905 -18.72604209 15.51180014 -19.0625 11.25 C-18.96741032 7.82677161 -17.97432748 5.76405847 -16 3 C-10.42876085 -1.14271629 -6.71941734 -1.09954102 0 0 Z M-11 8 C-11.42744381 12.67885258 -11.42744381 12.67885258 -9.75 16.875 C-7.71025607 18.18626396 -6.4273548 18.78582164 -4 19 C-0.2189697 17.91970563 0.76204175 17.35693737 3 14 C3.07575878 10.95361173 3.07575878 10.95361173 2 8 C-3.28576398 3.93402771 -5.35876912 5.05674911 -11 8 Z " fill="#FFFFFF" transform="translate(138,12)"/>
<path d="M0 0 C2.73541718 1.82361146 4.1888716 2.79795829 5.625 5.75 C5.625 8.39 5.625 11.03 5.625 13.75 C-3.78 14.245 -3.78 14.245 -13.375 14.75 C-11.38864621 17.18442418 -11.38864621 17.18442418 -7.5 16.9375 C-4.66039226 16.870382 -2.08983095 16.65494365 0.625 15.75 C1.945 17.4 3.265 19.05 4.625 20.75 C-0.99419088 24.49612725 -6.76953807 24.58246917 -13.375 23.75 C-17.14698696 22.27589015 -19.12131149 20.13053276 -21.375 16.75 C-21.96260427 12.24757764 -21.87790275 8.06313495 -20.25 3.8125 C-14.73431371 -2.25475492 -7.34360548 -2.71985388 0 0 Z M-13.375 6.75 C-13.375 7.41 -13.375 8.07 -13.375 8.75 C-9.415 8.75 -5.455 8.75 -1.375 8.75 C-1.705 7.76 -2.035 6.77 -2.375 5.75 C-6.43731189 3.71884405 -9.70815625 4.3054375 -13.375 6.75 Z " fill="#FFFFFF" transform="translate(250.375,52.25)"/>
<path d="M0 0 C2.73541718 1.82361146 4.1888716 2.79795829 5.625 5.75 C5.625 8.39 5.625 11.03 5.625 13.75 C-0.645 13.75 -6.915 13.75 -13.375 13.75 C-10.67406091 17.10489274 -10.67406091 17.10489274 -6.9375 17 C-4.22446236 16.80961139 -1.94486388 16.57235644 0.625 15.75 C1.945 17.4 3.265 19.05 4.625 20.75 C-0.99825054 24.4988337 -6.76543064 24.57393262 -13.375 23.75 C-16.6003219 22.54513837 -18.69338211 20.88523815 -20.49609375 17.8828125 C-22.01711612 14.1917982 -22.04600518 10.66080796 -21.375 6.75 C-16.8626024 -1.7534425 -8.44112145 -3.12634128 0 0 Z M-13.375 6.75 C-13.375 7.41 -13.375 8.07 -13.375 8.75 C-9.415 8.75 -5.455 8.75 -1.375 8.75 C-1.705 7.76 -2.035 6.77 -2.375 5.75 C-6.43731189 3.71884405 -9.70815625 4.3054375 -13.375 6.75 Z " fill="#FFFFFF" transform="translate(300.375,52.25)"/>
<path d="M0 0 C3.83158948 2.12783416 5.50553848 4.06086674 6.75 8.375 C6.93580605 12.67387645 6.23995761 15.59782587 3.9375 19.25 C0.44059954 22.64698902 -2.32781374 23.66503612 -7.1875 23.6875 C-12.37855411 23.58062536 -15.08759975 22.22848593 -19 18.875 C-21.85668997 15.44697204 -21.60912029 11.61261939 -21.25 7.375 C-16.8413232 -1.4423536 -8.93338138 -3.91039954 0 0 Z M-12.1875 6.5 C-14.5050222 9.14076966 -14.5050222 9.14076966 -14.25 12 C-13.16546902 14.57576108 -12.59108221 15.84118752 -10.25 17.375 C-7.10075452 17.76865568 -5.13090884 17.90354531 -2.375 16.25 C-0.73848521 13.52247535 -0.92497197 11.49526907 -1.25 8.375 C-2.95976172 5.16237233 -2.95976172 5.16237233 -6.0625 4.375 C-9.42382474 4.06362386 -9.42382474 4.06362386 -12.1875 6.5 Z " fill="#FFFFFF" transform="translate(141.25,52.625)"/>
<path d="M0 0 C2.98878283 1.84774505 5.02318637 3.85456468 5.9609375 7.23046875 C6.40782211 11.84827636 6.37133687 14.28476585 4.5234375 18.54296875 C1.05912318 22.17627401 -2.09104007 23.52587036 -7.0390625 24.23046875 C-11.07442008 24.13236443 -14.47347232 23.4754857 -17.6796875 20.92578125 C-20.35696062 17.95616221 -21.9416943 15.22256478 -22.0390625 11.23046875 C-21.28088163 6.51289892 -20.02924771 3.05229371 -16.078125 0.11328125 C-11.15933298 -2.0163107 -4.98800952 -1.88244804 0 0 Z M-12.9765625 6.35546875 C-14.54328495 9.12027308 -14.42882685 11.11235392 -14.0390625 14.23046875 C-13.10308935 16.24997937 -13.10308935 16.24997937 -11.0390625 17.23046875 C-7.5390625 17.81380208 -7.5390625 17.81380208 -4.0390625 17.23046875 C-1.87239583 15.73046875 -1.87239583 15.73046875 -1.0390625 13.23046875 C-1.25943878 9.55753079 -1.40872796 7.86080329 -4.0390625 5.23046875 C-8.70135135 4.76642415 -8.70135135 4.76642415 -12.9765625 6.35546875 Z " fill="#FFFFFF" transform="translate(228.0390625,12.76953125)"/>
<path d="M0 0 C2.31 0 4.62 0 7 0 C7 0.66 7 1.32 7 2 C7.56976563 1.67902344 8.13953125 1.35804687 8.7265625 1.02734375 C12.4541069 -0.65709642 15.99564671 -0.69279469 20 0 C23.57236674 1.9270028 25.69560702 4.08682105 27 8 C27.07051114 10.73865287 27.09357765 13.45027588 27.0625 16.1875 C27.05798828 16.93708984 27.05347656 17.68667969 27.04882812 18.45898438 C27.03706354 20.30602383 27.01912865 22.15302213 27 24 C24.69 24 22.38 24 20 24 C19.95101563 23.10796875 19.90203125 22.2159375 19.8515625 21.296875 C19.77679688 20.12640625 19.70203125 18.9559375 19.625 17.75 C19.55539062 16.58984375 19.48578125 15.4296875 19.4140625 14.234375 C19.03751692 11.29305666 18.5225877 9.50050989 17 7 C14.36 7 11.72 7 9 7 C8.67 12.61 8.34 18.22 8 24 C5.36 24 2.72 24 0 24 C0 16.08 0 8.16 0 0 Z " fill="#FFFFFF" transform="translate(237,12)"/>
<path d="M0 0 C2.35608143 3.53412215 2.3075436 5.62537575 2.4609375 9.74609375 C3.17777435 12.74330291 4.71965565 14.00583433 7 16 C6.40985107 16.29245605 5.81970215 16.58491211 5.21166992 16.88623047 C2.53589716 18.21371706 -0.13831316 19.5443217 -2.8125 20.875 C-3.74126953 21.33519531 -4.67003906 21.79539062 -5.62695312 22.26953125 C-6.51962891 22.71425781 -7.41230469 23.15898438 -8.33203125 23.6171875 C-9.15421143 24.02565918 -9.9763916 24.43413086 -10.82348633 24.85498047 C-13.19077435 26.05241571 -13.19077435 26.05241571 -16 28 C-18.95817184 27.69814573 -21.33437658 27.33281171 -24 26 C-24 23.69 -24 21.38 -24 19 C-23.14450562 18.60844727 -23.14450562 18.60844727 -22.27172852 18.20898438 C-19.68606519 17.00387162 -17.12527911 15.75299565 -14.5625 14.5 C-13.66466797 14.09007812 -12.76683594 13.68015625 -11.84179688 13.2578125 C-7.03168586 11.04649064 -7.03168586 11.04649064 -4.17919922 6.87109375 C-3.81680042 4.42324576 -3.81680042 4.42324576 -4 1 C-3.01 1 -2.02 1 -1 1 C-0.67 0.67 -0.34 0.34 0 0 Z " fill="#139E9E" transform="translate(54,33)"/>
<path d="M0 0 C0 2.31 0 4.62 0 7 C2.31 7 4.62 7 7 7 C7 8.98 7 10.96 7 13 C4.69 13 2.38 13 0 13 C0.33 16.63 0.66 20.26 1 24 C2.65 24 4.3 24 6 24 C8 27 8 27 7.625 29.1875 C7.315625 30.0846875 7.315625 30.0846875 7 31 C2.39722778 31.45125218 -0.94053169 31.58378866 -5.0625 29.3125 C-8.09953829 24.12014422 -7.38698276 18.8735384 -7 13 C-8.65 13 -10.3 13 -12 13 C-12 11.02 -12 9.04 -12 7 C-10.35 7 -8.7 7 -7 7 C-7 5.02 -7 3.04 -7 1 C-4 0 -4 0 0 0 Z " fill="#FFFFFF" transform="translate(269,45)"/>
<path d="M0 0 C0.625 1.8125 0.625 1.8125 1 4 C0.01 5.485 0.01 5.485 -1 7 C-2.875 7.2578125 -2.875 7.2578125 -5 7.125 C-8.11735621 6.9143627 -8.11735621 6.9143627 -11 8 C-11.31241455 10.71446979 -11.51336592 13.33909361 -11.625 16.0625 C-11.68300781 17.20041992 -11.68300781 17.20041992 -11.7421875 18.36132812 C-11.83673562 20.24047195 -11.91946756 22.12020336 -12 24 C-14.64 24 -17.28 24 -20 24 C-20 16.08 -20 8.16 -20 0 C-17 0 -14 0 -11 0 C-6.94952424 -1.35015859 -4.2079832 -0.62084998 0 0 Z " fill="#FFFFFF" transform="translate(172,12)"/>
<path d="M0 0 C2.97 0.495 2.97 0.495 6 1 C6 11.89 6 22.78 6 34 C1 31 1 31 0.328125 28.80859375 C0.28945313 27.63490234 0.28945313 27.63490234 0.25 26.4375 C0.14381073 23.09038862 0.14381073 23.09038862 -1 20 C-1.99 20.66 -2.98 21.32 -4 22 C-5.38226016 19.23547967 -5.09525387 16.9538637 -5.0625 13.875 C-5.05347656 12.77929688 -5.04445312 11.68359375 -5.03515625 10.5546875 C-5.02355469 9.71164063 -5.01195312 8.86859375 -5 8 C-3.35 7.34 -1.7 6.68 0 6 C0 5.34 0 4.68 0 4 C-0.66 4 -1.32 4 -2 4 C-1.34 2.68 -0.68 1.36 0 0 Z " fill="#05D577" transform="translate(55,14)"/>
<path d="M0 0 C2.475 0.99 2.475 0.99 5 2 C5.33 5.96 5.66 9.92 6 14 C7.65 13.01 9.3 12.02 11 11 C11 15.62 11 20.24 11 25 C9.35 25.66 7.7 26.32 6 27 C6 27.66 6 28.32 6 29 C6.66 29.33 7.32 29.66 8 30 C6.8125 31.5625 6.8125 31.5625 5 33 C3.35 32.67 1.7 32.34 0 32 C0 21.44 0 10.88 0 0 Z " fill="#05D676" transform="translate(0,39)"/>
<path d="M0 0 C0.66 0.33 1.32 0.66 2 1 C2 3.31 2 5.62 2 8 C1.278125 7.649375 0.55625 7.29875 -0.1875 6.9375 C-4.24145285 5.58618238 -6.82652076 6.47750194 -10.67578125 8.19140625 C-11.98095703 8.87009766 -11.98095703 8.87009766 -13.3125 9.5625 C-14.19550781 10.01753906 -15.07851562 10.47257812 -15.98828125 10.94140625 C-16.65214844 11.29074219 -17.31601562 11.64007813 -18 12 C-18.66 10.68 -19.32 9.36 -20 8 C-17.54585937 5.27500104 -14.86553833 3.56099833 -11.6875 1.75 C-10.76324219 1.20859375 -9.83898437 0.6671875 -8.88671875 0.109375 C-5.43015156 -1.21899453 -3.53941319 -0.93851859 0 0 Z " fill="#05D676" transform="translate(29,26)"/>
<path d="M0 0 C2.64 0 5.28 0 8 0 C8.02698189 1.62490954 8.04638757 3.24994633 8.0625 4.875 C8.07410156 5.77992187 8.08570313 6.68484375 8.09765625 7.6171875 C8 10 8 10 7 12 C4.125 12.1875 4.125 12.1875 1 12 C-1.84337134 7.73494299 -0.86431358 4.86176391 0 0 Z M3 2 C3 3.32 3 4.64 3 6 C3.66 6 4.32 6 5 6 C4.67 4.68 4.34 3.36 4 2 C3.67 2 3.34 2 3 2 Z " fill="#FFFFFF" transform="translate(133,106)"/>
<path d="M0 0 C2.14576637 -0.02685938 4.29162645 -0.04633088 6.4375 -0.0625 C7.63246094 -0.07410156 8.82742187 -0.08570312 10.05859375 -0.09765625 C13 0 13 0 14 1 C14.04092937 3.33297433 14.04241723 5.66705225 14 8 C13.01 8 12.02 8 11 8 C11 6.02 11 4.04 11 2 C10.34 2 9.68 2 9 2 C9 3.98 9 5.96 9 8 C8.01 8 7.02 8 6 8 C5.67 6.35 5.34 4.7 5 3 C4.67 3 4.34 3 4 3 C3.67 4.65 3.34 6.3 3 8 C2.01 8 1.02 8 0 8 C0 5.36 0 2.72 0 0 Z " fill="#FFFFFF" transform="translate(25,106)"/>
<path d="M0 0 C0 1.65 0 3.3 0 5 C-1.74122549 6.03572896 -3.49336595 7.0531252 -5.25 8.0625 C-6.22453125 8.63097656 -7.1990625 9.19945312 -8.203125 9.78515625 C-11 11 -11 11 -13.359375 10.68359375 C-13.90078125 10.45800781 -14.4421875 10.23242188 -15 10 C-14.34 10 -13.68 10 -13 10 C-13 8.35 -13 6.7 -13 5 C-11.58957044 4.15615325 -10.17135868 3.32530504 -8.75 2.5 C-7.56664062 1.80390625 -7.56664062 1.80390625 -6.359375 1.09375 C-4 0 -4 0 0 0 Z " fill="#05D577" transform="translate(49,50)"/>
<path d="M0 0 C0.99 0 1.98 0 3 0 C3 0.99 3 1.98 3 3 C3.804375 2.979375 4.60875 2.95875 5.4375 2.9375 C8 3 8 3 9 4 C9.04080783 5.99958364 9.04254356 8.00045254 9 10 C5.19495213 11.79682816 4.29399165 12.07349791 0 11 C0 7.37 0 3.74 0 0 Z M4 5 C4 6.32 4 7.64 4 9 C4.66 9 5.32 9 6 9 C5.67 7.68 5.34 6.36 5 5 C4.67 5 4.34 5 4 5 Z " fill="#FFFFFF" transform="translate(209,103)"/>
<path d="M0 0 C2.05078125 0.03255208 4.1015625 0.06510417 6.15234375 0.09765625 C6.15234375 2.73765625 6.15234375 5.37765625 6.15234375 8.09765625 C3.33984375 8.72265625 3.33984375 8.72265625 0.15234375 9.09765625 C-0.83765625 8.43765625 -1.82765625 7.77765625 -2.84765625 7.09765625 C-3.09765625 4.03515625 -3.09765625 4.03515625 -2.84765625 1.09765625 C-1.84765625 0.09765625 -1.84765625 0.09765625 0 0 Z M1.15234375 2.09765625 C0.82234375 3.41765625 0.49234375 4.73765625 0.15234375 6.09765625 C1.14234375 5.76765625 2.13234375 5.43765625 3.15234375 5.09765625 C2.82234375 4.10765625 2.49234375 3.11765625 2.15234375 2.09765625 C1.82234375 2.09765625 1.49234375 2.09765625 1.15234375 2.09765625 Z " fill="#FFFFFF" transform="translate(77.84765625,105.90234375)"/>
<path d="M0 0 C3.375 -0.1875 3.375 -0.1875 7 0 C9.14915785 3.22373677 9.38286803 4.26703674 9 8 C7 10 7 10 3.375 10.125 C2.26125 10.08375 1.1475 10.0425 0 10 C0 6.7 0 3.4 0 0 Z M2 2 C2 3.98 2 5.96 2 8 C3.32 7.67 4.64 7.34 6 7 C6 5.68 6 4.36 6 3 C4.68 2.67 3.36 2.34 2 2 Z " fill="#FFFFFF" transform="translate(152,104)"/>
<path d="M0 0 C2.5625 0.1875 2.5625 0.1875 4.5625 2.1875 C4.1875 5.3125 4.1875 5.3125 3.5625 8.1875 C1.25 8.875 1.25 8.875 -1.4375 9.1875 C-3.3125 8.0625 -3.3125 8.0625 -4.4375 6.1875 C-3.87661439 0.29820111 -3.87661439 0.29820111 0 0 Z " fill="#FFFFFF" transform="translate(17.4375,105.8125)"/>
<path d="M0 0 C5.42857143 -0.36190476 5.42857143 -0.36190476 7.875 1.1875 C9.38332602 3.61758081 9.36023622 5.19015752 9 8 C7 10 7 10 3.375 10.125 C2.26125 10.08375 1.1475 10.0425 0 10 C0 6.7 0 3.4 0 0 Z M2 2 C2 3.98 2 5.96 2 8 C3.32 7.67 4.64 7.34 6 7 C6 5.68 6 4.36 6 3 C4.68 2.67 3.36 2.34 2 2 Z " fill="#FFFFFF" transform="translate(1,104)"/>
<path d="M0 0 C2.5 0.25 2.5 0.25 4.5 2.25 C4.125 5.375 4.125 5.375 3.5 8.25 C0.48968256 9.18423645 -0.36650268 9.29449911 -3.5 8.25 C-4.125 5.375 -4.125 5.375 -4.5 2.25 C-2.5 0.25 -2.5 0.25 0 0 Z " fill="#FFFFFF" transform="translate(168.5,105.75)"/>
<path d="M0 0 C1.134375 0.020625 2.26875 0.04125 3.4375 0.0625 C3.4375 2.7025 3.4375 5.3425 3.4375 8.0625 C-1.99690487 9.39091008 -1.99690487 9.39091008 -4.5 7.9375 C-5.5625 6.0625 -5.5625 6.0625 -5.3125 3.4375 C-4.13833415 -0.28069186 -4.1698646 0.07315552 0 0 Z M-1.5625 2.0625 C-1.5625 3.3825 -1.5625 4.7025 -1.5625 6.0625 C-0.9025 6.0625 -0.2425 6.0625 0.4375 6.0625 C0.4375 4.7425 0.4375 3.4225 0.4375 2.0625 C-0.2225 2.0625 -0.8825 2.0625 -1.5625 2.0625 Z " fill="#FFFFFF" transform="translate(192.5625,105.9375)"/>
<path d="M0 0 C2.31 0 4.62 0 7 0 C7 2.64 7 5.28 7 8 C4.75 8.75 4.75 8.75 2 9 C-0.3125 7.0625 -0.3125 7.0625 -2 5 C-1.34 3.35 -0.68 1.7 0 0 Z M2 2 C2 3.32 2 4.64 2 6 C2.66 6 3.32 6 4 6 C4 4.68 4 3.36 4 2 C3.34 2 2.68 2 2 2 Z " fill="#FFFFFF" transform="translate(264,106)"/>
<path d="M0 0 C2.5625 0.1875 2.5625 0.1875 4.5625 2.1875 C4.6875 4.8125 4.6875 4.8125 4.5625 7.1875 C2.3125 8.375 2.3125 8.375 -0.4375 9.1875 C-2.75 7.8125 -2.75 7.8125 -4.4375 6.1875 C-3.3735 0.2595 -3.3735 0.2595 0 0 Z M-0.4375 2.1875 C-0.4375 3.5075 -0.4375 4.8275 -0.4375 6.1875 C0.2225 6.1875 0.8825 6.1875 1.5625 6.1875 C1.2325 4.8675 0.9025 3.5475 0.5625 2.1875 C0.2325 2.1875 -0.0975 2.1875 -0.4375 2.1875 Z " fill="#FFFFFF" transform="translate(225.4375,105.8125)"/>
<path d="M0 0 C3 0.125 3 0.125 4 1.125 C4.04080783 3.12458364 4.04254356 5.12545254 4 7.125 C1.6875 8.25 1.6875 8.25 -1 9.125 C-1.99 8.465 -2.98 7.805 -4 7.125 C-4.25 4.0625 -4.25 4.0625 -4 1.125 C-3 0.125 -3 0.125 0 0 Z M-1 2.125 C-1 3.445 -1 4.765 -1 6.125 C-0.01 5.795 0.98 5.465 2 5.125 C1.67 4.135 1.34 3.145 1 2.125 C0.34 2.125 -0.32 2.125 -1 2.125 Z " fill="#FFFFFF" transform="translate(47,105.875)"/>
<path d="M0 0 C3 0.125 3 0.125 4 1.125 C4.04080783 3.12458364 4.04254356 5.12545254 4 7.125 C1.6875 8.25 1.6875 8.25 -1 9.125 C-1.99 8.465 -2.98 7.805 -4 7.125 C-4.25 4.0625 -4.25 4.0625 -4 1.125 C-3 0.125 -3 0.125 0 0 Z M-1 2.125 C-1 3.445 -1 4.765 -1 6.125 C-0.34 6.125 0.32 6.125 1 6.125 C1 4.805 1 3.485 1 2.125 C0.34 2.125 -0.32 2.125 -1 2.125 Z " fill="#FFFFFF" transform="translate(295,105.875)"/>
<path d="M0 0 C3.375 -0.1875 3.375 -0.1875 7 0 C9.1519437 3.22791555 9.20086443 4.28400809 9 8 C8.01 8 7.02 8 6 8 C5.67 6.35 5.34 4.7 5 3 C4.67 3 4.34 3 4 3 C3.67 4.65 3.34 6.3 3 8 C2.01 8 1.02 8 0 8 C0 5.36 0 2.72 0 0 Z " fill="#FFFFFF" transform="translate(120,106)"/>
<path d="M0 0 C2.33294775 -0.04241723 4.66702567 -0.04092937 7 0 C8 1 8 1 8.0625 4.5625 C8.041875 5.696875 8.02125 6.83125 8 8 C7.01 8 6.02 8 5 8 C5 6.02 5 4.04 5 2 C4.34 2 3.68 2 3 2 C3 3.98 3 5.96 3 8 C2.01 8 1.02 8 0 8 C0 5.36 0 2.72 0 0 Z " fill="#FFFFFF" transform="translate(303,106)"/>
<path d="M0 0 C2.33294775 -0.04241723 4.66702567 -0.04092937 7 0 C8 1 8 1 8.0625 4.5625 C8.041875 5.696875 8.02125 6.83125 8 8 C7.01 8 6.02 8 5 8 C5 6.02 5 4.04 5 2 C4.34 2 3.68 2 3 2 C3 3.98 3 5.96 3 8 C2.01 8 1.02 8 0 8 C0 5.36 0 2.72 0 0 Z " fill="#FFFFFF" transform="translate(234,106)"/>
<path d="M0 0 C1.4540625 0.0309375 1.4540625 0.0309375 2.9375 0.0625 C3.2675 1.0525 3.5975 2.0425 3.9375 3.0625 C2.2875 2.7325 0.6375 2.4025 -1.0625 2.0625 C-1.0625 3.3825 -1.0625 4.7025 -1.0625 6.0625 C0.5875 5.7325 2.2375 5.4025 3.9375 5.0625 C3.6075 6.0525 3.2775 7.0425 2.9375 8.0625 C1.0625 8.875 1.0625 8.875 -1.0625 9.0625 C-2.0525 8.4025 -3.0425 7.7425 -4.0625 7.0625 C-4.3125 4 -4.3125 4 -4.0625 1.0625 C-3.0625 0.0625 -3.0625 0.0625 0 0 Z " fill="#FFFFFF" transform="translate(59.0625,105.9375)"/>
<path d="M0 0 C1.98 0 3.96 0 6 0 C6.33 0.99 6.66 1.98 7 3 C5.35 2.67 3.7 2.34 2 2 C2 3.32 2 4.64 2 6 C3.65 5.67 5.3 5.34 7 5 C6.67 5.99 6.34 6.98 6 8 C4.125 8.8125 4.125 8.8125 2 9 C1.01 8.34 0.02 7.68 -1 7 C-0.67 4.69 -0.34 2.38 0 0 Z " fill="#FFFFFF" transform="translate(177,106)"/>
<path d="M0 0 C1.98 0 3.96 0 6 0 C5.67 1.65 5.34 3.3 5 5 C5.66 5.33 6.32 5.66 7 6 C7 6.66 7 7.32 7 8 C4.69 8 2.38 8 0 8 C0.875 4.125 0.875 4.125 2 3 C1.34 2.67 0.68 2.34 0 2 C0 1.34 0 0.68 0 0 Z " fill="#FFFFFF" transform="translate(103,106)"/>
<path d="M0 0 C0.99 0 1.98 0 3 0 C3 0.66 3 1.32 3 2 C3.66 2 4.32 2 5 2 C5 2.66 5 3.32 5 4 C4.34 4 3.68 4 3 4 C3 5.32 3 6.64 3 8 C3.66 8 4.32 8 5 8 C5 8.66 5 9.32 5 10 C3.35 9.67 1.7 9.34 0 9 C-1.125 2.25 -1.125 2.25 0 0 Z " fill="#FFFFFF" transform="translate(88,104)"/>
<path d="M0 0 C1.98 0.66 3.96 1.32 6 2 C6 4.31 6 6.62 6 9 C4.02 8.01 2.04 7.02 0 6 C0 4.02 0 2.04 0 0 Z " fill="#0BBC89" transform="translate(25,25)"/>
<path d="M0 0 C1.98 0 3.96 0 6 0 C5.49396008 2.16874252 5.00016187 3.99967627 4 6 C4.66 6 5.32 6 6 6 C6 6.66 6 7.32 6 8 C4.02 8 2.04 8 0 8 C0.50603992 5.83125748 0.99983813 4.00032373 2 2 C1.34 2 0.68 2 0 2 C0 1.34 0 0.68 0 0 Z " fill="#FFFFFF" transform="translate(253,106)"/>
<path d="M0 0 C0 1.98 0 3.96 0 6 C-1.98 6.66 -3.96 7.32 -6 8 C-6 6.68 -6 5.36 -6 4 C-6.66 3.67 -7.32 3.34 -8 3 C-1.125 0 -1.125 0 0 0 Z " fill="#0AC185" transform="translate(55,46)"/>
<path d="M0 0 C0.99 0 1.98 0 3 0 C4.04005702 3.38018531 4.08004482 6.4780279 4 10 C2.68 10 1.36 10 0 10 C-1.125 2.25 -1.125 2.25 0 0 Z " fill="#FFFFFF" transform="translate(276,104)"/>
<path d="M0 0 C1.98 0 3.96 0 6 0 C6 0.99 6 1.98 6 3 C5.01 3 4.02 3 3 3 C3 4.65 3 6.3 3 8 C2.01 8 1.02 8 0 8 C0 5.36 0 2.72 0 0 Z " fill="#FFFFFF" transform="translate(200,106)"/>
<path d="M0 0 C0.99 0 1.98 0 3 0 C3 3.63 3 7.26 3 11 C2.01 11 1.02 11 0 11 C0 7.37 0 3.74 0 0 Z " fill="#FFFFFF" transform="translate(284,103)"/>
<path d="M0 0 C1.32 0.33 2.64 0.66 4 1 C3.67 4.3 3.34 7.6 3 11 C2.01 11 1.02 11 0 11 C0 7.37 0 3.74 0 0 Z " fill="#FFFFFF" transform="translate(96,103)"/>
<path d="M0 0 C2.1519437 3.22791555 2.20086443 4.28400809 2 8 C0.33333333 8 -1.33333333 8 -3 8 C-3.33 5.69 -3.66 3.38 -4 1 C-3.01 1 -2.02 1 -1 1 C-0.67 0.67 -0.34 0.34 0 0 Z " fill="#0CBA8A" transform="translate(54,33)"/>
<path d="M0 0 C0.99 0 1.98 0 3 0 C3 3.63 3 7.26 3 11 C2.01 11 1.02 11 0 11 C0 7.37 0 3.74 0 0 Z " fill="#FFFFFF" transform="translate(246,103)"/>
<path d="M0 0 C0.99 0 1.98 0 3 0 C3 3.63 3 7.26 3 11 C2.01 11 1.02 11 0 11 C0 7.37 0 3.74 0 0 Z " fill="#FFFFFF" transform="translate(113,103)"/>
<path d="M0 0 C1.65 0 3.3 0 5 0 C5 0.99 5 1.98 5 3 C4.01 3.495 4.01 3.495 3 4 C2.34786708 6.02463255 2.34786708 6.02463255 2 8 C1.34 8 0.68 8 0 8 C0 5.36 0 2.72 0 0 Z " fill="#FFFFFF" transform="translate(67,106)"/>
<path d="M0 0 C1.65 0.33 3.3 0.66 5 1 C3.35 2.65 1.7 4.3 0 6 C0 5.34 0 4.68 0 4 C-0.66 4 -1.32 4 -2 4 C-1.34 2.68 -0.68 1.36 0 0 Z " fill="#09C483" transform="translate(55,14)"/>
<path d="M0 0 C0.33 0.66 0.66 1.32 1 2 C1.66 2.33 2.32 2.66 3 3 C1.8125 4.5625 1.8125 4.5625 0 6 C-2.6875 5.6875 -2.6875 5.6875 -5 5 C-3.625 3.5 -3.625 3.5 -2 2 C-1.34 2 -0.68 2 0 2 C0 1.34 0 0.68 0 0 Z " fill="#09C582" transform="translate(5,66)"/>
<path d="M0 0 C0.66 0.33 1.32 0.66 2 1 C2 2.65 2 4.3 2 6 C0.68 6.33 -0.64 6.66 -2 7 C-2.33 5.35 -2.66 3.7 -3 2 C-2.01 1.34 -1.02 0.68 0 0 Z " fill="#08C880" transform="translate(12,31)"/>
<path d="M0 0 C2.89932357 2.39509338 3.50168276 4.31245243 4 8 C2.68 7.67 1.36 7.34 0 7 C0 4.69 0 2.38 0 0 Z " fill="#09C781" transform="translate(30,52)"/>
<path d="M0 0 C1.98 0.99 1.98 0.99 4 2 C4 3.65 4 5.3 4 7 C3.01 6.67 2.02 6.34 1 6 C0.67 4.02 0.34 2.04 0 0 Z " fill="#0EB191" transform="translate(32,53)"/>
<path d="M0 0 C0 1.98 0 3.96 0 6 C-0.99 6 -1.98 6 -3 6 C-3.33 4.35 -3.66 2.7 -4 1 C-1 0 -1 0 0 0 Z " fill="#0EB191" transform="translate(55,46)"/>
<path d="M0 0 C0.66 0.33 1.32 0.66 2 1 C2 2.65 2 4.3 2 6 C1.01 6 0.02 6 -1 6 C-1.33 4.35 -1.66 2.7 -2 1 C-1.34 0.67 -0.68 0.34 0 0 Z " fill="#0DB58E" transform="translate(8,33)"/>
</svg>
