<?xml version="1.0" encoding="UTF-8"?>
<svg version="1.1" xmlns="http://www.w3.org/2000/svg" width="487" height="259">
<path d="M0 0 C3.02172852 -0.38818359 3.02172852 -0.38818359 6.87890625 -0.3984375 C7.56500473 -0.40130768 8.25110321 -0.40417786 8.95799255 -0.40713501 C10.4147931 -0.40917898 11.87162089 -0.40362582 13.32836914 -0.39111328 C15.53010822 -0.37523362 17.72996323 -0.39085848 19.93164062 -0.41015625 C32.78751658 -0.43054354 42.0095409 2.02743378 51.83984375 10.60546875 C57.97905381 16.91173215 61.29475994 25.13978295 65 33 C72.57153808 49.18450763 72.57153808 49.18450763 87 59 C91.22386141 60.26715842 94.41495289 60.17848895 98.6875 58.875 C102.09623531 56.94552718 104.39823073 54.90785977 107 52 C107.33 51.67 107.66 51.34 108 51 C108.43484213 46.48433175 108.50637021 42.32218889 106.875 38.0625 C103.54765288 34.40241816 100.37998948 33.14785602 95.5 32.625 C90.01801631 33.2123554 86.64081712 35.0099982 83.125 39.1875 C82.073125 40.5796875 82.073125 40.5796875 81 42 C78 41 78 41 76.83203125 39.328125 C73.03184883 31.58215931 73.03184883 31.58215931 74 28 C79.93500409 21.92023971 85.51788292 19.83207152 93.9375 19.5625 C100.06294949 19.67363409 103.86897683 20.71614517 109 24 C109.99 22.515 109.99 22.515 111 21 C113.05859375 20.3828125 113.05859375 20.3828125 115.4375 20.125 C116.21996094 20.02445313 117.00242187 19.92390625 117.80859375 19.8203125 C120 20 120 20 121.61468506 21.22227478 C123.39156482 23.50248116 123.36917202 24.75283801 123.35644531 27.62329102 C123.35944641 28.55758438 123.36244751 29.49187775 123.36553955 30.45448303 C123.34701935 31.96394753 123.34701935 31.96394753 123.328125 33.50390625 C123.32625183 34.53813217 123.32437866 35.57235809 123.32244873 36.63792419 C123.31572506 38.82432275 123.30180439 41.01070921 123.28125 43.19702148 C123.25009114 46.55268468 123.24027919 49.90787836 123.234375 53.26367188 C123.22520532 55.38542242 123.21482966 57.50716817 123.203125 59.62890625 C123.19887512 60.63724014 123.19462524 61.64557404 123.19024658 62.6844635 C123.18063904 63.61560471 123.17103149 64.54674591 123.16113281 65.50610352 C123.15430481 66.32756363 123.14747681 67.14902374 123.14044189 67.99537659 C123 70 123 70 122 72 C120.22925083 72.02705729 118.45838289 72.04642195 116.6875 72.0625 C115.70136719 72.07410156 114.71523437 72.08570312 113.69921875 72.09765625 C111 72 111 72 108 71 C106.0930138 71.5448749 106.0930138 71.5448749 104.0625 72.4375 C94.82477691 75.65127098 86.58313676 74.64248598 77.8125 70.53125 C63.08525075 62.51308097 56.35671165 49.7016888 50.15673828 34.71704102 C45.79938189 24.51539899 41.35672354 18.4385958 31 14 C24.73 13.67 18.46 13.34 12 13 C12 28.18 12 43.36 12 59 C28.15460219 59.53686699 28.15460219 59.53686699 42.25 52.75 C44 51 44 51 46 50.8125 C49.21197421 52.71960968 50.63623936 55.58683111 52 59 C52.125 61.125 52.125 61.125 51 63 C43.59605323 70.22766232 35.47100948 72.15166132 25.36328125 72.16796875 C24.28230415 72.17296135 24.28230415 72.17296135 23.17948914 72.17805481 C21.66418086 72.18309656 20.14886158 72.18546399 18.63354492 72.18530273 C16.30955045 72.18750279 13.98602085 72.20572376 11.66210938 72.22460938 C10.18750162 72.22754112 8.71289162 72.22952738 7.23828125 72.23046875 C6.54245438 72.23765427 5.8466275 72.24483978 5.12971497 72.25224304 C0.22884411 72.22884411 0.22884411 72.22884411 -2 70 C-2.25396729 67.23609924 -2.25396729 67.23609924 -2.25878906 63.67016602 C-2.2622937 63.02120361 -2.26579834 62.37224121 -2.26940918 61.70361328 C-2.27822752 59.55360282 -2.27237651 57.4039202 -2.265625 55.25390625 C-2.26697179 53.7617944 -2.26891244 52.26968298 -2.27142334 50.77757263 C-2.27437487 47.64781524 -2.27007671 44.51817189 -2.26074219 41.38842773 C-2.24935741 37.37549777 -2.25590062 33.3628356 -2.26788712 29.3499155 C-2.2751134 26.26757285 -2.27281409 23.1852937 -2.26763153 20.10294914 C-2.26629665 18.62336127 -2.26793712 17.14376764 -2.27259064 15.66418648 C-2.27766748 13.59571184 -2.26992934 11.52767085 -2.25878906 9.45922852 C-2.25719788 8.28167496 -2.25560669 7.1041214 -2.25396729 5.8908844 C-2 3 -2 3 0 0 Z " fill="#DDDEE1" transform="translate(59,45)"/>
<path d="M0 0 C2.64453125 -0.46875 2.64453125 -0.46875 5.8125 -0.5 C6.85019531 -0.5309375 7.88789062 -0.561875 8.95703125 -0.59375 C15.37588129 0.65870854 18.42226863 6.84704081 21.86523438 11.94921875 C22.42533203 12.79097656 22.98542969 13.63273438 23.5625 14.5 C24.68695173 16.17832452 25.81320564 17.85544325 26.94140625 19.53125 C27.46621582 20.31113281 27.99102539 21.09101563 28.53173828 21.89453125 C29.74857619 23.63946143 31.06415292 25.31505077 32.40234375 26.96875 C34 29 34 29 34 31 C37.55742374 29.81419209 38.06525104 28.87067373 40.14453125 25.84375 C40.73943359 24.98523438 41.33433594 24.12671875 41.94726562 23.2421875 C42.56279297 22.33726562 43.17832031 21.43234375 43.8125 20.5 C44.41642578 19.62601563 45.02035156 18.75203125 45.64257812 17.8515625 C49.08945897 12.85006048 52.45919416 7.80618856 55.74487305 2.69726562 C57 1 57 1 59 0 C61.18576146 -0.09663965 63.37460848 -0.12980327 65.5625 -0.125 C67.32787109 -0.12886719 67.32787109 -0.12886719 69.12890625 -0.1328125 C72 0 72 0 73 1 C73.09947978 3.1007901 73.12799636 5.20496179 73.12939453 7.30810547 C73.13202301 8.29596039 73.13202301 8.29596039 73.13470459 9.30377197 C73.13912342 11.49160358 73.13618436 13.679355 73.1328125 15.8671875 C73.13348569 17.38314835 73.13445585 18.8991091 73.13571167 20.41506958 C73.13718882 23.59784977 73.13503416 26.78060196 73.13037109 29.96337891 C73.12468348 34.04464901 73.12794655 38.12585323 73.13394356 42.2071209 C73.137557 45.34006242 73.1364068 48.47298833 73.13381577 51.60593033 C73.13314816 53.11063774 73.13396912 54.61534657 73.13629532 56.12005234 C73.13883358 58.22444155 73.13496422 60.32872419 73.12939453 62.43310547 C73.12859894 63.63144012 73.12780334 64.82977478 73.12698364 66.06442261 C73 69 73 69 72 72 C68.37 72 64.74 72 61 72 C59.17669412 67.33674346 58.77486961 63.50415778 58.83984375 58.51171875 C58.84504532 57.80908401 58.85024689 57.10644928 58.85560608 56.38252258 C58.87329262 54.15062983 58.9044 51.91921306 58.9375 49.6875 C58.97428544 46.7539411 59.00458059 43.82042019 59.02734375 40.88671875 C59.03293304 40.19005096 59.03852234 39.49338318 59.04428101 38.77560425 C59.05907293 33.76654751 58.72188602 28.95247385 58 24 C55.9755561 26.62223254 53.95608657 29.24825656 51.9375 31.875 C51.34130859 32.6477124 50.74511719 33.4204248 50.13085938 34.21655273 C46.35000938 39.14413 42.80733271 44.11085065 39.5625 49.41015625 C38 51 38 51 35.5390625 51.53125 C32.01840727 50.7946206 31.3402816 49.41139528 29.375 46.4375 C28.69953125 45.44878906 28.0240625 44.46007812 27.328125 43.44140625 C26.96138672 42.89500488 26.59464844 42.34860352 26.21679688 41.78564453 C23.92858549 38.42770351 21.52164862 35.15592932 19.125 31.875 C18.64853027 31.21169678 18.17206055 30.54839355 17.68115234 29.86499023 C15.3191887 26.40900896 15.3191887 26.40900896 12 24 C12.00222061 24.58659897 12.00444122 25.17319794 12.00672913 25.77757263 C12.0287821 31.86025384 12.04390664 37.94292377 12.05493164 44.02563477 C12.05997325 46.29842591 12.06680637 48.5712138 12.07543945 50.84399414 C12.08751261 54.10303551 12.09322987 57.36203417 12.09765625 60.62109375 C12.10281754 61.64400009 12.10797882 62.66690643 12.11329651 63.72080994 C12.11337204 64.66170975 12.11344757 65.60260956 12.11352539 66.57202148 C12.115746 67.40475082 12.11796661 68.23748016 12.12025452 69.09544373 C12 71 12 71 11 72 C9.14712498 72.07226502 7.29166122 72.0838122 5.4375 72.0625 C3.91962891 72.04896484 3.91962891 72.04896484 2.37109375 72.03515625 C1.58863281 72.02355469 0.80617187 72.01195312 0 72 C-1.84522978 68.06072805 -2.2526138 64.93919363 -2.25878906 60.60498047 C-2.26509338 59.33371307 -2.27139771 58.06244568 -2.27789307 56.75265503 C-2.27431382 55.37416443 -2.270212 53.99567511 -2.265625 52.6171875 C-2.26697309 51.19662408 -2.26891482 49.77606111 -2.27142334 48.35549927 C-2.27436593 45.38490385 -2.27010361 42.41442902 -2.26074219 39.44384766 C-2.24932723 35.63614282 -2.25592533 31.82871931 -2.26788712 28.0210247 C-2.27511139 25.09052405 -2.27281556 22.16009021 -2.26763153 19.22958755 C-2.26629768 17.82535901 -2.26793351 16.42112438 -2.27259064 15.01690292 C-2.27766717 13.05667995 -2.26855833 11.09643568 -2.25878906 9.13623047 C-2.25719788 8.0210202 -2.25560669 6.90580994 -2.25396729 5.75680542 C-2 3 -2 3 0 0 Z " fill="#E9E9EC" transform="translate(59,135)"/>
<path d="M0 0 C2 -0.1875 2 -0.1875 4 1 C5.82843672 2.91250278 7.38496965 4.89148815 9 7 C7.92598892 9.91517292 7.22189824 11.77810176 5 14 C5.23669636 15.91564373 5.23669636 15.91564373 6 18 C9.74822284 29.24466852 10.1821963 37.03897296 5 48 C1.36724491 54.34396569 -5.25485687 57.75161896 -12 60 C-11.27554688 60.35191406 -10.55109375 60.70382813 -9.8046875 61.06640625 C-1.31161414 65.40353571 4.41725275 69.94884905 8 79 C8.75 82.8125 8.75 82.8125 9 86 C6.68884346 88.31115654 2.10530276 87.97266459 -1 88 C-5.12848267 86.32629081 -6.19707397 82.68305649 -8.015625 78.87109375 C-9.34684137 76.34072613 -10.4013539 75.22713844 -13 74 C-17.7609889 72.90731402 -21.74311315 72.36536931 -26.32421875 74.56640625 C-30.08920334 77.7872672 -31.89016328 82.62594827 -34 87 C-37.96 87 -41.92 87 -46 87 C-45.53150127 79.50402026 -44.58286926 73.39895772 -38.9453125 68.05078125 C-34.87996636 64.78618511 -30.77810923 62.08276556 -26 60 C-26.64066406 59.731875 -27.28132813 59.46375 -27.94140625 59.1875 C-35.65460493 55.69299568 -41.27706002 51.23288144 -44.9375 43.4375 C-47.4230117 35.51200044 -47.40771251 26.00783158 -43.9375 18.4375 C-40.25667504 12.17801801 -34.85976218 7.45916003 -28 5 C-21.88521702 4.0018516 -16.19204128 3.88855096 -10.0625 4.75 C-7.41188365 5.14016107 -7.41188365 5.14016107 -5 5 C-2.06026719 2.64581624 -2.06026719 2.64581624 0 0 Z M-30.25 21.125 C-33.32809814 26.18187551 -34.60258649 31.38018328 -33.4375 37.25 C-31.99845999 41.91063282 -29.0737445 44.49832295 -25.1875 47.3125 C-20.44470708 48.80309206 -16.34449905 48.46540352 -11.75 46.875 C-7.61417051 44.05511626 -5.56835329 40.70505988 -4 36 C-3.47633484 29.82075106 -4.05239648 24.98412511 -8 20 C-11.47899281 17.364848 -14.82459882 16.16455617 -19.125 15.5625 C-23.76209623 16.26814508 -26.84911849 17.91305635 -30.25 21.125 Z " fill="#D7D7DB" transform="translate(343,150)"/>
<path d="M0 0 C0.66 -0.99 1.32 -1.98 2 -3 C5.52059568 -4.17353189 8.306493 -4.20146402 12 -4 C14 -2 14 -2 14.24723816 0.0940094 C14.24581314 0.95703171 14.24438812 1.82005402 14.24291992 2.70922852 C14.24753487 4.17568565 14.24753487 4.17568565 14.25224304 5.67176819 C14.24505753 6.73012375 14.23787201 7.78847931 14.23046875 8.87890625 C14.23001053 9.96131088 14.22955231 11.04371552 14.2290802 12.15892029 C14.22605559 14.44962661 14.21816309 16.74033084 14.20581055 19.03100586 C14.18755785 22.55134303 14.18530078 26.07141734 14.18554688 29.59179688 C14.18063175 31.81250229 14.17480346 34.03320591 14.16796875 36.25390625 C14.16685593 37.31428604 14.1657431 38.37466583 14.16459656 39.46717834 C14.15821671 40.44166428 14.15183685 41.41615021 14.14526367 42.42016602 C14.13954597 43.71350609 14.13954597 43.71350609 14.13371277 45.03297424 C14 47 14 47 13 48 C11.14712498 48.07226502 9.29166122 48.0838122 7.4375 48.0625 C6.42558594 48.05347656 5.41367187 48.04445312 4.37109375 48.03515625 C3.19740234 48.01775391 3.19740234 48.01775391 2 48 C1.67 47.01 1.34 46.02 1 45 C0.45472656 45.27714844 -0.09054687 45.55429688 -0.65234375 45.83984375 C-7.97650193 49.35794366 -14.96861473 51.25534267 -22.95703125 48.84765625 C-31.52889058 45.29107217 -35.94702512 40.10594976 -40 32 C-41.59910317 21.81312052 -41.182035 13.43486012 -35.4375 4.6875 C-31.03275695 -0.7252937 -25.10864342 -3.16732766 -18.5 -4.9375 C-11.83395266 -5.05653656 -5.47244049 -4.01312302 0 0 Z M-25.3125 13.6875 C-27.65232696 18.28049366 -28.87474739 22.12362476 -27.3359375 27.18359375 C-25.39096125 31.49258586 -23.5167238 34.17180227 -19 36 C-14.41351941 37.42690507 -11.21345028 36.90543288 -6.8984375 35.0703125 C-3.13850074 32.95051276 -0.77195815 30.19326934 0.6640625 26.11328125 C1.6071239 21.40721997 0.73283502 17.9021656 -1.63671875 13.765625 C-4.06793082 10.61689189 -6.28932969 9.50942521 -10 8 C-16.57572983 7.19245423 -20.96801892 8.63850848 -25.3125 13.6875 Z " fill="#EF9226" transform="translate(272,69)"/>
<path d="M0 0 C7.11453123 4.01000851 11.82805089 9.3775849 14.125 17.3125 C15.20673077 26.39903846 15.20673077 26.39903846 13.4375 29.9375 C9.26709591 31.1779053 5.04228677 31.06712984 0.73046875 31.03515625 C-0.35762337 31.03303383 -0.35762337 31.03303383 -1.46769714 31.03086853 C-3.7701745 31.02529931 -6.07255235 31.01275261 -8.375 31 C-9.94205588 30.99498102 -11.5091133 30.99041881 -13.07617188 30.98632812 C-16.90498589 30.97533998 -20.73372611 30.95809673 -24.5625 30.9375 C-22.46230097 35.73704135 -22.46230097 35.73704135 -18.3125 38.8125 C-11.95732526 40.71905242 -7.4416915 40.21447076 -1.45703125 37.69140625 C2.37281086 36.16736599 2.37281086 36.16736599 4.4375 35.9375 C6.140625 37.15234375 6.140625 37.15234375 7.6875 38.875 C8.20828125 39.44089844 8.7290625 40.00679687 9.265625 40.58984375 C9.84570312 41.25693359 9.84570312 41.25693359 10.4375 41.9375 C8.92147692 46.18236463 6.27660839 47.76441978 2.4375 49.9375 C-5.40025391 53.20323079 -15.62126778 53.55588891 -23.5 50.3125 C-29.96898741 46.89128506 -34.84569076 42.88045695 -37.5625 35.9375 C-40.00116133 27.9815836 -39.47570027 18.77135451 -36.03125 11.23046875 C-28.14448756 -1.08210984 -13.57957711 -4.33049506 0 0 Z M-22.5625 13.9375 C-23.97440564 16.54187233 -23.97440564 16.54187233 -24.5625 18.9375 C-23.52457228 20.19931095 -23.52457228 20.19931095 -21.24584961 20.05102539 C-19.74550171 20.04317017 -19.74550171 20.04317017 -18.21484375 20.03515625 C-17.13525391 20.03193359 -16.05566406 20.02871094 -14.94335938 20.02539062 C-13.80705078 20.01701172 -12.67074219 20.00863281 -11.5 20 C-9.78973633 19.99323242 -9.78973633 19.99323242 -8.04492188 19.98632812 C-5.21739649 19.97449747 -2.3899736 19.9580141 0.4375 19.9375 C0.7675 18.9475 1.0975 17.9575 1.4375 16.9375 C-0.82007786 13.50932621 -2.77060141 11.46660196 -6.5625 9.9375 C-12.88168429 9.04071807 -17.7144032 9.45301046 -22.5625 13.9375 Z " fill="#E9E9EC" transform="translate(421.5625,156.0625)"/>
<path d="M0 0 C5.97091536 3.78923475 8.25861754 8.18297224 10 15 C10.42661731 19.94894713 10.45360386 24.8353751 10.35668945 29.79858398 C10.31197783 32.08925192 10.29514458 34.37886824 10.28320312 36.66992188 C10.18051878 47.81948122 10.18051878 47.81948122 9 49 C7.33570949 49.09823937 5.66718069 49.12973631 4 49.125 C2.63875 49.12886719 2.63875 49.12886719 1.25 49.1328125 C-1 49 -1 49 -2 48 C-2.1221692 45.85258322 -2.17980778 43.70144512 -2.2109375 41.55078125 C-2.23902895 40.21418094 -2.26769354 38.87759258 -2.296875 37.54101562 C-2.33797616 35.4323794 -2.37485592 33.32396069 -2.40136719 31.21508789 C-2.42916684 29.18068037 -2.47505898 27.14729013 -2.5234375 25.11328125 C-2.5531665 23.28470581 -2.5531665 23.28470581 -2.58349609 21.41918945 C-3.04001133 17.67153657 -4.06108541 15.22060533 -6 12 C-9.97079498 9.17415817 -14.32412048 9.6159099 -19 10 C-21.92511453 10.4333259 -21.92511453 10.4333259 -24 12 C-25.85346335 16.42956041 -26.28077981 20.33916196 -26.37890625 25.11328125 C-26.39590073 25.76830124 -26.4128952 26.42332123 -26.43040466 27.09819031 C-26.48310768 29.16953161 -26.52367626 31.24085584 -26.5625 33.3125 C-26.60644448 35.40190383 -26.65304972 37.49115514 -26.70530701 39.58036804 C-26.75173377 41.46270012 -26.78929272 43.34524466 -26.82641602 45.2277832 C-27 48 -27 48 -28 49 C-29.64230364 49.1245486 -31.29052276 49.17568524 -32.9375 49.1875 C-33.83339844 49.20167969 -34.72929687 49.21585938 -35.65234375 49.23046875 C-38 49 -38 49 -40 47 C-40.24723816 44.94395447 -40.24723816 44.94395447 -40.24291992 42.38256836 C-40.24599655 41.42495102 -40.24907318 40.46733368 -40.25224304 39.48069763 C-40.24505753 38.44421585 -40.23787201 37.40773407 -40.23046875 36.33984375 C-40.23001053 35.27963516 -40.22955231 34.21942657 -40.2290802 33.12709045 C-40.22605571 30.88346234 -40.21816356 28.63983638 -40.20581055 26.39624023 C-40.18755733 22.94832991 -40.18530079 19.50068796 -40.18554688 16.05273438 C-40.18063176 13.87760183 -40.17480347 11.70247111 -40.16796875 9.52734375 C-40.16685593 8.48883774 -40.1657431 7.45033173 -40.16459656 6.38035583 C-40.15821671 5.42589066 -40.15183685 4.47142548 -40.14526367 3.48803711 C-40.14145187 2.64357529 -40.13764008 1.79911346 -40.13371277 0.92906189 C-40 -1 -40 -1 -39 -2 C-37.14712498 -2.07226502 -35.29166122 -2.0838122 -33.4375 -2.0625 C-32.42558594 -2.05347656 -31.41367188 -2.04445312 -30.37109375 -2.03515625 C-29.19740234 -2.01775391 -29.19740234 -2.01775391 -28 -2 C-27.67 -1.01 -27.34 -0.02 -27 1 C-25.948125 0.566875 -25.948125 0.566875 -24.875 0.125 C-15.83399628 -3.41278406 -8.91197123 -4.54843345 0 0 Z " fill="#F0F1F3" transform="translate(278,158)"/>
<path d="M0 0 C4.253305 3.18997875 5.60166628 5.96838892 7 11 C7.27821125 13.45140859 7.48557345 15.91179765 7.625 18.375 C7.69976562 19.62023437 7.77453125 20.86546875 7.8515625 22.1484375 C7.90054688 23.08945313 7.94953125 24.03046875 8 25 C8.804375 25.309375 9.60875 25.61875 10.4375 25.9375 C13 27 13 27 14 28 C14.375 31.375 14.375 31.375 14 35 C11.5625 36.8125 11.5625 36.8125 9 38 C7.09349429 41.81301141 7.66805681 46.75817961 7.5703125 50.99609375 C7.30788169 57.58966779 6.41835084 63.64210793 1.5 68.4375 C-2.75193441 71.09495901 -6.06496884 71.17625111 -11 71 C-11.99 70.67 -12.98 70.34 -14 70 C-15.35439668 67.29120665 -15.06501451 64.99066732 -15 62 C-12.36 61.01 -9.72 60.02 -7 59 C-6.94392578 56.99099609 -6.94392578 56.99099609 -6.88671875 54.94140625 C-6.82100692 53.14841192 -6.75456143 51.35544436 -6.6875 49.5625 C-6.66494141 48.68400391 -6.64238281 47.80550781 -6.61914062 46.90039062 C-6.39816951 41.45646584 -5.57610456 36.97612561 -3.51000977 31.92089844 C-2.78257922 29.18110738 -3.83357173 27.44171772 -5.16015625 25.0390625 C-6.95982411 20.66963634 -6.77741946 15.67419125 -7 11 C-8.134375 10.525625 -9.26875 10.05125 -10.4375 9.5625 C-14 8 -14 8 -15 7 C-15.04092937 4.66702567 -15.04241723 2.33294775 -15 0 C-10.02570284 -2.9845783 -5.21373256 -1.809371 0 0 Z " fill="#DDDDE1" transform="translate(215,137)"/>
<path d="M0 0 C0.77851318 -0.01305176 1.55702637 -0.02610352 2.35913086 -0.03955078 C4.28257448 -0.04254513 6.20554896 0.06359671 8.125 0.1875 C10.125 2.1875 10.125 2.1875 10.3203125 4.3515625 C10.29710937 5.16367188 10.27390625 5.97578125 10.25 6.8125 C10.23195312 7.62976563 10.21390625 8.44703125 10.1953125 9.2890625 C10.17210937 9.91554688 10.14890625 10.54203125 10.125 11.1875 C7.36047967 12.56976016 5.0788637 12.28275387 2 12.25 C0.90429688 12.24097656 -0.19140625 12.23195313 -1.3203125 12.22265625 C-2.58488281 12.20525391 -2.58488281 12.20525391 -3.875 12.1875 C-3.73662204 16.47944146 -3.58804061 20.77096929 -3.4375 25.0625 C-3.39818359 26.28582031 -3.35886719 27.50914063 -3.31835938 28.76953125 C-3.27646484 29.93613281 -3.23457031 31.10273437 -3.19140625 32.3046875 C-3.15474854 33.38347168 -3.11809082 34.46225586 -3.08032227 35.57373047 C-3.04123357 38.16819536 -3.04123357 38.16819536 -1.875 40.1875 C1.755 40.1875 5.385 40.1875 9.125 40.1875 C11.63005051 46.45012626 11.63005051 46.45012626 11.125 50.1875 C6.0305726 53.58378493 0.07058009 52.73044474 -5.875 52.1875 C-9.85983916 50.97301031 -12.22984466 49.04770711 -14.75 45.6875 C-16.71568901 41.3193022 -16.99525522 37.68160631 -16.97265625 32.890625 C-16.96943359 31.68535156 -16.96621094 30.48007813 -16.96289062 29.23828125 C-16.95451172 27.98402344 -16.94613281 26.72976562 -16.9375 25.4375 C-16.93073242 23.53291016 -16.93073242 23.53291016 -16.92382812 21.58984375 C-16.91204556 18.45568164 -16.89559416 15.32161459 -16.875 12.1875 C-18.793125 12.249375 -18.793125 12.249375 -20.75 12.3125 C-22.9296875 12.3828125 -22.9296875 12.3828125 -24.875 12.1875 C-26.875 10.1875 -26.875 10.1875 -27.0625 6.6875 C-26.875 3.1875 -26.875 3.1875 -25.875 1.1875 C-17.37306117 0.00014095 -8.57655682 0.08507972 0 0 Z " fill="#CBCBD0" transform="translate(215.875,64.8125)"/>
<path d="M0 0 C0.680625 -0.01417969 1.36125 -0.02835938 2.0625 -0.04296875 C4 0.1875 4 0.1875 7 2.1875 C7.1875 5.8125 7.1875 5.8125 7 9.1875 C6.43410156 9.36925781 5.86820313 9.55101562 5.28515625 9.73828125 C4.55167969 9.98964844 3.81820312 10.24101562 3.0625 10.5 C2.33160156 10.74363281 1.60070312 10.98726562 0.84765625 11.23828125 C-1.35932024 12.09990441 -1.35932024 12.09990441 -2 15.1875 C-2.27110761 18.41066824 -2.44479501 21.6336383 -2.62109375 24.86328125 C-3 28.1875 -3 28.1875 -4.16015625 31.41796875 C-4.57587891 32.78888672 -4.57587891 32.78888672 -5 34.1875 C-4.34 35.1775 -3.68 36.1675 -3 37.1875 C-2.72875977 39.5 -2.72875977 39.5 -2.69140625 42.1875 C-2.66626953 43.156875 -2.64113281 44.12625 -2.61523438 45.125 C-2.58007922 47.16660316 -2.54882888 49.20827729 -2.52148438 51.25 C-2.49505859 52.219375 -2.46863281 53.18875 -2.44140625 54.1875 C-2.42795166 55.074375 -2.41449707 55.96125 -2.40063477 56.875 C-1.92138017 59.64130076 -1.22283094 60.52012867 1 62.1875 C3.60611077 62.90947162 3.60611077 62.90947162 6 63.1875 C6.09765625 69.33984375 6.09765625 69.33984375 6 71.1875 C4.29207001 72.89542999 2.14456519 72.44020346 -0.1875 72.5 C-5.28503011 72.43388418 -8.22794681 71.86525186 -12 68.1875 C-15.41958173 61.79828151 -15.41776447 56.16680825 -15.3515625 49.0390625 C-15.43754412 44.53935784 -15.52352981 42.76918443 -18.4765625 39.1640625 C-19.30929688 38.51179688 -20.14203125 37.85953125 -21 37.1875 C-22 36.1875 -22 36.1875 -22.375 33.375 C-22 30.1875 -22 30.1875 -19.5625 27.9375 C-18.716875 27.36 -17.87125 26.7825 -17 26.1875 C-15.69466279 23.57682559 -15.77855917 21.41396803 -15.625 18.5 C-15.11184317 12.00778863 -14.39247459 7.46035086 -9.5 2.8125 C-6.28610825 0.72347036 -3.76609305 0.03566376 0 0 Z " fill="#DBDCDF" transform="translate(165,134.8125)"/>
<path d="M0 0 C0.89589844 -0.01417969 1.79179687 -0.02835938 2.71484375 -0.04296875 C5.0625 0.1875 5.0625 0.1875 7.0625 2.1875 C7.31646729 4.81732178 7.31646729 4.81732178 7.32128906 8.19433594 C7.32759338 9.45614685 7.33389771 10.71795776 7.34039307 12.01800537 C7.33681184 13.40262999 7.33270952 14.78725334 7.328125 16.171875 C7.32947225 17.58953925 7.33141329 19.00720305 7.33392334 20.42486572 C7.33687561 23.40080144 7.33257631 26.37661727 7.32324219 29.35253906 C7.31188899 33.15667228 7.31837997 36.96052199 7.33038712 40.76464462 C7.33763852 43.6952729 7.33530206 46.6258348 7.33013153 49.55646515 C7.32880193 50.95821415 7.33041849 52.35996928 7.33509064 53.76171112 C7.3402049 55.72883479 7.33101998 57.69597969 7.32128906 59.66308594 C7.31890228 61.33948151 7.31890228 61.33948151 7.31646729 63.04974365 C7.04763471 66.37116016 6.24126701 69.0816365 5.0625 72.1875 C3.60457116 72.24149736 2.14607288 72.28029177 0.6875 72.3125 C-0.12460937 72.33570313 -0.93671875 72.35890625 -1.7734375 72.3828125 C-3.9375 72.1875 -3.9375 72.1875 -5.9375 70.1875 C-6.18473816 67.33421326 -6.18473816 67.33421326 -6.18041992 63.64233398 C-6.18231827 62.97065186 -6.18421661 62.29896973 -6.18617249 61.60693359 C-6.18988324 59.382369 -6.17917302 57.15812942 -6.16796875 54.93359375 C-6.16677712 53.39185118 -6.16632375 51.85010788 -6.1665802 50.30836487 C-6.16501488 47.07605449 -6.15672083 43.8438548 -6.14331055 40.61157227 C-6.12630639 36.4595031 -6.12249658 32.3075555 -6.12325573 28.15545559 C-6.12298439 24.97197805 -6.11750924 21.78852732 -6.11025429 18.60505867 C-6.10706288 17.07358058 -6.10509912 15.54209945 -6.10436058 14.01061821 C-6.10220278 11.87478283 -6.09347128 9.73907884 -6.08276367 7.60327148 C-6.07895187 6.38574692 -6.07514008 5.16822235 -6.07121277 3.9138031 C-5.84682825 -0.66122898 -4.12504488 0.02959143 0 0 Z " fill="#D2D3D7" transform="translate(366.9375,134.8125)"/>
<path d="M0 0 C-0.99 0.33 -1.98 0.66 -3 1 C-2.27554688 1.35191406 -1.55109375 1.70382813 -0.8046875 2.06640625 C7.68838586 6.40353571 13.41725275 10.94884905 17 20 C17.75 23.8125 17.75 23.8125 18 27 C15.68884346 29.31115654 11.10530276 28.97266459 8 29 C3.87151733 27.32629081 2.80292603 23.68305649 0.984375 19.87109375 C-0.34684137 17.34072613 -1.4013539 16.22713844 -4 15 C-8.7609889 13.90731402 -12.74311315 13.36536931 -17.32421875 15.56640625 C-21.08920334 18.7872672 -22.89016328 23.62594827 -25 28 C-28.96 28 -32.92 28 -37 28 C-36.53150127 20.50402026 -35.58286926 14.39895772 -29.9453125 9.05078125 C-25.87996636 5.78618511 -21.77810923 3.08276556 -17 1 C-17 0.67 -17 0.34 -17 0 C-14.9174133 -0.19561869 -12.83388144 -0.38119313 -10.75 -0.5625 C-9.58984375 -0.66691406 -8.4296875 -0.77132812 -7.234375 -0.87890625 C-4.48128523 -0.98198087 -2.580018 -0.86213473 0 0 Z " fill="#EF9529" transform="translate(334,209)"/>
<path d="M0 0 C2.97 0 5.94 0 9 0 C9 15.84 9 31.68 9 48 C6.03 48 3.06 48 0 48 C0 46.02 0 44.04 0 42 C-0.99 42.66 -1.98 43.32 -3 44 C-5.6875 44.125 -5.6875 44.125 -8 44 C-8 44.66 -8 45.32 -8 46 C-14.3754757 49.18773785 -23.45961117 46.71551182 -30 45 C-30.33 43.68 -30.66 42.36 -31 41 C-31.66 41 -32.32 41 -33 41 C-33 40.34 -33 39.68 -33 39 C-31.1746875 39.185625 -31.1746875 39.185625 -29.3125 39.375 C-28.49652344 39.45621094 -27.68054688 39.53742188 -26.83984375 39.62109375 C-24 40 -24 40 -20.75390625 40.72265625 C-14.66608138 42.26257699 -14.66608138 42.26257699 -8.82421875 40.86328125 C-7.05013909 39.30941453 -7.05013909 39.30941453 -5.66015625 37.578125 C-4 36 -4 36 2 34 C2 28.72 2 23.44 2 18 C1.01 17.67 0.02 17.34 -1 17 C-1.33 15.35 -1.66 13.7 -2 12 C-2.99 12 -3.98 12 -5 12 C-5 11.34 -5 10.68 -5 10 C-5.9590625 9.8453125 -5.9590625 9.8453125 -6.9375 9.6875 C-7.618125 9.460625 -8.29875 9.23375 -9 9 C-9.33 8.01 -9.66 7.02 -10 6 C-8 4 -8 4 -5.5625 3.75 C-3 4 -3 4 0 6 C0 4.02 0 2.04 0 0 Z " fill="#F29423" transform="translate(275,67)"/>
<path d="M0 0 C0.66 0.33 1.32 0.66 2 1 C4.92942275 11.25933035 2.96946269 23.60501847 2.62768555 34.24584961 C2.56113314 36.35583514 2.50221186 38.46595905 2.44335938 40.57617188 C2.4015013 41.92188938 2.3592014 43.26759322 2.31640625 44.61328125 C2.27974854 45.81766846 2.24309082 47.02205566 2.20532227 48.26293945 C2 51 2 51 1 52 C-0.68608966 52.07205511 -2.37500659 52.08386068 -4.0625 52.0625 C-4.98160156 52.05347656 -5.90070313 52.04445312 -6.84765625 52.03515625 C-7.55792969 52.02355469 -8.26820313 52.01195312 -9 52 C-10.75147355 48.97091074 -11.24002524 46.84051358 -11.18286133 43.35498047 C-11.17237259 42.44078339 -11.16188385 41.5265863 -11.15107727 40.58468628 C-11.12829208 39.60541168 -11.1055069 38.62613708 -11.08203125 37.6171875 C-11.06412033 36.60657257 -11.04620941 35.59595764 -11.02775574 34.55471802 C-10.98660284 32.42129847 -10.94002945 30.28797755 -10.88842773 28.15478516 C-10.8126297 24.88060236 -10.76374698 21.60673972 -10.71679688 18.33203125 C-10.67350698 16.26038192 -10.62863921 14.18876484 -10.58203125 12.1171875 C-10.56936722 11.13386444 -10.55670319 10.15054138 -10.5436554 9.13742065 C-10.51740585 8.22952789 -10.49115631 7.32163513 -10.46411133 6.38623047 C-10.44697586 5.58555145 -10.42984039 4.78487244 -10.41218567 3.95993042 C-9.33083772 -1.18184644 -4.12451916 -0.22497377 0 0 Z " fill="#EB972F" transform="translate(190,155)"/>
<path d="M0 0 C0 0.66 0 1.32 0 2 C0.99 2 1.98 2 3 2 C3.28875 2.804375 3.5775 3.60875 3.875 4.4375 C4.73262568 7.1326468 4.73262568 7.1326468 7 8 C8.19465136 19.17662713 8.19465136 19.17662713 7 24 C4.10338298 27.18410897 0.93043123 28.40996191 -3 30 C-3.99580078 30.83144531 -3.99580078 30.83144531 -5.01171875 31.6796875 C-7 33 -7 33 -9.47265625 32.92578125 C-10.32730469 32.72339844 -11.18195313 32.52101562 -12.0625 32.3125 C-12.91972656 32.12300781 -13.77695312 31.93351562 -14.66015625 31.73828125 C-17 31 -17 31 -20 29 C-20 28.34 -20 27.68 -20 27 C-21.98 26.34 -23.96 25.68 -26 25 C-26 23.68 -26 22.36 -26 21 C-26.66 21 -27.32 21 -28 21 C-28.05428973 18.77110504 -28.09292338 16.54182529 -28.125 14.3125 C-28.15980469 12.45044922 -28.15980469 12.45044922 -28.1953125 10.55078125 C-28.00832521 7.1513524 -27.61768848 4.97304909 -26 2 C-23.375 0.6875 -23.375 0.6875 -21 0 C-21 -0.66 -21 -1.32 -21 -2 C-12.94231212 -3.61153758 -7.28772722 -3.64386361 0 0 Z M-23.3125 5.6875 C-25.65232696 10.28049366 -26.87474739 14.12362476 -25.3359375 19.18359375 C-23.39096125 23.49258586 -21.5167238 26.17180227 -17 28 C-12.41351941 29.42690507 -9.21345028 28.90543288 -4.8984375 27.0703125 C-1.13850074 24.95051276 1.22804185 22.19326934 2.6640625 18.11328125 C3.6071239 13.40721997 2.73283502 9.9021656 0.36328125 5.765625 C-2.06793082 2.61689189 -4.28932969 1.50942521 -8 0 C-14.57572983 -0.80754577 -18.96801892 0.63850848 -23.3125 5.6875 Z " fill="#AA6821" transform="translate(270,77)"/>
<path d="M0 0 C-0.99 0.33 -1.98 0.66 -3 1 C-2.27554688 1.35191406 -1.55109375 1.70382813 -0.8046875 2.06640625 C7.68838586 6.40353571 13.41725275 10.94884905 17 20 C17.75 23.8125 17.75 23.8125 18 27 C15.68884346 29.31115654 11.10530276 28.97266459 8 29 C3.87151733 27.32629081 2.80292603 23.68305649 0.984375 19.87109375 C-0.34684137 17.34072613 -1.4013539 16.22713844 -4 15 C-8.7609889 13.90731402 -12.74311315 13.36536931 -17.32421875 15.56640625 C-21.08920334 18.7872672 -22.89016328 23.62594827 -25 28 C-28.96 28 -32.92 28 -37 28 C-36.53150127 20.50402026 -35.58286926 14.39895772 -29.9453125 9.05078125 C-25.87996636 5.78618511 -21.77810923 3.08276556 -17 1 C-17 0.67 -17 0.34 -17 0 C-14.9174133 -0.19561869 -12.83388144 -0.38119313 -10.75 -0.5625 C-9.58984375 -0.66691406 -8.4296875 -0.77132812 -7.234375 -0.87890625 C-4.48128523 -0.98198087 -2.580018 -0.86213473 0 0 Z M-24 6 C-27.05291301 9.58876243 -27.05291301 9.58876243 -28 14 C-28.598125 14.2475 -29.19625 14.495 -29.8125 14.75 C-32.43460704 16.24834688 -33.50684125 17.36919648 -35 20 C-35.72481084 23.65274469 -35.72481084 23.65274469 -36 27 C-32.7 27 -29.4 27 -26 27 C-25.505 22.545 -25.505 22.545 -25 18 C-24.34 18 -23.68 18 -23 18 C-23 17.01 -23 16.02 -23 15 C-22.01 15 -21.02 15 -20 15 C-20 14.01 -20 13.02 -20 12 C-16.39959663 11.17518032 -13.06648597 10.86483062 -9.375 10.875 C-8.43398438 10.87242187 -7.49296875 10.86984375 -6.5234375 10.8671875 C-4 11 -4 11 -1 12 C-0.28752268 13.6476038 0.37400383 15.31763529 1 17 C1.495 17.66 1.99 18.32 2.5 19 C4.16808629 21.22411505 5.05946085 23.39543005 6 26 C8.31 25.67 10.62 25.34 13 25 C14.4152431 21.34395534 13.85830699 19.00231846 12.4375 15.5 C9.5968679 9.64362834 5.4199909 5.91405895 -0.75 3.50390625 C-8.37635851 1.79591971 -17.32431411 1.64629181 -24 6 Z " fill="#A36223" transform="translate(334,209)"/>
<path d="M0 0 C0.66 0.33 1.32 0.66 2 1 C4.92942275 11.25933035 2.96946269 23.60501847 2.62768555 34.24584961 C2.56113314 36.35583514 2.50221186 38.46595905 2.44335938 40.57617188 C2.4015013 41.92188938 2.3592014 43.26759322 2.31640625 44.61328125 C2.27974854 45.81766846 2.24309082 47.02205566 2.20532227 48.26293945 C2 51 2 51 1 52 C-0.68608966 52.07205511 -2.37500659 52.08386068 -4.0625 52.0625 C-4.98160156 52.05347656 -5.90070313 52.04445312 -6.84765625 52.03515625 C-7.55792969 52.02355469 -8.26820313 52.01195312 -9 52 C-10.75147355 48.97091074 -11.24002524 46.84051358 -11.18286133 43.35498047 C-11.17237259 42.44078339 -11.16188385 41.5265863 -11.15107727 40.58468628 C-11.12829208 39.60541168 -11.1055069 38.62613708 -11.08203125 37.6171875 C-11.06412033 36.60657257 -11.04620941 35.59595764 -11.02775574 34.55471802 C-10.98660284 32.42129847 -10.94002945 30.28797755 -10.88842773 28.15478516 C-10.8126297 24.88060236 -10.76374698 21.60673972 -10.71679688 18.33203125 C-10.67350698 16.26038192 -10.62863921 14.18876484 -10.58203125 12.1171875 C-10.56936722 11.13386444 -10.55670319 10.15054138 -10.5436554 9.13742065 C-10.51740585 8.22952789 -10.49115631 7.32163513 -10.46411133 6.38623047 C-10.44697586 5.58555145 -10.42984039 4.78487244 -10.41218567 3.95993042 C-9.33083772 -1.18184644 -4.12451916 -0.22497377 0 0 Z M-8 3 C-8 18.51 -8 34.02 -8 50 C-5.36 50 -2.72 50 0 50 C0 34.49 0 18.98 0 3 C-2.64 3 -5.28 3 -8 3 Z " fill="#825426" transform="translate(190,155)"/>
<path d="M0 0 C1.51400391 0.01740234 1.51400391 0.01740234 3.05859375 0.03515625 C4.07050781 0.04417969 5.08242187 0.05320313 6.125 0.0625 C7.29869141 0.07990234 7.29869141 0.07990234 8.49609375 0.09765625 C8.82609375 1.08765625 9.15609375 2.07765625 9.49609375 3.09765625 C11.14609375 2.76765625 12.79609375 2.43765625 14.49609375 2.09765625 C12.68359375 4.59765625 12.68359375 4.59765625 10.49609375 7.09765625 C9.50609375 7.09765625 8.51609375 7.09765625 7.49609375 7.09765625 C7.49609375 5.44765625 7.49609375 3.79765625 7.49609375 2.09765625 C4.52609375 2.09765625 1.55609375 2.09765625 -1.50390625 2.09765625 C-1.50390625 17.60765625 -1.50390625 33.11765625 -1.50390625 49.09765625 C1.46609375 49.09765625 4.43609375 49.09765625 7.49609375 49.09765625 C7.47252808 47.87248291 7.47252808 47.87248291 7.44848633 46.62255859 C7.38595435 42.90599548 7.34704431 39.18954329 7.30859375 35.47265625 C7.27088867 33.54486328 7.27088867 33.54486328 7.23242188 31.578125 C7.22275391 30.33417969 7.21308594 29.09023437 7.203125 27.80859375 C7.18741455 26.66696777 7.1717041 25.5253418 7.15551758 24.34912109 C7.5427496 20.65223503 8.57338571 18.26058548 10.49609375 15.09765625 C11.15609375 14.76765625 11.81609375 14.43765625 12.49609375 14.09765625 C12.17390869 14.94094482 11.85172363 15.7842334 11.51977539 16.65307617 C10.42977254 20.32082009 10.19568808 23.39166993 10.1171875 27.2109375 C10.10019302 27.86595749 10.08319855 28.52097748 10.06568909 29.19584656 C10.01298607 31.26718786 9.97241749 33.33851209 9.93359375 35.41015625 C9.88964927 37.49956008 9.84304403 39.58881139 9.79078674 41.67802429 C9.74435998 43.56035637 9.70680103 45.44290091 9.66967773 47.32543945 C9.49609375 50.09765625 9.49609375 50.09765625 8.49609375 51.09765625 C6.85379011 51.22220485 5.20557099 51.27334149 3.55859375 51.28515625 C2.66269531 51.29933594 1.76679688 51.31351563 0.84375 51.328125 C-1.50390625 51.09765625 -1.50390625 51.09765625 -3.50390625 49.09765625 C-3.75114441 47.04161072 -3.75114441 47.04161072 -3.74682617 44.48022461 C-3.7499028 43.52260727 -3.75297943 42.56498993 -3.75614929 41.57835388 C-3.74896378 40.5418721 -3.74177826 39.50539032 -3.734375 38.4375 C-3.73391678 37.37729141 -3.73345856 36.31708282 -3.73298645 35.2247467 C-3.72996196 32.98111859 -3.72206981 30.73749263 -3.7097168 28.49389648 C-3.69146358 25.04598616 -3.68920704 21.59834421 -3.68945312 18.15039062 C-3.68453801 15.97525808 -3.67870972 13.80012736 -3.671875 11.625 C-3.67076218 10.58649399 -3.66964935 9.54798798 -3.66850281 8.47801208 C-3.66212296 7.52354691 -3.6557431 6.56908173 -3.64916992 5.58569336 C-3.64535812 4.74123154 -3.64154633 3.89676971 -3.63761902 3.02671814 C-3.43198272 0.06002205 -2.98742762 0.11651434 0 0 Z " fill="#7C7D8A" transform="translate(241.50390625,155.90234375)"/>
<path d="M0 0 C2 2 2 2 2.24723816 4.0940094 C2.24581314 4.95703171 2.24438812 5.82005402 2.24291992 6.70922852 C2.24753487 8.17568565 2.24753487 8.17568565 2.25224304 9.67176819 C2.24505753 10.73012375 2.23787201 11.78847931 2.23046875 12.87890625 C2.23001053 13.96131088 2.22955231 15.04371552 2.2290802 16.15892029 C2.22605559 18.44962661 2.21816309 20.74033084 2.20581055 23.03100586 C2.18755785 26.55134303 2.18530078 30.07141734 2.18554688 33.59179688 C2.18063175 35.81250229 2.17480346 38.03320591 2.16796875 40.25390625 C2.16685593 41.31428604 2.1657431 42.37466583 2.16459656 43.46717834 C2.15821671 44.44166428 2.15183685 45.41615021 2.14526367 46.42016602 C2.13954597 47.71350609 2.13954597 47.71350609 2.13371277 49.03297424 C2 51 2 51 1 52 C-0.85287502 52.07226502 -2.70833878 52.0838122 -4.5625 52.0625 C-5.57441406 52.05347656 -6.58632813 52.04445312 -7.62890625 52.03515625 C-8.80259766 52.01775391 -8.80259766 52.01775391 -10 52 C-10.33 51.01 -10.66 50.02 -11 49 C-11.54527344 49.27714844 -12.09054687 49.55429688 -12.65234375 49.83984375 C-21.14766984 53.92050466 -27.98929873 55.00356709 -37 52 C-40 50.375 -40 50.375 -42 49 C-40.3125 48.3125 -40.3125 48.3125 -38 48 C-37.319375 48.474375 -36.63875 48.94875 -35.9375 49.4375 C-30.7330771 52.20581005 -24.93748661 51.88515106 -19.35546875 50.203125 C-15.39813677 48.54091771 -13.43419214 47.65128821 -11 44 C-10.34 44 -9.68 44 -9 44 C-9 45.98 -9 47.96 -9 50 C-6.03 50 -3.06 50 0 50 C0 34.16 0 18.32 0 2 C-2.97 2 -5.94 2 -9 2 C-9 3.98 -9 5.96 -9 8 C-12.875 6.25 -12.875 6.25 -14 4 C-13.01 3.67 -12.02 3.34 -11 3 C-10.67 2.34 -10.34 1.68 -10 1 C-6.47940432 -0.17353189 -3.693507 -0.20146402 0 0 Z " fill="#5D3515" transform="translate(284,65)"/>
<path d="M0 0 C1.76537109 -0.00386719 1.76537109 -0.00386719 3.56640625 -0.0078125 C6.4375 0.125 6.4375 0.125 7.4375 1.125 C7.53697978 3.2257901 7.56549636 5.32996179 7.56689453 7.43310547 C7.56864685 8.09167542 7.57039917 8.75024536 7.57220459 9.42877197 C7.57662342 11.61660358 7.57368436 13.804355 7.5703125 15.9921875 C7.57098569 17.50814835 7.57195585 19.0241091 7.57321167 20.54006958 C7.57468882 23.72284977 7.57253416 26.90560196 7.56787109 30.08837891 C7.56218348 34.16964901 7.56544655 38.25085323 7.57144356 42.3321209 C7.575057 45.46506242 7.5739068 48.59798833 7.57131577 51.73093033 C7.57064816 53.23563774 7.57146912 54.74034657 7.57379532 56.24505234 C7.57633358 58.34944155 7.57246422 60.45372419 7.56689453 62.55810547 C7.56609894 63.75644012 7.56530334 64.95477478 7.56448364 66.18942261 C7.4375 69.125 7.4375 69.125 6.4375 72.125 C2.8075 72.125 -0.8225 72.125 -4.5625 72.125 C-4.5625 71.795 -4.5625 71.465 -4.5625 71.125 C-1.2625 71.125 2.0375 71.125 5.4375 71.125 C5.4375 48.355 5.4375 25.585 5.4375 2.125 C-0.5025 2.62 -0.5025 2.62 -6.5625 3.125 C-6.5625 3.785 -6.5625 4.445 -6.5625 5.125 C-7.8825 5.455 -9.2025 5.785 -10.5625 6.125 C-8.3087577 -0.15328211 -6.49948226 -0.0142689 0 0 Z " fill="#656776" transform="translate(124.5625,134.875)"/>
<path d="M0 0 C3.5625 0.625 3.5625 0.625 6.5625 2.75 C8.5625 5.625 8.5625 5.625 8.625 8.6875 C7.40951429 12.04796048 6.48837775 13.5689778 3.5625 15.625 C-0.08652278 16.23317046 -1.70578585 16.13917751 -4.75 14 C-6.84926127 11.04548414 -7.4375 9.25575827 -7.4375 5.625 C-5.41686743 1.7521209 -4.32759094 0.78683472 0 0 Z " fill="#724824" transform="translate(185.4375,134.375)"/>
<path d="M0 0 C0.39703125 0.46921875 0.7940625 0.9384375 1.203125 1.421875 C0.11 1.091875 -0.983125 0.761875 -2.109375 0.421875 C-8.300446 -1.10936854 -15.02120391 -1.93763737 -20.859375 0.921875 C-21.49875 1.416875 -22.138125 1.911875 -22.796875 2.421875 C-23.456875 2.421875 -24.116875 2.421875 -24.796875 2.421875 C-24.796875 3.081875 -24.796875 3.741875 -24.796875 4.421875 C-25.56 5.14375 -26.323125 5.865625 -27.109375 6.609375 C-32.14988923 11.88433175 -33.31898035 17.15667404 -33.171875 24.296875 C-33.16389893 24.99651367 -33.15592285 25.69615234 -33.14770508 26.41699219 C-32.95216771 33.5355423 -31.72055439 40.02927376 -26.796875 45.421875 C-30.21115417 44.02413172 -31.6371072 42.59194971 -33.484375 39.421875 C-34.10892578 38.37 -34.10892578 38.37 -34.74609375 37.296875 C-38.41559748 30.74906166 -38.64896689 22.30868835 -36.734375 15.109375 C-34.14645028 7.99258201 -30.60828115 3.0742187 -23.859375 -0.515625 C-16.73824835 -3.65698638 -6.47786699 -5.6892571 0 0 Z " fill="#9B6529" transform="translate(268.796875,67.578125)"/>
<path d="M0 0 C1.32 0 2.64 0 4 0 C4 14.19 4 28.38 4 43 C2.35 43 0.7 43 -1 43 C-0.83701416 41.85402344 -0.67402832 40.70804688 -0.50610352 39.52734375 C0.03435488 35.18699397 0.12878923 30.93144405 0.09765625 26.5625 C0.0962413 25.79695801 0.09482635 25.03141602 0.09336853 24.24267578 C0.08782853 21.82840858 0.07528779 19.41423856 0.0625 17 C0.05747723 15.35026177 0.05291569 13.70052206 0.04882812 12.05078125 C0.03787886 8.03381745 0.02065666 4.01692513 0 0 Z " fill="#F89319" transform="translate(184,160)"/>
<path d="M0 0 C2.0703125 2.1015625 2.0703125 2.1015625 2.0703125 4.1015625 C3.0603125 4.4315625 4.0503125 4.7615625 5.0703125 5.1015625 C5.4003125 7.0815625 5.7303125 9.0615625 6.0703125 11.1015625 C4.4203125 11.1015625 2.7703125 11.1015625 1.0703125 11.1015625 C0.7403125 9.4515625 0.4103125 7.8015625 0.0703125 6.1015625 C-1.2496875 6.1015625 -2.5696875 6.1015625 -3.9296875 6.1015625 C-4.2596875 5.4415625 -4.5896875 4.7815625 -4.9296875 4.1015625 C-11.54081544 1.89785319 -19.15128455 2.89651309 -25.9296875 4.1015625 C-25.3671875 2.2265625 -25.3671875 2.2265625 -23.9296875 0.1015625 C-17.10353879 -3.00123237 -6.37314608 -4.12979866 0 0 Z " fill="#F7941B" transform="translate(337.9296875,216.8984375)"/>
<path d="M0 0 C5.75290012 3.3801819 8.71882874 6.4630961 10.9140625 12.77734375 C11.51403728 15.34503244 11.22688479 17.27178971 10.375 19.75 C9.59125 19.729375 8.8075 19.70875 8 19.6875 C5.39385039 19.56315937 5.39385039 19.56315937 3.375 20.75 C1.375 16.75 -0.625 12.75 -2.625 8.75 C-1.305 8.75 0.015 8.75 1.375 8.75 C1.705 10.4 2.035 12.05 2.375 13.75 C4.025 13.75 5.675 13.75 7.375 13.75 C6.10067579 7.80315367 3.15639892 5.12633871 -1.625 1.75 C-6.22138994 -0.98298861 -11.42990232 -0.89284662 -16.625 -0.25 C-20.08753268 0.83351363 -23.35178428 2.18999931 -26.625 3.75 C-26.625 2.76 -26.625 1.77 -26.625 0.75 C-18.50353924 -3.89083472 -8.41834625 -4.0408062 0 0 Z " fill="#F29326" transform="translate(336.625,214.25)"/>
<path d="M0 0 C1.19225915 2.3845183 1.12682707 3.84909216 1.12939453 6.50976562 C1.13254669 7.44413452 1.13569885 8.37850342 1.13894653 9.34118652 C1.1369223 10.35265747 1.13489807 11.36412842 1.1328125 12.40625 C1.13424759 13.9597113 1.13424759 13.9597113 1.13571167 15.54455566 C1.13639298 17.7368984 1.13454209 19.92924315 1.13037109 22.12158203 C1.12502218 25.4860485 1.13031775 28.85038146 1.13671875 32.21484375 C1.13605796 34.34114613 1.13477678 36.46744843 1.1328125 38.59375 C1.13483673 39.60522095 1.13686096 40.61669189 1.13894653 41.65881348 C1.13579437 42.59318237 1.13264221 43.52755127 1.12939453 44.49023438 C1.12859894 45.31471069 1.12780334 46.13918701 1.12698364 46.98864746 C1 49 1 49 0 51 C-1.77074917 51.02705729 -3.54161711 51.04642195 -5.3125 51.0625 C-6.79169922 51.07990234 -6.79169922 51.07990234 -8.30078125 51.09765625 C-11.48861985 50.982322 -13.9835307 50.00548977 -17 49 C-13.375 46 -13.375 46 -10 46 C-10 46.99 -10 47.98 -10 49 C-7.03 49 -4.06 49 -1 49 C-1 33.16 -1 17.32 -1 1 C-4.3 1 -7.6 1 -11 1 C-11 0.67 -11 0.34 -11 0 C-3.19354839 -1.35111663 -3.19354839 -1.35111663 0 0 Z " fill="#656775" transform="translate(181,66)"/>
<path d="M0 0 C3.21610938 3.21610938 3.06155632 6.81781683 3.125 11.1875 C3 15 3 15 2 17 C-2.17040409 18.2404053 -6.39521323 18.12962984 -10.70703125 18.09765625 C-11.79512337 18.09553383 -11.79512337 18.09553383 -12.90519714 18.09336853 C-15.2076745 18.08779931 -17.51005235 18.07525261 -19.8125 18.0625 C-21.37955588 18.05748102 -22.9466133 18.05291881 -24.51367188 18.04882812 C-28.34248589 18.03783998 -32.17122611 18.02059673 -36 18 C-33.924327 22.69772171 -33.924327 22.69772171 -30 25.875 C-25.16820226 27.65185465 -20.06681203 27.24738504 -15 27 C-15 27.66 -15 28.32 -15 29 C-17.24993359 29.02707139 -19.49996095 29.04642829 -21.75 29.0625 C-23.00296875 29.07410156 -24.2559375 29.08570313 -25.546875 29.09765625 C-30.51437652 28.95717261 -32.14787373 28.83275977 -35.75 25.3125 C-38.69181641 22.02510877 -38 21.12958237 -38 16 C-25.13 16 -12.26 16 1 16 C0.67 10.72 0.34 5.44 0 0 Z " fill="#666775" transform="translate(433,169)"/>
<path d="M0 0 C0.66 0 1.32 0 2 0 C3.2890625 1.53125 3.2890625 1.53125 4.625 3.5 C5.07101563 4.1496875 5.51703125 4.799375 5.9765625 5.46875 C6.31429687 5.9740625 6.65203125 6.479375 7 7 C6.67 7.66 6.34 8.32 6 9 C4.68 8.01 3.36 7.02 2 6 C2.00222061 6.58659897 2.00444122 7.17319794 2.00672913 7.77757263 C2.0287821 13.86025384 2.04390664 19.94292377 2.05493164 26.02563477 C2.05997325 28.29842591 2.06680637 30.5712138 2.07543945 32.84399414 C2.08751261 36.10303551 2.09322987 39.36203417 2.09765625 42.62109375 C2.10281754 43.64400009 2.10797882 44.66690643 2.11329651 45.72080994 C2.11337204 46.66170975 2.11344757 47.60260956 2.11352539 48.57202148 C2.115746 49.40475082 2.11796661 50.23748016 2.12025452 51.09544373 C2 53 2 53 1 54 C-0.85287502 54.07226502 -2.70833878 54.0838122 -4.5625 54.0625 C-5.57441406 54.05347656 -6.58632813 54.04445312 -7.62890625 54.03515625 C-8.41136719 54.02355469 -9.19382813 54.01195312 -10 54 C-10 53.67 -10 53.34 -10 53 C-6.7 53 -3.4 53 0 53 C0 35.51 0 18.02 0 0 Z " fill="#9799A4" transform="translate(69,153)"/>
<path d="M0 0 C0 0.99 0 1.98 0 3 C-0.804375 3.12375 -1.60875 3.2475 -2.4375 3.375 C-3.283125 3.58125 -4.12875 3.7875 -5 4 C-5.33 4.66 -5.66 5.32 -6 6 C-6.99 6 -7.98 6 -9 6 C-9 6.66 -9 7.32 -9 8 C-9.78375 8.144375 -10.5675 8.28875 -11.375 8.4375 C-14.15156763 9.71536857 -14.15156763 9.71536857 -14.77734375 12.13671875 C-15.26835609 14.41974691 -15.68112401 16.68695927 -16 19 C-17.65 18.67 -19.3 18.34 -21 18 C-20.5395895 11.86119339 -18.05616414 6.66206025 -13.39453125 2.6015625 C-8.85186919 -0.32985787 -5.18356202 -0.36375874 0 0 Z " fill="#F89419" transform="translate(258,69)"/>
<path d="M0 0 C1.0209375 0.86625 1.0209375 0.86625 2.0625 1.75 C2.825625 2.348125 3.58875 2.94625 4.375 3.5625 C6.0625 5.75 6.0625 5.75 6.0625 11.75 C-3.8375 11.75 -13.7375 11.75 -23.9375 11.75 C-22.76896067 3.57022472 -22.76896067 3.57022472 -17.9375 -0.25 C-12.36047342 -2.13284231 -5.39817055 -2.29709385 0 0 Z M-19.9375 3.75 C-21.34940564 6.35437233 -21.34940564 6.35437233 -21.9375 8.75 C-20.89957228 10.01181095 -20.89957228 10.01181095 -18.62084961 9.86352539 C-17.12050171 9.85567017 -17.12050171 9.85567017 -15.58984375 9.84765625 C-14.51025391 9.84443359 -13.43066406 9.84121094 -12.31835938 9.83789062 C-11.18205078 9.82951172 -10.04574219 9.82113281 -8.875 9.8125 C-7.16473633 9.80573242 -7.16473633 9.80573242 -5.41992188 9.79882812 C-2.59239649 9.78699747 0.2350264 9.7705141 3.0625 9.75 C3.3925 8.76 3.7225 7.77 4.0625 6.75 C1.80492214 3.32182621 -0.14560141 1.27910196 -3.9375 -0.25 C-10.25668429 -1.14678193 -15.0894032 -0.73448954 -19.9375 3.75 Z " fill="#9899A4" transform="translate(418.9375,166.25)"/>
<path d="M0 0 C2.54698911 2.54698911 2.96985366 4.25139818 3.11352539 7.8190918 C3.10567017 9.49225464 3.10567017 9.49225464 3.09765625 11.19921875 C3.09443359 12.40771484 3.09121094 13.61621094 3.08789062 14.86132812 C3.07951172 16.12396484 3.07113281 17.38660156 3.0625 18.6875 C3.05798828 19.96173828 3.05347656 21.23597656 3.04882812 22.54882812 C3.03702873 25.69926564 3.02056597 28.84960949 3 32 C5.97 32 8.94 32 12 32 C12 21.44 12 10.88 12 0 C12.33 0 12.66 0 13 0 C13.02465288 4.68139254 13.04283739 9.36274759 13.05493164 14.04418945 C13.05997157 15.63794614 13.0668035 17.23169819 13.07543945 18.82543945 C13.08751999 21.11150253 13.09323155 23.39750467 13.09765625 25.68359375 C13.10281754 26.40026718 13.10797882 27.11694061 13.11329651 27.85533142 C13.11349263 29.57063672 13.06192007 31.28581266 13 33 C12 34 12 34 9.75 34.1328125 C8.8425 34.13023437 7.935 34.12765625 7 34.125 C5.63875 34.12886719 5.63875 34.12886719 4.25 34.1328125 C2 34 2 34 1 33 C0.84019563 30.55391002 0.74070553 28.13268942 0.68359375 25.68359375 C0.66281265 24.95253922 0.64203156 24.22148468 0.62062073 23.46827698 C0.55504976 21.12478344 0.49620568 18.78117461 0.4375 16.4375 C0.39432192 14.85220145 0.35070787 13.26691471 0.30664062 11.68164062 C0.1993608 7.78787963 0.0981151 3.89400228 0 0 Z " fill="#868793" transform="translate(275,173)"/>
<path d="M0 0 C0.66 0 1.32 0 2 0 C2 17.49 2 34.98 2 53 C1.67 53 1.34 53 1 53 C-0.01899627 48.81369051 -0.10090974 44.91019946 -0.0625 40.609375 C-0.05871338 39.90532532 -0.05492676 39.20127563 -0.05102539 38.47589111 C-0.03480872 35.48499186 -0.0067937 32.49423339 0.02050781 29.50341797 C0.08634434 21.60476732 0.13507621 13.83912009 -1 6 C-3.31 8.97 -5.62 11.94 -8 15 C-8.33 14.34 -8.66 13.68 -9 13 C-7.54970675 10.82754427 -6.09044056 8.66219911 -4.625 6.5 C-4.2125 5.87996094 -3.8 5.25992188 -3.375 4.62109375 C-2.30100332 3.04474379 -1.15511468 1.51791243 0 0 Z " fill="#59586D" transform="translate(118,153)"/>
<path d="M0 0 C1.51400391 0.01740234 1.51400391 0.01740234 3.05859375 0.03515625 C4.07050781 0.04417969 5.08242187 0.05320313 6.125 0.0625 C7.29869141 0.07990234 7.29869141 0.07990234 8.49609375 0.09765625 C8.82609375 1.08765625 9.15609375 2.07765625 9.49609375 3.09765625 C11.14609375 2.76765625 12.79609375 2.43765625 14.49609375 2.09765625 C12.68359375 4.59765625 12.68359375 4.59765625 10.49609375 7.09765625 C9.50609375 7.09765625 8.51609375 7.09765625 7.49609375 7.09765625 C7.49609375 5.44765625 7.49609375 3.79765625 7.49609375 2.09765625 C4.52609375 2.09765625 1.55609375 2.09765625 -1.50390625 2.09765625 C-1.49230469 3.22816406 -1.48070312 4.35867187 -1.46875 5.5234375 C-1.37069077 20.0668472 -1.88677634 34.56884246 -2.50390625 49.09765625 C-2.83390625 49.09765625 -3.16390625 49.09765625 -3.50390625 49.09765625 C-3.52917515 42.28003731 -3.54673869 35.46243036 -3.55883789 28.64477539 C-3.56387958 26.32348174 -3.57071276 24.00219128 -3.5793457 21.6809082 C-3.5914185 18.3523683 -3.59713604 15.02387023 -3.6015625 11.6953125 C-3.60672379 10.65053238 -3.61188507 9.60575226 -3.61720276 8.52931213 C-3.61727829 7.56839157 -3.61735382 6.60747101 -3.61743164 5.61743164 C-3.61965225 4.76693741 -3.62187286 3.91644318 -3.62416077 3.04017639 C-3.43977548 0.06172576 -2.99555592 0.11683135 0 0 Z " fill="#585A67" transform="translate(241.50390625,155.90234375)"/>
<path d="M0 0 C0.66 0.33 1.32 0.66 2 1 C-2.24543368 8.44305819 -2.24543368 8.44305819 -5.625 10.9375 C-9.20918406 14.05008089 -9.73493829 17.47241073 -11 22 C-7.7 22 -4.4 22 -1 22 C-0.505 17.545 -0.505 17.545 0 13 C1.98 12.34 3.96 11.68 6 11 C4.02 14.96 2.04 18.92 0 23 C-3.96 23 -7.92 23 -12 23 C-11.54219833 15.67517323 -10.52134979 9.54401943 -5.1796875 4.16796875 C-3.49412209 2.71101241 -1.78914381 1.3267808 0 0 Z " fill="#72441E" transform="translate(309,214)"/>
<path d="M0 0 C1.32 0.33 2.64 0.66 4 1 C4 1.99 4 2.98 4 4 C12.82365744 6.42614476 20.85495156 7.40411834 30 7 C30 6.34 30 5.68 30 5 C31.65 5 33.3 5 35 5 C31.27701969 9.29574651 28.00519758 10.74809373 22.34375 11.22265625 C16.99055206 11.3881449 13.3886932 11.35605951 9 8 C7.7315625 7.5359375 7.7315625 7.5359375 6.4375 7.0625 C3.59089057 5.82167025 1.99337147 4.36251434 0 2 C0 1.34 0 0.68 0 0 Z " fill="#CF893E" transform="translate(237,106)"/>
<path d="M0 0 C0.33 0.66 0.66 1.32 1 2 C2.65204456 2.70211894 4.31923769 3.36971413 6 4 C7 5 7 5 7.375 8.375 C7.25125 9.57125 7.1275 10.7675 7 12 C4.5625 13.8125 4.5625 13.8125 2 15 C0.09349429 18.81301141 0.66805681 23.75817961 0.5703125 27.99609375 C0.34800078 33.58167581 -0.62959994 37.91094205 -3 43 C-3.99 43.66 -4.98 44.32 -6 45 C-4.125 40.25 -4.125 40.25 -3 38 C-2.90678766 36.47608665 -2.86825481 34.9486106 -2.859375 33.421875 C-2.84003906 32.50792969 -2.82070312 31.59398437 -2.80078125 30.65234375 C-2.76720409 28.73328007 -2.74871941 26.81388686 -2.74609375 24.89453125 C-2.62441997 20.32856259 -2.50217766 16.98211738 0.421875 13.328125 C3 11 3 11 5 11 C5 9.02 5 7.04 5 5 C3.35 4.67 1.7 4.34 0 4 C0 2.68 0 1.36 0 0 Z " fill="#70717B" transform="translate(222,160)"/>
<path d="M0 0 C0.721875 0.00257813 1.44375 0.00515625 2.1875 0.0078125 C2.909375 0.00523437 3.63125 0.00265625 4.375 0 C6.1875 0.1328125 6.1875 0.1328125 7.1875 1.1328125 C7.22842937 3.46578683 7.22991723 5.79986475 7.1875 8.1328125 C6.5275 8.1328125 5.8675 8.1328125 5.1875 8.1328125 C5.1875 8.7928125 5.1875 9.4528125 5.1875 10.1328125 C2.3125 10.2578125 2.3125 10.2578125 -0.8125 10.1328125 C-2.8125 8.1328125 -2.8125 8.1328125 -3 4.5703125 C-2.76174856 0.20236951 -2.76174856 0.20236951 0 0 Z " fill="#DD9237" transform="translate(182.8125,137.8671875)"/>
<path d="M0 0 C2.17578125 1.10546875 2.17578125 1.10546875 5.30078125 3.10546875 C5.63078125 2.44546875 5.96078125 1.78546875 6.30078125 1.10546875 C9.93078125 1.10546875 13.56078125 1.10546875 17.30078125 1.10546875 C17.30078125 10.67546875 17.30078125 20.24546875 17.30078125 30.10546875 C16.97078125 30.10546875 16.64078125 30.10546875 16.30078125 30.10546875 C16.30078125 20.86546875 16.30078125 11.62546875 16.30078125 2.10546875 C13.66078125 2.10546875 11.02078125 2.10546875 8.30078125 2.10546875 C8.30078125 3.75546875 8.30078125 5.40546875 8.30078125 7.10546875 C6.04456962 6.01914463 3.92724581 4.8720091 1.80078125 3.54296875 C-5.07158221 -0.40864024 -14.19008871 0.48187307 -21.69921875 2.10546875 C-16.713978 -2.879772 -6.29968569 -2.08773954 0 0 Z " fill="#A2A3AD" transform="translate(162.69921875,65.89453125)"/>
<path d="M0 0 C-0.99 0.33 -1.98 0.66 -3 1 C-2.27554687 1.35191406 -1.55109375 1.70382813 -0.8046875 2.06640625 C5.5438175 5.30837614 9.75424766 8.26249684 14 14 C13.67 14.66 13.34 15.32 13 16 C11 15 11 15 9.875 12.75 C6.78519045 8.21827932 2.1501793 5.71672643 -3 4 C-5.26919248 3.90415833 -7.54128959 3.87016249 -9.8125 3.875 C-11.01519531 3.87242187 -12.21789062 3.86984375 -13.45703125 3.8671875 C-16.73160318 3.98993882 -19.78672598 4.37998082 -23 5 C-21.04783565 3.04783565 -19.46800047 2.15173355 -17 1 C-17 0.67 -17 0.34 -17 0 C-14.9174133 -0.19561869 -12.83388144 -0.38119313 -10.75 -0.5625 C-9.58984375 -0.66691406 -8.4296875 -0.77132812 -7.234375 -0.87890625 C-4.48128523 -0.98198087 -2.580018 -0.86213473 0 0 Z " fill="#57371E" transform="translate(334,209)"/>
<path d="M0 0 C1 1 1 1 1.12025452 2.98048401 C1.1169236 4.2828727 1.1169236 4.2828727 1.11352539 5.61157227 C1.11344986 6.59251358 1.11337433 7.5734549 1.11329651 8.5841217 C1.10813522 9.6507756 1.10297394 10.7174295 1.09765625 11.81640625 C1.0962413 12.9025975 1.09482635 13.98878876 1.09336853 15.1078949 C1.08775048 18.59279075 1.07519492 22.07762342 1.0625 25.5625 C1.05748733 27.91861887 1.05292402 30.27473874 1.04882812 32.63085938 C1.03777519 38.42059464 1.02101951 44.21029281 1 50 C0.67 50 0.34 50 0 50 C0 34.16 0 18.32 0 2 C-2.97 2 -5.94 2 -9 2 C-9 3.98 -9 5.96 -9 8 C-12.875 6.25 -12.875 6.25 -14 4 C-13.01 3.67 -12.02 3.34 -11 3 C-10.67 2.34 -10.34 1.68 -10 1 C-6.50615721 -0.16461426 -3.66344611 -0.13568319 0 0 Z " fill="#B47C45" transform="translate(284,65)"/>
<path d="M0 0 C0.66 0.33 1.32 0.66 2 1 C1.360625 1.825 0.72125 2.65 0.0625 3.5 C-2.35357347 7.18905842 -3.35539541 10.57821995 -3 15 C-1.49217284 19.70880102 0.60317909 23.48753091 5 26 C1.65626525 25.44271087 -1.03312999 24.64826111 -4 23 C-4 21.68 -4 20.36 -4 19 C-4.66 19 -5.32 19 -6 19 C-6.02692484 16.70839681 -6.04636124 14.41670454 -6.0625 12.125 C-6.07410156 10.84882812 -6.08570313 9.57265625 -6.09765625 8.2578125 C-6 5 -6 5 -5 3 C-2.5625 1.3125 -2.5625 1.3125 0 0 Z " fill="#A5662B" transform="translate(248,79)"/>
<path d="M0 0 C1.65 0.99 3.3 1.98 5 3 C4.50637071 5.5668723 3.81817117 7.31372539 2.4921875 9.6015625 C0.65577699 13.7839634 0.51873166 17.23970888 0.4375 21.75 C0.2561264 29.7438736 0.2561264 29.7438736 -2 32 C-2.08845016 28.85434954 -2.14086835 25.70902625 -2.1875 22.5625 C-2.21263672 21.68400391 -2.23777344 20.80550781 -2.26367188 19.90039062 C-2.32485413 14.3735935 -1.64953188 10.02021584 0.44799805 4.89038086 C1.25152363 2.80545953 1.25152363 2.80545953 0 0 Z " fill="#59606D" transform="translate(211,164)"/>
<path d="M0 0 C4 2 4 2 4.86328125 4.34765625 C5.01152344 5.24355469 5.15976562 6.13945312 5.3125 7.0625 C5.47363281 7.96097656 5.63476562 8.85945312 5.80078125 9.78515625 C5.89939453 10.88150391 5.89939453 10.88150391 6 12 C4.43632022 13.56367978 2.72161607 13.383179 0.5625 13.625 C-0.64212891 13.76808594 -0.64212891 13.76808594 -1.87109375 13.9140625 C-4 14 -4 14 -6 13 C-5.67 11.68 -5.34 10.36 -5 9 C-3.02 9 -1.04 9 1 9 C0.67 6.03 0.34 3.06 0 0 Z " fill="#A26931" transform="translate(346,224)"/>
<path d="M0 0 C3.23994766 1.87043031 5.98890383 3.82160925 8.375 6.75 C8.045 7.74 7.715 8.73 7.375 9.75 C7.375 9.09 7.375 8.43 7.375 7.75 C6.818125 7.688125 6.26125 7.62625 5.6875 7.5625 C2.4498662 6.42495299 0.78328848 4.15828848 -1.625 1.75 C-6.20194384 -0.9961663 -11.45141505 -0.89018461 -16.625 -0.25 C-20.08753268 0.83351363 -23.35178428 2.18999931 -26.625 3.75 C-26.625 2.76 -26.625 1.77 -26.625 0.75 C-18.50353924 -3.89083472 -8.41834625 -4.0408062 0 0 Z " fill="#CD893F" transform="translate(336.625,214.25)"/>
<path d="M0 0 C5 5 5 5 5 8 C3.68 7.01 2.36 6.02 1 5 C1 20.51 1 36.02 1 52 C0.67 52 0.34 52 0 52 C0 34.84 0 17.68 0 0 Z " fill="#25263B" transform="translate(70,154)"/>
<path d="M0 0 C0.40089844 0.46792969 0.80179687 0.93585938 1.21484375 1.41796875 C0.12171875 1.08796875 -0.97140625 0.75796875 -2.09765625 0.41796875 C-8.28872725 -1.11327479 -15.00948516 -1.94154362 -20.84765625 0.91796875 C-21.48703125 1.41296875 -22.12640625 1.90796875 -22.78515625 2.41796875 C-23.44515625 2.41796875 -24.10515625 2.41796875 -24.78515625 2.41796875 C-24.78515625 3.07796875 -24.78515625 3.73796875 -24.78515625 4.41796875 C-27.34662195 6.71445524 -28.26483197 7.41796875 -31.78515625 7.41796875 C-29.70455168 2.52854802 -26.47500088 0.65309537 -21.78515625 -1.58203125 C-15.04989049 -3.91853224 -5.75931289 -5.10398626 0 0 Z " fill="#6A4021" transform="translate(268.78515625,67.58203125)"/>
<path d="M0 0 C0.185625 0.8971875 0.185625 0.8971875 0.375 1.8125 C0.95475985 4.26231348 0.95475985 4.26231348 3 7 C3.22705078 9.36010742 3.22705078 9.36010742 3.1953125 12.10546875 C3.18564453 13.57983398 3.18564453 13.57983398 3.17578125 15.08398438 C3.15902344 16.10814453 3.14226562 17.13230469 3.125 18.1875 C3.11597656 19.22326172 3.10695312 20.25902344 3.09765625 21.32617188 C3.0740786 23.88434685 3.0411703 26.44205748 3 29 C2.34 29 1.68 29 1 29 C0.98018066 28.38479492 0.96036133 27.76958984 0.93994141 27.13574219 C0.84450273 24.34007458 0.73490045 21.5451349 0.625 18.75 C0.57859375 17.29787109 0.57859375 17.29787109 0.53125 15.81640625 C0.49257812 14.88183594 0.45390625 13.94726562 0.4140625 12.984375 C0.3826416 12.12553711 0.3512207 11.26669922 0.31884766 10.38183594 C-0.01912455 7.85713701 -0.83661798 6.24045801 -2 4 C-2 3.01 -2 2.02 -2 1 C-1.34 0.67 -0.68 0.34 0 0 Z " fill="#848591" transform="translate(159,165)"/>
<path d="M0 0 C0.556875 0.474375 1.11375 0.94875 1.6875 1.4375 C4.18346074 3.12395996 6.0446237 3.58953107 9 4 C9.09765625 10.15234375 9.09765625 10.15234375 9 12 C7.26150372 13.73849628 4.9213363 13.17216296 2.5625 13.1875 C1.57378906 13.20167969 0.58507812 13.21585938 -0.43359375 13.23046875 C-3 13 -3 13 -5 11 C-1.04 11 2.92 11 7 11 C7 9.35 7 7.7 7 6 C6.21625 6.061875 5.4325 6.12375 4.625 6.1875 C3.75875 6.125625 2.8925 6.06375 2 6 C0 3 0 3 0 0 Z " fill="#9D9EA7" transform="translate(162,194)"/>
<path d="M0 0 C0.556875 0.268125 1.11375 0.53625 1.6875 0.8125 C0.718125 1.39 -0.25125 1.9675 -1.25 2.5625 C-4.43830062 4.90492495 -4.71418778 5.20747955 -5.3125 8.8125 C-1.35422765 8.87035647 2.6039367 8.90604717 6.5625 8.9375 C7.69042969 8.95425781 8.81835938 8.97101563 9.98046875 8.98828125 C11.59501953 8.99794922 11.59501953 8.99794922 13.2421875 9.0078125 C14.73468018 9.02352295 14.73468018 9.02352295 16.25732422 9.03955078 C18.86921417 9.05629401 18.86921417 9.05629401 20.6875 6.8125 C20.6875 8.1325 20.6875 9.4525 20.6875 10.8125 C11.1175 10.8125 1.5475 10.8125 -8.3125 10.8125 C-7.49027382 5.87914294 -6.34679434 -0.51460495 0 0 Z " fill="#5E606C" transform="translate(403.3125,166.1875)"/>
<path d="M0 0 C0.66 0.33 1.32 0.66 2 1 C1.525625 1.37125 1.05125 1.7425 0.5625 2.125 C-1.52205802 4.62646962 -1.64621491 6.81593418 -2 10 C-1.34 10 -0.68 10 0 10 C0 10.66 0 11.32 0 12 C0.66 12 1.32 12 2 12 C2.66 10.35 3.32 8.7 4 7 C5 9 5 9 4 13 C0.7 13 -2.6 13 -6 13 C-5.63118644 6.85310727 -4.09949571 4.30972626 0 0 Z " fill="#DA903E" transform="translate(304,223)"/>
<path d="M0 0 C0.69931641 -0.01224609 1.39863281 -0.02449219 2.11914062 -0.03710938 C6.53311655 -0.04949659 10.08881584 0.55960817 14.1875 2.1875 C9.58637634 3.72120789 4.85894274 3.22719578 0.0546875 3.1484375 C-4.69085169 3.10113977 -9.13246598 3.38663856 -13.8125 4.1875 C-9.79281886 -0.21500791 -5.65929068 0.00513082 0 0 Z " fill="#7A7B85" transform="translate(408.8125,154.8125)"/>
<path d="M0 0 C0.33 0.99 0.66 1.98 1 3 C-5.02364296 8.95633968 -5.02364296 8.95633968 -9.65234375 9.05859375 C-14.06119515 8.23638505 -17.01009339 7.47371027 -20 4 C-19.484375 4.165 -18.96875 4.33 -18.4375 4.5 C-11.50619132 5.92180691 -6.88408072 4.57350268 -1 1 C-0.67 0.67 -0.34 0.34 0 0 Z " fill="#D28A35" transform="translate(270,101)"/>
<path d="M0 0 C-1.33370769 3.59075147 -2.80987082 6.84621398 -5 10 C-5.99 10.33 -6.98 10.66 -8 11 C-8.33 9.35 -8.66 7.7 -9 6 C-7.8803014 4.99406757 -6.7540588 3.9954151 -5.625 3 C-4.68527344 2.1646875 -4.68527344 2.1646875 -3.7265625 1.3125 C-2 0 -2 0 0 0 Z " fill="#F6921B" transform="translate(311,221)"/>
<path d="M0 0 C0.66 0.33 1.32 0.66 2 1 C-0.98771902 6.44663822 -3.53720375 9.95099744 -9 13 C-8.38297446 7.60102654 -5.92102734 4.54749424 -1.75 1.1875 C-1.1725 0.795625 -0.595 0.40375 0 0 Z " fill="#8F5A28" transform="translate(309,214)"/>
<path d="M0 0 C1.18851563 0.00902344 2.37703125 0.01804688 3.6015625 0.02734375 C4.51679688 0.03894531 5.43203125 0.05054688 6.375 0.0625 C6.045 1.0525 5.715 2.0425 5.375 3.0625 C1.415 3.0625 -2.545 3.0625 -6.625 3.0625 C-6.625 3.7225 -6.625 4.3825 -6.625 5.0625 C-7.945 5.3925 -9.265 5.7225 -10.625 6.0625 C-8.35567021 -0.25920441 -6.53516812 -0.06407028 0 0 Z " fill="#82828F" transform="translate(124.625,134.9375)"/>
<path d="M0 0 C1.32 0.33 2.64 0.66 4 1 C4 1.99 4 2.98 4 4 C10.98144819 5.69214979 17.84404654 7.29843593 25 8 C25 8.33 25 8.66 25 9 C8.87008295 9.6177415 8.87008295 9.6177415 3.26171875 5.82421875 C1.875 4.5 1.875 4.5 0 2 C0 1.34 0 0.68 0 0 Z " fill="#ED942F" transform="translate(237,106)"/>
<path d="M0 0 C0 0.66 0 1.32 0 2 C-0.804375 2.45375 -1.60875 2.9075 -2.4375 3.375 C-5.04706318 4.74197198 -5.04706318 4.74197198 -6 6.8125 C-6 10.12825467 -4.72746756 12.22371285 -3 15 C-2.01 15.33 -1.02 15.66 0 16 C-0.33 16.99 -0.66 17.98 -1 19 C-4 18 -4 18 -5.16796875 16.328125 C-8.96815117 8.58215931 -8.96815117 8.58215931 -8 5 C-3.46961326 0 -3.46961326 0 0 0 Z " fill="#6A6B75" transform="translate(141,68)"/>
<path d="M0 0 C2.37152871 0.40303261 4.09809693 1.19356834 6.18359375 2.37109375 C6.18359375 3.03109375 6.18359375 3.69109375 6.18359375 4.37109375 C5.61511719 4.20996094 5.04664063 4.04882812 4.4609375 3.8828125 C-1.08907057 2.63572664 -6.70618032 2.73355779 -11.81640625 5.37109375 C-8.14036167 0.62781042 -5.71052733 -0.16824777 0 0 Z " fill="#6E7078" transform="translate(265.81640625,164.62890625)"/>
<path d="M0 0 C-1.77502198 2.27991712 -2.6300787 2.95047123 -5.54370117 3.34057617 C-6.53345947 3.32486572 -7.52321777 3.30915527 -8.54296875 3.29296875 C-10.15268555 3.2784668 -10.15268555 3.2784668 -11.79492188 3.26367188 C-12.91447266 3.23853516 -14.03402344 3.21339844 -15.1875 3.1875 C-16.31865234 3.17396484 -17.44980469 3.16042969 -18.61523438 3.14648438 C-21.41063317 3.11109958 -24.20507892 3.06172948 -27 3 C-27 2.67 -27 2.34 -27 2 C-20.07 2 -13.14 2 -6 2 C-6 1.34 -6 0.68 -6 0 C-2.25 -1.125 -2.25 -1.125 0 0 Z " fill="#ADB0B9" transform="translate(97,103)"/>
<path d="M0 0 C0.33 0.66 0.66 1.32 1 2 C-2.3 2 -5.6 2 -9 2 C-9 3.98 -9 5.96 -9 8 C-12.875 6.25 -12.875 6.25 -14 4 C-13.01 3.67 -12.02 3.34 -11 3 C-10.67 2.34 -10.34 1.68 -10 1 C-6.52674819 -0.1577506 -3.63932552 -0.06866652 0 0 Z " fill="#6A3919" transform="translate(284,65)"/>
<path d="M0 0 C2 2 2 2 2.1953125 4.6015625 C2.17210937 5.59929687 2.14890625 6.59703125 2.125 7.625 C2.10695313 8.62789062 2.08890625 9.63078125 2.0703125 10.6640625 C2.03550781 11.82035156 2.03550781 11.82035156 2 13 C0.35 13.66 -1.3 14.32 -3 15 C-2.690625 14.38125 -2.38125 13.7625 -2.0625 13.125 C-0.5960722 8.81197706 -0.33380974 4.5240004 0 0 Z " fill="#D88C37" transform="translate(274,86)"/>
<path d="M0 0 C1.32 0 2.64 0 4 0 C6.20536179 4.0271824 7.45660208 7.43545749 8 12 C7.34 12 6.68 12 6 12 C4 8 2 4 0 0 Z " fill="#DE8F39" transform="translate(334,223)"/>
<path d="M0 0 C-0.1875 1.875 -0.1875 1.875 -1 4 C-3.5625 5.25 -3.5625 5.25 -6 6 C-6 4.02 -6 2.04 -6 0 C-3 -1 -3 -1 0 0 Z " fill="#F6931D" transform="translate(189,140)"/>
<path d="M0 0 C1.63001953 0.01353516 1.63001953 0.01353516 3.29296875 0.02734375 C4.12441406 0.03894531 4.95585937 0.05054687 5.8125 0.0625 C6.4725 1.3825 7.1325 2.7025 7.8125 4.0625 C6.966875 3.7325 6.12125 3.4025 5.25 3.0625 C-0.06099246 1.51748401 -4.84485957 1.76731444 -10.1875 3.0625 C-8.19010785 -0.9322843 -3.93646808 -0.04232761 0 0 Z " fill="#663D15" transform="translate(260.1875,75.9375)"/>
<path d="M0 0 C2.86849898 1.52389008 4.81189287 3.69205061 7 6.0625 C6.67 7.0525 6.34 8.0425 6 9.0625 C5.1028125 7.8559375 5.1028125 7.8559375 4.1875 6.625 C2.19052724 3.83922016 2.19052724 3.83922016 -1 3.0625 C-3.00875442 3.33821139 -5.01178687 3.66485737 -7 4.0625 C-2.65882353 0.08308824 -2.65882353 0.08308824 0 0 Z " fill="#6F707D" transform="translate(425,191.9375)"/>
<path d="M0 0 C1.65 0.99 3.3 1.98 5 3 C4.29445932 6.66881155 2.72264494 9.70450534 1 13 C0.67 13 0.34 13 0 13 C-0.12529002 7.48723898 -0.12529002 7.48723898 0.5625 4.8125 C1.22193706 2.7824796 1.22193706 2.7824796 0 0 Z " fill="#8A8D96" transform="translate(211,164)"/>
<path d="M0 0 C1.32 0.33 2.64 0.66 4 1 C3.67 2.65 3.34 4.3 3 6 C3.66 6 4.32 6 5 6 C5.99 8.97 6.98 11.94 8 15 C4.10873653 11.66463131 1.82900259 7.73789501 0 3 C0 2.01 0 1.02 0 0 Z " fill="#80838C" transform="translate(112,84)"/>
<path d="M0 0 C2 3 2 3 3.375 5.5 C5.01605808 8.02470474 6.50310264 9.36410173 9 11 C5.65626525 10.44271087 2.96687001 9.64826111 0 8 C0 5.36 0 2.72 0 0 Z " fill="#8F5520" transform="translate(244,94)"/>
<path d="M0 0 C1.32 0.33 2.64 0.66 4 1 C4 1.66 4 2.32 4 3 C4.99 3 5.98 3 7 3 C7.33 5.31 7.66 7.62 8 10 C7.4225 9.2575 6.845 8.515 6.25 7.75 C4.08291977 5.00829198 4.08291977 5.00829198 1.75 2.75 C1.1725 2.1725 0.595 1.595 0 1 C0 0.67 0 0.34 0 0 Z " fill="#D98C34" transform="translate(266,76)"/>
<path d="M0 0 C0.66 0 1.32 0 2 0 C2 1.65 2 3.3 2 5 C1.67 4.34 1.34 3.68 1 3 C0.113125 3.495 -0.77375 3.99 -1.6875 4.5 C-4.87586238 5.94378674 -6.58187546 6.30159922 -10 6 C-7.08616689 4.05744459 -4.12736438 2.56368219 -1 1 C-0.67 0.67 -0.34 0.34 0 0 Z " fill="#4B2B09" transform="translate(272,111)"/>
<path d="M0 0 C0 3.96018245 -1.18721244 6.5039097 -3 10 C-5.1875 10.9375 -5.1875 10.9375 -7 11 C-5.22054913 6.95579349 -2.60470327 3.53921513 0 0 Z " fill="#898C96" transform="translate(104,154)"/>
<path d="M0 0 C1.32 0 2.64 0 4 0 C4 0.66 4 1.32 4 2 C1.4385343 4.29648649 0.52032428 5 -3 5 C-1.125 1.125 -1.125 1.125 0 0 Z " fill="#935F2C" transform="translate(240,70)"/>
<path d="M0 0 C1.98 0 3.96 0 6 0 C3.03716687 2.38672669 0.05729491 4.7353371 -3 7 C-3 5.68 -3 4.36 -3 3 C-2.01 3 -1.02 3 0 3 C0 2.01 0 1.02 0 0 Z " fill="#CD8931" transform="translate(314,221)"/>
<path d="M0 0 C1.485 0.99 1.485 0.99 3 2 C3 2.66 3 3.32 3 4 C4.32 3.67 5.64 3.34 7 3 C6.67 4.32 6.34 5.64 6 7 C4.125 6.875 4.125 6.875 2 6 C0.75 2.9375 0.75 2.9375 0 0 Z " fill="#717179" transform="translate(90,162)"/>
<path d="M0 0 C2.375 0.5625 2.375 0.5625 5 2 C6.3125 5.625 6.3125 5.625 7 9 C4.04070881 6.24479785 1.96318174 3.53372712 0 0 Z " fill="#878A94" transform="translate(81,170)"/>
<path d="M0 0 C1.32 0.33 2.64 0.66 4 1 C4 1.99 4 2.98 4 4 C4.66 4 5.32 4 6 4 C6.33 4.99 6.66 5.98 7 7 C4.13302508 5.71480435 2.02392288 4.42870746 0 2 C0 1.34 0 0.68 0 0 Z " fill="#CC8A3B" transform="translate(237,106)"/>
<path d="M0 0 C4.54805635 -0.17835515 7.8794254 0.00214565 12 2 C12 2.66 12 3.32 12 4 C6.06 2.515 6.06 2.515 0 1 C0 0.67 0 0.34 0 0 Z " fill="#666971" transform="translate(152,76)"/>
<path d="M0 0 C0.66 0.33 1.32 0.66 2 1 C0.29374499 3.78388975 -0.47626739 4.85384206 -3.6875 5.75 C-4.8321875 5.87375 -4.8321875 5.87375 -6 6 C-5.67 5.34 -5.34 4.68 -5 4 C-4.34 4 -3.68 4 -3 4 C-3 3.34 -3 2.68 -3 2 C-2.01 1.34 -1.02 0.68 0 0 Z " fill="#E99433" transform="translate(247,68)"/>
</svg>
