<?xml version="1.0" encoding="UTF-8"?>
<svg version="1.1" xmlns="http://www.w3.org/2000/svg" width="1061" height="938">
<path d="M0 0 C0.73118042 -0.00979385 1.46236084 -0.01958771 2.21569824 -0.02967834 C18.18456483 -0.19958915 33.60128024 -0.19611148 49.08203125 4.23828125 C49.79697754 4.43663574 50.51192383 4.63499023 51.24853516 4.83935547 C68.46108536 9.78929269 85.46822614 18.60322688 99.08203125 30.23828125 C100.07203125 31.07875 101.06203125 31.91921875 102.08203125 32.78515625 C116.5274523 45.3774197 134.5555227 64.95414409 137.58203125 84.4609375 C137.08203125 87.23828125 137.08203125 87.23828125 135.15087891 88.74487305 C131.04809725 90.74142956 126.89446688 91.80113621 122.48046875 92.91015625 C121.06750267 93.27542419 121.06750267 93.27542419 119.62599182 93.64807129 C116.57158226 94.43580451 113.51444035 95.2122797 110.45703125 95.98828125 C108.3638376 96.52502996 106.27082025 97.06246669 104.17797852 97.60058594 C100.04381965 98.662864 95.90869357 99.72125704 91.77294922 100.77734375 C86.91234782 102.02128242 82.05947359 103.29196067 77.2109375 104.58203125 C75.96844238 104.91106445 74.72594727 105.24009766 73.44580078 105.57910156 C71.22566691 106.16822644 69.00652075 106.76109139 66.78857422 107.35839844 C65.82193848 107.61266602 64.85530273 107.86693359 63.859375 108.12890625 C62.64109009 108.4542334 62.64109009 108.4542334 61.39819336 108.78613281 C58.85629196 109.28234883 56.66460357 109.46414273 54.08203125 109.23828125 C51.5625 107.046875 51.5625 107.046875 49.08203125 104.23828125 C36.18237043 90.55813675 20.92053354 82.3094843 1.84765625 81.01953125 C-23.46974759 80.34440048 -44.56194118 92.39045374 -62.48046875 109.36328125 C-79.77709845 127.09965578 -86.46931119 149.57594329 -86.33764648 173.97900391 C-85.91684461 191.93411939 -79.81956071 207.6097402 -66.98828125 220.4453125 C-55.65594121 231.10005625 -40.57384487 237.80419966 -24.91796875 238.23828125 C-24.10714844 238.28855469 -23.29632813 238.33882812 -22.4609375 238.390625 C-1.46578335 239.15911527 17.65524933 230.57274981 32.79516602 216.50854492 C39.1696701 210.38956556 44.212988 203.5726231 49.08203125 196.23828125 C48.0385553 196.2471637 46.99507935 196.25604614 45.91998291 196.26519775 C36.09090544 196.34625008 26.26189568 196.40623053 16.43255997 196.44552994 C11.37905205 196.46641339 6.3258137 196.49474496 1.27246094 196.54003906 C-3.60344343 196.58346964 -8.47908835 196.60741265 -13.3551712 196.61779022 C-15.21635269 196.6251866 -17.07751983 196.63962991 -18.938591 196.66120148 C-21.54368379 196.69019869 -24.14770173 196.69423884 -26.75292969 196.69238281 C-27.52401062 196.70676392 -28.29509155 196.72114502 -29.08953857 196.73596191 C-32.58198361 196.70900123 -34.55151132 196.50877956 -37.39801025 194.40765381 C-39.68081388 191.14950461 -39.4134902 189.16249145 -38.91796875 185.23828125 C-37.90469909 182.00086984 -36.56571503 178.95139383 -35.16796875 175.86328125 C-34.57483887 174.52015869 -34.57483887 174.52015869 -33.96972656 173.14990234 C-30.63654452 165.67522241 -27.170617 158.25981942 -23.66796875 150.86328125 C-23.17329102 149.81221191 -22.67861328 148.76114258 -22.16894531 147.67822266 C-15.33906703 133.46574593 -15.33906703 133.46574593 -10.6225481 131.07453346 C-7.67233299 130.16233101 -5.27672119 129.97702778 -2.1915741 129.95980835 C-1.04878998 129.94864487 0.09399414 129.93748138 1.27140808 129.92597961 C2.5157814 129.92381943 3.76015472 129.92165924 5.04223633 129.91943359 C7.01842957 129.90436516 7.01842957 129.90436516 9.0345459 129.88899231 C12.63949443 129.86172651 16.24440396 129.8465531 19.84942842 129.83356428 C23.6197724 129.81791874 27.39003692 129.79113306 31.1603241 129.76553345 C38.29644507 129.71877084 45.43258103 129.68201457 52.56877679 129.64886057 C60.694543 129.61062137 68.82022935 129.56121593 76.94592822 129.51087642 C93.65790518 129.40759403 110.36992647 129.31832165 127.08203125 129.23828125 C127.4921344 128.20654282 127.90223755 127.17480438 128.32476807 126.11180115 C128.86912958 124.74565606 129.41354571 123.37953274 129.95800781 122.01342773 C130.2275528 121.33488487 130.49709778 120.65634201 130.77481079 119.95723724 C140.66894876 95.15450511 155.7578454 74.43884121 174.08203125 55.23828125 C174.98308594 54.25794922 174.98308594 54.25794922 175.90234375 53.2578125 C206.00909877 21.41121988 254.4025451 4.7610103 297.36474609 3.11230469 C343.91314287 2.10163454 380.65504679 14.3289164 415.08203125 46.23828125 C415.675 46.76550781 416.26796875 47.29273438 416.87890625 47.8359375 C443.15482228 72.29756409 451.87306605 108.78279103 453.2734375 143.28125 C453.98502454 186.78293748 437.71903305 226.84499475 407.90625 258.31640625 C407.44524902 258.79271484 406.98424805 259.26902344 406.50927734 259.75976562 C405.02561379 261.29672534 403.56430848 262.8532989 402.1015625 264.41015625 C389.83225385 277.26987353 375.66614712 287.73305191 360.08203125 296.23828125 C359.14157959 296.75382568 359.14157959 296.75382568 358.18212891 297.27978516 C335.27408487 309.6667534 310.8268455 316.18902829 285.08203125 319.23828125 C284.02371094 319.37105469 282.96539063 319.50382812 281.875 319.640625 C244.32278235 323.75053788 203.62654678 312.79476977 173.81591797 289.51245117 C152.8873769 272.64627425 134.86046206 251.48025047 127.08203125 225.23828125 C127.08203125 224.24828125 127.08203125 223.25828125 127.08203125 222.23828125 C126.42203125 222.23828125 125.76203125 222.23828125 125.08203125 222.23828125 C124.71078125 223.52025391 124.71078125 223.52025391 124.33203125 224.828125 C122.9919149 228.48412991 121.21200379 231.57140884 119.08203125 234.80078125 C118.68612793 235.40647949 118.29022461 236.01217773 117.88232422 236.63623047 C110.9535836 247.09045338 103.16037911 256.69217559 94.49853516 265.75439453 C93.55533837 266.742459 92.61747235 267.73564018 91.68505859 268.73388672 C63.6061502 298.74657732 22.03279252 317.62125914 -19.04931641 319.46069336 C-23.35981922 319.60019295 -27.66800662 319.62496926 -31.98046875 319.61328125 C-32.74221405 319.61273743 -33.50395935 319.6121936 -34.28878784 319.6116333 C-47.16900644 319.56956583 -59.42329004 318.57174964 -71.91796875 315.23828125 C-73.06458984 314.94074951 -73.06458984 314.94074951 -74.234375 314.63720703 C-98.34535165 308.13903 -119.11894568 294.38675524 -136.91796875 277.23828125 C-137.6346875 276.58472656 -138.35140625 275.93117188 -139.08984375 275.2578125 C-164.20220469 251.70241794 -174.79766242 215.9092722 -176.140625 182.4296875 C-177.39700267 133.25007896 -155.84576016 90.42016431 -122.7890625 55.2109375 C-104.66806287 36.26317112 -82.39398657 21.6329363 -57.91796875 12.23828125 C-57.24008301 11.97708496 -56.56219727 11.71588867 -55.86376953 11.44677734 C-38.25491682 4.81221078 -18.86480045 0.21038239 0 0 Z M238.08203125 104.23828125 C237.26089844 104.95371094 236.43976563 105.66914063 235.59375 106.40625 C218.90529138 121.900822 209.83243485 144.88522737 207.8046875 167.3046875 C207.15826744 186.72314609 214.4503 203.91444893 227.08203125 218.23828125 C239.61494741 231.29143166 258.37323235 239.01827704 276.33959961 239.59204102 C302.84681513 239.85031493 325.23283412 227.41937147 344.14453125 209.61328125 C359.37662714 193.9746773 368.34656389 171.81410107 368.51953125 149.98828125 C367.92189364 129.90765768 360.3140482 111.24741222 345.6171875 97.33203125 C313.49649577 70.80400233 267.91128416 77.62066079 238.08203125 104.23828125 Z " fill="#00AED9" transform="translate(506.91796875,324.76171875)"/>
<path d="M0 0 C1.74308148 -0.00925956 3.48616352 -0.01841366 5.22924614 -0.02745438 C6.45825902 -0.03968503 6.45825902 -0.03968503 7.71210045 -0.05216277 C13.49108481 -0.07435334 13.49108481 -0.07435334 15.71739006 1.03879929 C14.43832029 13.31786905 14.43832029 13.31786905 10.71739006 17.03879929 C8.1123747 17.13659223 5.53388984 17.16874564 2.92843437 17.1590538 C1.68983637 17.16033544 1.68983637 17.16033544 0.42621619 17.16164297 C-2.36224544 17.1633003 -5.15064793 17.15777228 -7.93910408 17.15232468 C-9.92937404 17.15204283 -11.91964411 17.15220048 -13.90991402 17.15276718 C-19.33117854 17.15305527 -24.75242114 17.14715675 -30.17368054 17.14019322 C-35.83250204 17.13396153 -41.49132399 17.13335603 -47.15014839 17.13216782 C-57.87407486 17.12905395 -68.59799119 17.12083983 -79.32191318 17.11081833 C-91.52726507 17.09965889 -103.73261743 17.09414717 -115.93797314 17.08912289 C-141.05285771 17.07865726 -166.16773326 17.06105676 -191.28260994 17.03879929 C-190.46137536 13.1465701 -188.88902473 10.99593836 -186.34510994 7.91379929 C-185.6348365 7.04497116 -184.92456306 6.17614304 -184.19276619 5.28098679 C-180.60320567 1.06747402 -180.60320567 1.06747402 -177.35654736 0.77708626 C-176.09255832 0.7715555 -174.82856928 0.76602474 -173.52627754 0.76032639 C-172.4718904 0.75163778 -172.4718904 0.75163778 -171.3962025 0.74277365 C-169.02829579 0.72569863 -166.66058313 0.72289052 -164.29261971 0.71995163 C-162.59903164 0.71065702 -160.90544818 0.70048906 -159.21187019 0.68951035 C-154.5972335 0.6621028 -149.98262756 0.64702249 -145.36793065 0.63408232 C-140.52808917 0.61845266 -135.68830983 0.59164812 -130.84851265 0.56605148 C-121.65600304 0.51915601 -112.46348153 0.48248489 -103.27091306 0.44937861 C-92.88679375 0.41146349 -82.50274096 0.36186274 -72.1186763 0.31139445 C-56.75092026 0.23707533 -41.38314525 0.16747165 -26.01532173 0.10861397 C-24.36397889 0.10227871 -22.71263646 0.09583318 -21.06129456 0.08925819 C-17.31335147 0.07444385 -13.56542572 0.06153811 -9.81746292 0.05297089 C-6.54485879 0.04511625 -3.27251892 0.02465912 0 0 Z " fill="#00AED9" transform="translate(294.2826099395752,442.9612007141113)"/>
<path d="M0 0 C1.2901149 -0.00137466 2.5802298 -0.00274933 3.90943909 -0.00416565 C5.34729027 -0.00062626 6.78514122 0.00300856 8.22299194 0.00672913 C9.73065692 0.00701107 11.23832204 0.00685312 12.74598694 0.00628662 C16.84698934 0.00599892 20.94796267 0.01189119 25.0489583 0.01886058 C29.33177068 0.02509871 33.61458368 0.02569828 37.8973999 0.02688599 C46.01113785 0.02999794 54.12486238 0.03820951 62.23859441 0.04823548 C71.47425525 0.05940081 80.70991672 0.06490813 89.94558263 0.06993091 C108.94740247 0.08039223 127.9492098 0.09798906 146.95101929 0.12025452 C146.20807918 4.4039868 144.89504201 7.20637341 142.51351929 10.87025452 C141.89605835 11.83447327 141.27859741 12.79869202 140.64242554 13.79212952 C138.95101929 16.12025452 138.95101929 16.12025452 136.95101929 17.12025452 C134.91115992 17.21437533 132.86813979 17.24215849 130.82611084 17.24050903 C129.51916763 17.2418837 128.21222443 17.24325836 126.86567688 17.24467468 C125.40893532 17.24113529 123.95219399 17.23750047 122.49545288 17.23377991 C120.96808372 17.23349797 119.44071442 17.2336559 117.91334534 17.23422241 C113.7586258 17.23451012 109.60393494 17.22861772 105.44922209 17.22164845 C101.11035525 17.21541046 96.77148781 17.21481076 92.43261719 17.21362305 C84.21263142 17.21051105 75.9926589 17.20229943 67.77267897 17.19227356 C58.41610142 17.18110834 49.05952325 17.17560094 39.7029407 17.17057812 C20.45229271 17.16011672 1.20165706 17.14251981 -18.04898071 17.12025452 C-17.28669132 12.40467381 -15.7124515 10.04180393 -12.61148071 6.37025452 C-11.80839478 5.40603577 -11.00530884 4.44181702 -10.17788696 3.44837952 C-6.82655148 -0.21656718 -4.84186438 -0.00396225 0 0 Z " fill="#00AED9" transform="translate(184.04898071289063,404.87974548339844)"/>
<path d="M0 0 C0.82502518 0.00719055 1.65005035 0.0143811 2.50007629 0.02178955 C3.36843613 0.0214975 4.23679596 0.02120544 5.13146973 0.02090454 C8.01013582 0.02230116 10.8885451 0.03787791 13.76716614 0.05352783 C15.75970824 0.05725678 17.75225217 0.06010431 19.74479675 0.06210327 C24.99573303 0.06974901 30.24655912 0.08940556 35.49745178 0.11151123 C40.8529664 0.13194942 46.20849878 0.14110065 51.56404114 0.15118408 C62.07711045 0.17265058 72.59009789 0.20679784 83.10310364 0.24884033 C83.15734002 2.1651925 83.19600327 4.08198958 83.22810364 5.99884033 C83.25130676 7.06618408 83.27450989 8.13352783 83.29841614 9.23321533 C83.10310364 12.24884033 83.10310364 12.24884033 81.10310364 16.24884033 C49.75310364 16.24884033 18.40310364 16.24884033 -13.89689636 16.24884033 C-13.0736382 12.13254952 -12.44899566 10.03871122 -10.45939636 6.56134033 C-10.02756042 5.79434814 -9.59572449 5.02735596 -9.15080261 4.23712158 C-6.54129447 0.09930337 -4.76080248 0.01741465 0 0 Z " fill="#00AED9" transform="translate(217.8968963623047,481.75115966796875)"/>
</svg>
