<?xml version="1.0" standalone="no"?>
<!DOCTYPE svg PUBLIC "-//W3C//DTD SVG 20010904//EN"
 "http://www.w3.org/TR/2001/REC-SVG-20010904/DTD/svg10.dtd">
<svg version="1.0" xmlns="http://www.w3.org/2000/svg"
 width="200.000000pt" height="200.000000pt" viewBox="0 0 200.000000 200.000000"
 preserveAspectRatio="xMidYMid meet">

<g transform="translate(0.000000,200.000000) scale(0.100000,-0.100000)"
fill="#000000" stroke="none">
<path d="M598 1941 c-117 -47 -184 -118 -213 -225 -54 -200 80 -397 281 -414
61 -4 61 -5 82 -48 l22 -44 -39 -55 c-50 -72 -65 -127 -58 -218 3 -39 7 -80 9
-89 2 -11 -31 -47 -91 -101 l-95 -84 -50 20 c-40 15 -68 18 -131 15 -98 -6
-161 -35 -224 -103 -66 -72 -86 -124 -86 -225 1 -77 4 -91 34 -148 64 -118
163 -177 296 -177 66 0 90 5 137 27 121 56 191 168 190 303 0 39 -5 82 -11 97
-10 26 -6 30 85 110 53 46 101 82 107 81 7 -1 37 -9 67 -18 68 -20 162 -14
227 15 l46 20 89 -67 c61 -47 86 -73 82 -83 -3 -8 -10 -39 -15 -68 -26 -136
51 -286 178 -348 78 -39 186 -44 265 -14 75 28 150 96 185 168 24 49 28 69 27
142 0 73 -4 93 -29 143 -73 147 -244 221 -398 172 l-55 -17 -96 73 -96 74 6
45 c8 58 7 56 57 73 40 13 45 13 67 -5 52 -42 124 -71 191 -76 136 -10 250 54
318 178 33 60 36 71 36 150 0 72 -4 93 -27 140 -68 138 -205 211 -354 188
-147 -23 -250 -131 -277 -289 -11 -65 -15 -73 -39 -81 -23 -8 -34 -3 -80 34
-64 52 -91 64 -182 81 -68 13 -70 14 -84 54 -15 39 -14 41 11 75 104 136 95
320 -23 438 -87 87 -238 123 -342 81z m178 -232 c78 -73 29 -189 -79 -189 -45
0 -84 31 -98 79 -31 102 99 183 177 110z m952 -395 c27 -19 52 -65 52 -96 0
-35 -34 -83 -69 -97 -96 -40 -188 66 -137 158 27 48 108 67 154 35z m-655
-268 c92 -85 -1 -230 -116 -182 -80 33 -89 151 -16 192 40 22 102 17 132 -10z
m654 -546 c67 -40 66 -140 -1 -181 -80 -49 -166 1 -166 97 0 28 8 44 34 70 40
40 83 45 133 14z m-1310 -56 c50 -62 15 -165 -61 -179 -111 -21 -180 118 -94
190 28 24 39 27 82 22 40 -3 54 -10 73 -33z"/>
</g>
</svg>
