<?xml version="1.0" encoding="UTF-8"?>
<svg version="1.1" xmlns="http://www.w3.org/2000/svg" width="960" height="214">
<path d="M0 0 C6.85675828 6.01882359 6.85675828 6.01882359 8.39669472 8.47086453 C10.53563984 11.66252247 12.17465375 13.46372698 15.98364723 14.38597631 C19.44660302 14.63118568 22.8498063 14.64966185 26.3212738 14.59783936 C27.66203798 14.60287686 29.00279351 14.61099555 30.34352261 14.62192369 C34.02244983 14.64306636 37.70002292 14.6207307 41.37884581 14.59130645 C45.34827559 14.56722589 49.3175608 14.58361587 53.28701782 14.59519958 C60.16406119 14.60986272 67.04069307 14.59928773 73.91769218 14.57189178 C83.86822684 14.53255235 93.81842064 14.53467071 103.76900924 14.547447 C119.92329494 14.56734209 136.07742282 14.55823798 152.23168945 14.52880859 C167.90616999 14.50035569 183.58062171 14.4780301 199.25512695 14.46923828 C200.22036635 14.46869 201.18560575 14.46814172 202.18009483 14.46757683 C212.71868555 14.46194193 223.25726963 14.46005832 233.79586124 14.46397781 C235.18538457 14.46449314 235.18538457 14.46449314 236.60297908 14.46501888 C240.30629474 14.46647791 244.0096102 14.4680319 247.71292556 14.4701263 C258.55378924 14.47624242 269.39448426 14.47048765 280.23531771 14.44310173 C287.03566678 14.42635059 293.83597591 14.41954185 300.63634544 14.42053929 C304.560265 14.42065513 308.48401511 14.41567713 312.40789604 14.39749718 C316.00100509 14.38088564 319.59385404 14.37804151 323.18699015 14.38602772 C325.10026192 14.38663589 327.01352059 14.37234454 328.92673486 14.35749888 C335.83600733 14.38858526 341.63456623 14.50085341 347.05078125 19.2734375 C349.9813266 23.22462106 351.43020229 25.3076046 351.45576477 30.19036865 C351.46649773 31.59506409 351.46649773 31.59506409 351.47744751 33.02813721 C351.48148087 34.57413605 351.48148087 34.57413605 351.4855957 36.15136719 C351.4954525 37.77594849 351.4954525 37.77594849 351.50550842 39.43334961 C351.5252743 43.0297858 351.53691144 46.62618017 351.546875 50.22265625 C351.55095053 51.44898018 351.55502605 52.67530411 351.55922508 53.93878937 C351.57794582 59.75976228 351.59250815 65.58071869 351.60083705 71.40171599 C351.60963323 77.44924262 351.62891984 83.49651823 351.6652832 89.54394531 C351.70366655 96.03017259 351.72251944 102.51617331 351.72704124 109.00251007 C351.73191751 111.47605884 351.74356086 113.94960382 351.76207924 116.42308807 C351.7863853 119.88486594 351.78552075 123.3457804 351.77856445 126.80761719 C351.79137451 127.83018616 351.80418457 128.85275513 351.81738281 129.90631104 C351.77511238 135.6756882 351.36823211 139.29579467 347.30859375 143.73828125 C341.60578308 148.95855091 335.68571569 148.26891242 328.25363159 148.16978455 C326.90819918 148.16634874 325.56276117 148.16471363 324.21732438 148.16472059 C320.52549524 148.15977168 316.83421548 148.13007519 313.14255095 148.09651911 C309.15880085 148.06481887 305.17499916 148.05653325 301.19114685 148.04592896 C294.28798656 148.02491364 287.3849942 147.99073899 280.48192978 147.949049 C269.56496919 147.88438431 258.64811331 147.86231939 247.73098755 147.8473053 C243.99399346 147.84165765 240.25699979 147.83575999 236.52000618 147.82980442 C235.58609787 147.8283305 234.65218957 147.82685657 233.68998101 147.82533799 C223.06185778 147.80804941 212.43376007 147.78264172 201.80566406 147.75317383 C200.34857862 147.74915169 200.34857862 147.74915169 198.8620571 147.74504829 C183.12761933 147.70045611 167.39349222 147.62161075 151.65924583 147.53364234 C135.49525889 147.44446849 119.33164238 147.40523401 103.16741002 147.4087792 C93.20260641 147.4091304 83.23963899 147.36882737 73.27526124 147.27587659 C66.44193672 147.2155894 59.60955289 147.20281894 52.77600937 147.22698592 C48.8361964 147.23943485 44.89941688 147.2309607 40.96006966 147.16506767 C24.58710759 146.08803812 24.58710759 146.08803812 9.93771744 151.54873848 C7.76694644 153.67027767 6.06316247 155.87792432 4.43799019 158.43471622 C-5.9444782 174.54217223 -30.0280554 182.66921776 -47.69140625 186.73828125 C-75.31026434 192.4847856 -104.21852937 186.8458934 -127.97705078 171.86865234 C-132.14448772 169.12082651 -135.94834205 166.03139522 -139.69140625 162.73828125 C-140.49320312 162.05636719 -141.295 161.37445313 -142.12109375 160.671875 C-145.43471753 157.80912134 -148.3240229 155.26228716 -150.85221106 151.65628397 C-153.05154141 149.0188321 -153.56861938 148.76478256 -157.15243572 147.99128091 C-158.50931033 147.96210739 -159.86713634 147.96578366 -161.22399807 147.99555016 C-161.97760763 147.9881371 -162.73121719 147.98072405 -163.5076634 147.97308636 C-166.04197053 147.95548913 -168.57404151 147.98076929 -171.10826111 148.00570679 C-172.93971884 148.00182497 -174.77117257 147.99529851 -176.60261256 147.9863497 C-181.64229596 147.96933305 -186.68124928 147.98970242 -191.72086751 148.01598072 C-197.15313679 148.03775192 -202.5853337 148.02490865 -208.0176239 148.0160675 C-217.43305121 148.00532778 -226.84825701 148.01610058 -236.26365471 148.04096603 C-249.8833134 148.07655388 -263.50277842 148.07536284 -277.12247021 148.0643682 C-299.22710197 148.04715393 -321.33165637 148.05370438 -343.4362793 148.078125 C-344.09779047 148.07885051 -344.75930164 148.07957602 -345.4408586 148.08032352 C-350.80058683 148.08620313 -356.160315 148.09213297 -361.52004308 148.09814468 C-376.95207999 148.11542347 -392.38411875 148.12786577 -407.81616211 148.13769531 C-408.47716692 148.13812267 -409.13817174 148.13855002 -409.819207 148.13899033 C-432.50601124 148.1535399 -455.19278991 148.15198946 -477.87959486 148.13964617 C-491.46814522 148.13315653 -505.05652805 148.14206755 -518.64505065 148.17073072 C-527.95249846 148.18959623 -537.25988627 148.19475032 -546.56735127 148.18903778 C-551.94124541 148.18628994 -557.31492516 148.19029087 -562.68878174 148.21172905 C-567.60558046 148.23126278 -572.52202977 148.23255998 -577.43884606 148.21922095 C-579.22009144 148.21768709 -581.00135812 148.2229825 -582.78255879 148.23569612 C-585.19979628 148.25200052 -587.61575227 148.2437559 -590.03297329 148.22933006 C-590.72811135 148.23994886 -591.4232494 148.25056765 -592.13945225 148.26150823 C-597.09108995 148.19367939 -599.85823845 146.79822754 -603.69140625 143.73828125 C-608.4962328 138.47728285 -608.26237855 133.54272458 -608.20898438 126.77929688 C-608.21599365 125.685905 -608.22300293 124.59251312 -608.23022461 123.46598816 C-608.24780239 119.85857607 -608.23618183 116.25195106 -608.22265625 112.64453125 C-608.22535121 110.13399098 -608.22923365 107.62345173 -608.23425293 105.11291504 C-608.2401477 99.85400388 -608.23196802 94.59529668 -608.21289062 89.33642578 C-608.19112344 83.26619061 -608.19817554 77.19649292 -608.22019625 71.12627077 C-608.24057134 65.27427839 -608.23836914 59.42248945 -608.22666931 53.57048035 C-608.2240021 51.08578923 -608.22727154 48.60108439 -608.23658752 46.1164093 C-608.24675282 42.64299247 -608.2312505 39.17060579 -608.20898438 35.69726562 C-608.2170813 34.6716301 -608.22517822 33.64599457 -608.23352051 32.58927917 C-608.16315224 26.66015595 -607.64122819 23.25427687 -603.69140625 18.73828125 C-598.38323011 14.88985355 -593.72109653 14.59186467 -587.32147694 14.62754917 C-586.19920667 14.62777979 -586.19920667 14.62777979 -585.05426428 14.62801507 C-582.53311983 14.62972611 -580.01205014 14.63860214 -577.49092102 14.64735413 C-575.67072186 14.64994694 -573.85052199 14.65207313 -572.03032178 14.65377134 C-568.06546247 14.65840268 -564.1006256 14.66616781 -560.13577652 14.67628288 C-553.68521324 14.6926523 -547.234651 14.70206839 -540.78407288 14.71032715 C-533.83899701 14.71950204 -526.89392319 14.72909974 -519.94885123 14.74090493 C-502.72665006 14.7699053 -485.50449688 14.78145632 -468.28227234 14.78233337 C-467.03758282 14.78242708 -465.79289331 14.78252079 -464.51048592 14.78261734 C-454.25863658 14.78333929 -444.00678726 14.78334257 -433.7549379 14.78311725 C-424.51704504 14.78295601 -415.27915252 14.78346816 -406.04125977 14.78491211 C-404.72403084 14.7851101 -403.40680191 14.78530809 -402.04965695 14.78551208 C-380.70344085 14.78971094 -359.35741047 14.82627791 -338.01124904 14.87386829 C-316.10347132 14.92188353 -294.1959051 14.93194712 -272.28808755 14.90752882 C-258.77080333 14.89372785 -245.25423834 14.91009844 -231.73705562 14.96499699 C-222.4738275 14.99985445 -213.21105975 14.9981639 -203.94781814 14.96761204 C-198.60152443 14.95108551 -193.25652636 14.95088404 -187.91035461 14.99425316 C-183.01488993 15.0336194 -178.12172612 15.02686379 -173.22631481 14.98355072 C-171.45642208 14.97601775 -169.68635932 14.98536854 -167.91667239 15.01338912 C-158.27403391 15.3404725 -158.27403391 15.3404725 -149.70156515 11.53104866 C-147.44484466 9.03995043 -145.56765805 6.52042194 -143.69140625 3.73828125 C-136.24081204 -3.9901325 -127.12418518 -9.35843273 -117.69140625 -14.26171875 C-116.81226563 -14.73351563 -115.933125 -15.2053125 -115.02734375 -15.69140625 C-77.81865964 -34.23814972 -31.18414601 -26.20554505 0 0 Z " fill="#FDFDFD" transform="translate(608.69140625,25.26171875)"/>
<path d="M0 0 C41.30092542 -0.09152338 82.60183916 -0.16202238 123.90284587 -0.20426132 C128.77702762 -0.20926424 133.65120917 -0.21444152 138.52539062 -0.21972656 C139.49576656 -0.2207758 140.4661425 -0.22182505 141.46592377 -0.22290608 C157.18526049 -0.24031894 172.90453878 -0.27186148 188.62384082 -0.30861118 C204.74914311 -0.3459961 220.87441476 -0.36823067 236.9997586 -0.37635398 C246.95275087 -0.38184684 256.90557803 -0.39920552 266.85851948 -0.43166587 C273.68042269 -0.45278352 280.50224034 -0.45920628 287.32417388 -0.45400551 C291.26214867 -0.45143943 295.19983461 -0.45541728 299.13775826 -0.4768219 C302.74284977 -0.49627453 306.34745795 -0.4972788 309.95257162 -0.48359558 C311.87482704 -0.48110286 313.7970767 -0.49836655 315.71924984 -0.51632524 C322.10140826 -0.47189645 326.19909918 -0.39231715 331 4 C335.69794831 9.19617335 335.57756254 13.90079634 335.53344727 20.56005859 C335.54206284 21.6112236 335.55067841 22.66238861 335.55955505 23.7454071 C335.58222032 27.21333584 335.57547397 30.68045675 335.56640625 34.1484375 C335.57164207 36.56450643 335.5779184 38.9805733 335.58518982 41.39663696 C335.59559552 46.45885846 335.59103058 51.52079889 335.57641602 56.58300781 C335.55924067 63.06177296 335.5827084 69.53965021 335.61790562 76.01831627 C335.63989627 81.00786182 335.63843376 85.99719555 335.6301403 90.98677444 C335.62932147 93.3749247 335.63617174 95.76309062 335.65091133 98.15119553 C335.66838408 101.49506459 335.65378924 104.83734631 335.63110352 108.18115234 C335.64279572 109.16219437 335.65448792 110.14323639 335.66653442 111.15400696 C335.58986635 116.72490497 334.69206562 120.58676791 331.75515652 125.33738136 C325.57851927 131.18836508 317.87081705 130.4171287 309.89588928 130.36076355 C308.55753551 130.36207282 307.2191825 130.36470147 305.88083357 130.36853105 C302.21384151 130.37522422 298.54711341 130.36325962 294.88015497 130.34819686 C290.92182273 130.33522382 286.96350499 130.33962686 283.00515747 130.34190369 C276.15060471 130.34347562 269.29613771 130.33407479 262.44160652 130.31719017 C252.5311576 130.29279389 242.62075009 130.28499426 232.71027439 130.2812262 C216.63063794 130.2746627 200.55104719 130.25470429 184.47143555 130.22631836 C168.85294829 130.19877516 153.23447344 130.17754285 137.6159668 130.16479492 C136.65300629 130.16400675 135.69004578 130.16321858 134.69790465 130.16240653 C129.86694416 130.15849137 125.03598357 130.15470026 120.20502293 130.15097082 C80.13664996 130.11987808 40.068328 130.06704504 0 130 C1.55838722 126.82298756 3.28613381 123.77796951 5.07177734 120.72265625 C19.56831213 95.68264092 24.67974411 67.31122673 18.09375 38.7109375 C14.35215941 26.01625512 9.26701859 14.9951513 1.94140625 3.96484375 C0 1 0 1 0 0 Z " fill="#FCFCFC" transform="translate(624,42)"/>
<path d="M0 0 C0.95495361 0.00161133 1.90990723 0.00322266 2.89379883 0.00488281 C11.5620908 0.15299669 19.13813318 1.68805807 27.375 4.375 C28.36628906 4.68695312 29.35757813 4.99890625 30.37890625 5.3203125 C42.38543459 9.38511157 52.56521149 15.3887407 62.375 23.375 C63.25285156 24.0865625 64.13070312 24.798125 65.03515625 25.53125 C81.70622065 39.75447651 93.0957138 60.95781787 95.21606445 82.85791016 C95.53724718 87.9445367 95.51800291 93.03017617 95.5 98.125 C95.50386719 99.23488281 95.50773438 100.34476562 95.51171875 101.48828125 C95.50978516 103.09509766 95.50978516 103.09509766 95.5078125 104.734375 C95.50668457 105.69827148 95.50555664 106.66216797 95.50439453 107.65527344 C95.37736388 110.32531387 94.97077479 112.77299648 94.375 115.375 C90.54763111 114.79425761 87.82682958 113.69407926 84.515625 111.70703125 C83.57783203 111.15080078 82.64003906 110.59457031 81.67382812 110.02148438 C80.66771484 109.41626953 79.66160156 108.81105469 78.625 108.1875 C76.4542718 106.90040766 74.28235977 105.61531016 72.109375 104.33203125 C70.99369141 103.67283691 69.87800781 103.01364258 68.72851562 102.33447266 C63.48641645 99.27149304 58.18297224 96.32187297 52.875 93.375 C41.28932082 86.9306777 29.83221063 80.27804576 18.40844727 73.55151367 C17.08609072 72.78642348 15.7414523 72.05822615 14.375 71.375 C15.62308269 67.49207608 18.0007452 66.09714727 21.52734375 64.2578125 C30.34815834 60.0432161 38.25282381 60.61172459 47.34375 63.71875 C49.33641869 64.47747683 49.33641869 64.47747683 51.375 64.375 C42.73609494 52.95602177 34.40028465 46.13865279 21.375 40.375 C19.90353516 39.71757813 19.90353516 39.71757813 18.40234375 39.046875 C5.20437881 33.89113629 -8.76332207 35.34067564 -21.67871094 40.51855469 C-28.45127272 43.49875372 -35.47543457 47.00063314 -40.625 52.375 C-39.99335938 52.72578613 -39.36171875 53.07657227 -38.7109375 53.43798828 C-26.95071989 59.97685567 -15.2284648 66.56115751 -3.625 73.375 C4.48916091 78.13933906 12.65300463 82.79928084 20.875 87.375 C30.09108626 92.50395235 39.22789463 97.75118512 48.3137207 103.10742188 C53.58771693 106.20551894 58.89202764 109.22664398 64.26171875 112.15625 C65.39802734 112.77886719 66.53433594 113.40148437 67.70507812 114.04296875 C69.8867361 115.23342552 72.07398242 116.41371763 74.26757812 117.58203125 C85.95446887 123.97055992 85.95446887 123.97055992 88.07421875 130.54296875 C87.998426 143.60458556 76.57078063 155.98177306 68.0625 165.125 C45.99042476 185.96227383 19.20372426 192.36834536 -10.35302734 191.54541016 C-23.75759703 190.84727632 -35.09571892 185.95862582 -46.625 179.375 C-47.6459375 178.79492188 -48.666875 178.21484375 -49.71875 177.6171875 C-56.38812273 173.58933599 -62.01214124 168.75398965 -67.625 163.375 C-68.3365625 162.72660156 -69.048125 162.07820312 -69.78125 161.41015625 C-85.21132213 146.8999538 -93.97217143 123.74228014 -94.71728516 102.77856445 C-94.75864533 99.93492802 -94.76151374 97.09389453 -94.75 94.25 C-94.75386719 93.28707031 -94.75773437 92.32414062 -94.76171875 91.33203125 C-94.75516478 86.56729226 -94.61862256 82.05922062 -93.625 77.375 C-89.75564806 77.96638567 -86.90944336 79.11730778 -83.51171875 81.04296875 C-82.02961914 81.87731445 -82.02961914 81.87731445 -80.51757812 82.72851562 C-79.45990234 83.33373047 -78.40222656 83.93894531 -77.3125 84.5625 C-76.20455078 85.18962891 -75.09660156 85.81675781 -73.95507812 86.46289062 C-65.4950607 91.26633784 -57.09147852 96.16578948 -48.7019043 101.09106445 C-37.43833653 107.68934834 -26.03682659 114.03736059 -14.625 120.375 C-14.625 121.695 -14.625 123.015 -14.625 124.375 C-23.98306299 130.33013099 -31.83072893 131.75107217 -42.625 130.375 C-45.8855192 129.38798643 -48.73448319 128.17354379 -51.625 126.375 C-40.86896547 140.6027229 -27.91305644 152.59363766 -9.625 155.375 C-6.26417887 155.62960766 -2.93160733 155.65593289 0.4375 155.625 C1.7069043 155.63660156 1.7069043 155.63660156 3.00195312 155.6484375 C16.21234972 155.60769611 27.96545431 150.65991412 38.4140625 142.73046875 C40.375 141.375 40.375 141.375 42.375 141.375 C42.375 140.715 42.375 140.055 42.375 139.375 C41.59382812 139.16101563 40.81265625 138.94703125 40.0078125 138.7265625 C35.10918053 136.90406071 30.76957586 134.35749236 26.25 131.75 C25.24864014 131.17805908 24.24728027 130.60611816 23.21557617 130.0168457 C21.05532348 128.78224976 18.89643347 127.54526701 16.73876953 126.30615234 C13.36933961 124.37175035 9.99587542 122.44457935 6.62109375 120.51953125 C1.92938372 117.84264152 -2.76082 115.16315332 -7.44921875 112.48046875 C-13.34482971 109.10703038 -19.24180192 105.73598333 -25.13964844 102.36645508 C-27.45696387 101.04252385 -29.77396351 99.71804474 -32.09082031 98.39331055 C-37.47698487 95.31375068 -42.86469433 92.23700559 -48.25839233 89.1706543 C-50.75974724 87.74837925 -53.26015354 86.32444101 -55.76049805 84.90039062 C-57.48980981 83.9163628 -59.22046205 82.93469184 -60.95117188 81.953125 C-66.58488042 78.74349572 -72.19402726 75.49220665 -77.75390625 72.15625 C-78.80779541 71.52783203 -79.86168457 70.89941406 -80.94750977 70.25195312 C-85.09565193 67.34405516 -86.4236546 65.5098559 -87.3125 60.5 C-86.94494231 49.8758326 -77.32810057 38.92425133 -70.625 31.375 C-70.02300781 30.69050781 -69.42101562 30.00601563 -68.80078125 29.30078125 C-51.64548657 10.99460726 -24.89000454 -0.0444266 0 0 Z " fill="#FCFCFC" transform="translate(538.625,10.625)"/>
<path d="M0 0 C6.85675828 6.01882359 6.85675828 6.01882359 8.39669472 8.47086453 C10.53563984 11.66252247 12.17465375 13.46372698 15.98364723 14.38597631 C19.44660302 14.63118568 22.8498063 14.64966185 26.3212738 14.59783936 C27.66203798 14.60287686 29.00279351 14.61099555 30.34352261 14.62192369 C34.02244983 14.64306636 37.70002292 14.6207307 41.37884581 14.59130645 C45.34827559 14.56722589 49.3175608 14.58361587 53.28701782 14.59519958 C60.16406119 14.60986272 67.04069307 14.59928773 73.91769218 14.57189178 C83.86822684 14.53255235 93.81842064 14.53467071 103.76900924 14.547447 C119.92329494 14.56734209 136.07742282 14.55823798 152.23168945 14.52880859 C167.90616999 14.50035569 183.58062171 14.4780301 199.25512695 14.46923828 C200.22036635 14.46869 201.18560575 14.46814172 202.18009483 14.46757683 C212.71868555 14.46194193 223.25726963 14.46005832 233.79586124 14.46397781 C235.18538457 14.46449314 235.18538457 14.46449314 236.60297908 14.46501888 C240.30629474 14.46647791 244.0096102 14.4680319 247.71292556 14.4701263 C258.55378924 14.47624242 269.39448426 14.47048765 280.23531771 14.44310173 C287.03566678 14.42635059 293.83597591 14.41954185 300.63634544 14.42053929 C304.560265 14.42065513 308.48401511 14.41567713 312.40789604 14.39749718 C316.00100509 14.38088564 319.59385404 14.37804151 323.18699015 14.38602772 C325.10026192 14.38663589 327.01352059 14.37234454 328.92673486 14.35749888 C335.83600733 14.38858526 341.63456623 14.50085341 347.05078125 19.2734375 C349.9813266 23.22462106 351.43020229 25.3076046 351.45576477 30.19036865 C351.46649773 31.59506409 351.46649773 31.59506409 351.47744751 33.02813721 C351.48148087 34.57413605 351.48148087 34.57413605 351.4855957 36.15136719 C351.4954525 37.77594849 351.4954525 37.77594849 351.50550842 39.43334961 C351.5252743 43.0297858 351.53691144 46.62618017 351.546875 50.22265625 C351.55095053 51.44898018 351.55502605 52.67530411 351.55922508 53.93878937 C351.57794582 59.75976228 351.59250815 65.58071869 351.60083705 71.40171599 C351.60963323 77.44924262 351.62891984 83.49651823 351.6652832 89.54394531 C351.70366655 96.03017259 351.72251944 102.51617331 351.72704124 109.00251007 C351.73191751 111.47605884 351.74356086 113.94960382 351.76207924 116.42308807 C351.7863853 119.88486594 351.78552075 123.3457804 351.77856445 126.80761719 C351.79137451 127.83018616 351.80418457 128.85275513 351.81738281 129.90631104 C351.77511238 135.6756882 351.36823211 139.29579467 347.30859375 143.73828125 C341.60578308 148.95855091 335.68571569 148.26891242 328.25363159 148.16978455 C326.90819918 148.16634874 325.56276117 148.16471363 324.21732438 148.16472059 C320.52549524 148.15977168 316.83421548 148.13007519 313.14255095 148.09651911 C309.15880085 148.06481887 305.17499916 148.05653325 301.19114685 148.04592896 C294.28798656 148.02491364 287.3849942 147.99073899 280.48192978 147.949049 C269.56496919 147.88438431 258.64811331 147.86231939 247.73098755 147.8473053 C243.99399346 147.84165765 240.25699979 147.83575999 236.52000618 147.82980442 C235.58609787 147.8283305 234.65218957 147.82685657 233.68998101 147.82533799 C223.06185778 147.80804941 212.43376007 147.78264172 201.80566406 147.75317383 C200.34857862 147.74915169 200.34857862 147.74915169 198.8620571 147.74504829 C183.12761933 147.70045611 167.39349222 147.62161075 151.65924583 147.53364234 C135.49525889 147.44446849 119.33164238 147.40523401 103.16741002 147.4087792 C93.20260641 147.4091304 83.23963899 147.36882737 73.27526124 147.27587659 C66.44193672 147.2155894 59.60955289 147.20281894 52.77600937 147.22698592 C48.8361964 147.23943485 44.89941688 147.2309607 40.96006966 147.16506767 C24.58710759 146.08803812 24.58710759 146.08803812 9.93771744 151.54873848 C7.76694644 153.67027767 6.06316247 155.87792432 4.43799019 158.43471622 C-5.9444782 174.54217223 -30.0280554 182.66921776 -47.69140625 186.73828125 C-75.31026434 192.4847856 -104.21852937 186.8458934 -127.97705078 171.86865234 C-132.14448772 169.12082651 -135.94834205 166.03139522 -139.69140625 162.73828125 C-140.49320312 162.05636719 -141.295 161.37445313 -142.12109375 160.671875 C-145.43471753 157.80912134 -148.3240229 155.26228716 -150.85221106 151.65628397 C-153.05154141 149.0188321 -153.56861938 148.76478256 -157.15243572 147.99128091 C-158.50931033 147.96210739 -159.86713634 147.96578366 -161.22399807 147.99555016 C-161.97760763 147.9881371 -162.73121719 147.98072405 -163.5076634 147.97308636 C-166.04197053 147.95548913 -168.57404151 147.98076929 -171.10826111 148.00570679 C-172.93971884 148.00182497 -174.77117257 147.99529851 -176.60261256 147.9863497 C-181.64229596 147.96933305 -186.68124928 147.98970242 -191.72086751 148.01598072 C-197.15313679 148.03775192 -202.5853337 148.02490865 -208.0176239 148.0160675 C-217.43305121 148.00532778 -226.84825701 148.01610058 -236.26365471 148.04096603 C-249.8833134 148.07655388 -263.50277842 148.07536284 -277.12247021 148.0643682 C-299.22710197 148.04715393 -321.33165637 148.05370438 -343.4362793 148.078125 C-344.09779047 148.07885051 -344.75930164 148.07957602 -345.4408586 148.08032352 C-350.80058683 148.08620313 -356.160315 148.09213297 -361.52004308 148.09814468 C-376.95207999 148.11542347 -392.38411875 148.12786577 -407.81616211 148.13769531 C-408.47716692 148.13812267 -409.13817174 148.13855002 -409.819207 148.13899033 C-432.50601124 148.1535399 -455.19278991 148.15198946 -477.87959486 148.13964617 C-491.46814522 148.13315653 -505.05652805 148.14206755 -518.64505065 148.17073072 C-527.95249846 148.18959623 -537.25988627 148.19475032 -546.56735127 148.18903778 C-551.94124541 148.18628994 -557.31492516 148.19029087 -562.68878174 148.21172905 C-567.60558046 148.23126278 -572.52202977 148.23255998 -577.43884606 148.21922095 C-579.22009144 148.21768709 -581.00135812 148.2229825 -582.78255879 148.23569612 C-585.19979628 148.25200052 -587.61575227 148.2437559 -590.03297329 148.22933006 C-590.72811135 148.23994886 -591.4232494 148.25056765 -592.13945225 148.26150823 C-597.09108995 148.19367939 -599.85823845 146.79822754 -603.69140625 143.73828125 C-608.4962328 138.47728285 -608.26237855 133.54272458 -608.20898438 126.77929688 C-608.21599365 125.685905 -608.22300293 124.59251312 -608.23022461 123.46598816 C-608.24780239 119.85857607 -608.23618183 116.25195106 -608.22265625 112.64453125 C-608.22535121 110.13399098 -608.22923365 107.62345173 -608.23425293 105.11291504 C-608.2401477 99.85400388 -608.23196802 94.59529668 -608.21289062 89.33642578 C-608.19112344 83.26619061 -608.19817554 77.19649292 -608.22019625 71.12627077 C-608.24057134 65.27427839 -608.23836914 59.42248945 -608.22666931 53.57048035 C-608.2240021 51.08578923 -608.22727154 48.60108439 -608.23658752 46.1164093 C-608.24675282 42.64299247 -608.2312505 39.17060579 -608.20898438 35.69726562 C-608.2170813 34.6716301 -608.22517822 33.64599457 -608.23352051 32.58927917 C-608.16315224 26.66015595 -607.64122819 23.25427687 -603.69140625 18.73828125 C-598.38323011 14.88985355 -593.72109653 14.59186467 -587.32147694 14.62754917 C-586.19920667 14.62777979 -586.19920667 14.62777979 -585.05426428 14.62801507 C-582.53311983 14.62972611 -580.01205014 14.63860214 -577.49092102 14.64735413 C-575.67072186 14.64994694 -573.85052199 14.65207313 -572.03032178 14.65377134 C-568.06546247 14.65840268 -564.1006256 14.66616781 -560.13577652 14.67628288 C-553.68521324 14.6926523 -547.234651 14.70206839 -540.78407288 14.71032715 C-533.83899701 14.71950204 -526.89392319 14.72909974 -519.94885123 14.74090493 C-502.72665006 14.7699053 -485.50449688 14.78145632 -468.28227234 14.78233337 C-467.03758282 14.78242708 -465.79289331 14.78252079 -464.51048592 14.78261734 C-454.25863658 14.78333929 -444.00678726 14.78334257 -433.7549379 14.78311725 C-424.51704504 14.78295601 -415.27915252 14.78346816 -406.04125977 14.78491211 C-404.72403084 14.7851101 -403.40680191 14.78530809 -402.04965695 14.78551208 C-380.70344085 14.78971094 -359.35741047 14.82627791 -338.01124904 14.87386829 C-316.10347132 14.92188353 -294.1959051 14.93194712 -272.28808755 14.90752882 C-258.77080333 14.89372785 -245.25423834 14.91009844 -231.73705562 14.96499699 C-222.4738275 14.99985445 -213.21105975 14.9981639 -203.94781814 14.96761204 C-198.60152443 14.95108551 -193.25652636 14.95088404 -187.91035461 14.99425316 C-183.01488993 15.0336194 -178.12172612 15.02686379 -173.22631481 14.98355072 C-171.45642208 14.97601775 -169.68635932 14.98536854 -167.91667239 15.01338912 C-158.27403391 15.3404725 -158.27403391 15.3404725 -149.70156515 11.53104866 C-147.44484466 9.03995043 -145.56765805 6.52042194 -143.69140625 3.73828125 C-136.24081204 -3.9901325 -127.12418518 -9.35843273 -117.69140625 -14.26171875 C-116.81226563 -14.73351563 -115.933125 -15.2053125 -115.02734375 -15.69140625 C-77.81865964 -34.23814972 -31.18414601 -26.20554505 0 0 Z M-96.69140625 -10.26171875 C-97.87992187 -9.89949219 -99.0684375 -9.53726562 -100.29296875 -9.1640625 C-121.06086524 -2.37190123 -138.96623473 11.2622534 -150.69140625 29.73828125 C-151.27535156 30.6509375 -151.85929687 31.56359375 -152.4609375 32.50390625 C-155.49909434 37.59833318 -157.36114299 41.69136081 -157.29296875 47.66796875 C-155.77700264 52.88525471 -151.69280923 55.64013073 -147.16015625 58.1640625 C-146.05414063 58.78732422 -144.948125 59.41058594 -143.80859375 60.05273438 C-142.60291048 60.71883309 -141.39718 61.38484634 -140.19140625 62.05078125 C-138.93297618 62.75606066 -137.67517411 63.46246165 -136.41796875 64.16992188 C-133.80709687 65.63797996 -131.19359599 67.10118768 -128.578125 68.56103516 C-122.59020729 71.90850431 -116.64318432 75.32708649 -110.69140625 78.73828125 C-108.36240308 80.06975279 -106.03272804 81.40004713 -103.703125 82.73046875 C-99.58885045 85.08096472 -95.4759549 87.43384869 -91.36462402 89.78948975 C-78.34211487 97.25077707 -65.29884635 104.67169094 -52.19042969 111.98144531 C-47.81014738 114.42509156 -43.4347746 116.87384978 -39.09375 119.38671875 C-38.43101074 119.77021484 -37.76827148 120.15371094 -37.08544922 120.54882812 C-35.41127682 121.52182088 -33.74060787 122.50083539 -32.0703125 123.48046875 C-29.84522193 124.89408818 -29.84522193 124.89408818 -27.69140625 124.73828125 C-27.69140625 125.39828125 -27.69140625 126.05828125 -27.69140625 126.73828125 C-28.23539063 126.99867188 -28.779375 127.2590625 -29.33984375 127.52734375 C-32.07791344 128.93731319 -34.68046389 130.52058784 -37.31640625 132.11328125 C-51.94813009 140.67819277 -68.95700498 143.77850558 -85.69140625 139.61328125 C-101.61317426 134.25619186 -112.31228354 125.33121272 -121.69140625 111.73828125 C-121.22734375 112.02703125 -120.76328125 112.31578125 -120.28515625 112.61328125 C-112.98403747 116.53627044 -104.78767511 117.15408727 -96.69140625 115.73828125 C-92.38517087 114.16493654 -88.55508331 112.19698483 -84.69140625 109.73828125 C-84.69140625 108.41828125 -84.69140625 107.09828125 -84.69140625 105.73828125 C-85.38363281 105.35720215 -86.07585937 104.97612305 -86.7890625 104.58349609 C-99.20593149 97.7390856 -111.59113468 90.85878284 -123.81640625 83.67578125 C-132.34306877 78.67400762 -140.89874111 73.72871427 -149.50390625 68.86328125 C-150.57850098 68.24960693 -151.6530957 67.63593262 -152.76025391 67.00366211 C-153.75460449 66.44428955 -154.74895508 65.88491699 -155.7734375 65.30859375 C-156.65233643 64.81117676 -157.53123535 64.31375977 -158.43676758 63.80126953 C-160.72821947 62.52505732 -160.72821947 62.52505732 -163.69140625 62.73828125 C-168.83781476 87.76476778 -162.47448141 115.54699598 -148.69140625 136.73828125 C-145.39162785 141.09815885 -141.5803735 144.90914426 -137.69140625 148.73828125 C-137.12164062 149.37765625 -136.551875 150.01703125 -135.96484375 150.67578125 C-122.84755366 165.20570258 -100.06848855 175.89297819 -80.68310547 176.89355469 C-67.85943301 177.34311701 -55.01517424 177.74350585 -42.69140625 173.73828125 C-41.64984375 173.40957031 -40.60828125 173.08085937 -39.53515625 172.7421875 C-15.74905912 164.39973353 3.01575774 148.70268677 15.30859375 126.73828125 C15.70175781 126.04347656 16.09492187 125.34867188 16.5 124.6328125 C17.43288031 122.44707843 17.67532679 120.73605573 17.74609375 118.36328125 C17.78605469 117.63367188 17.82601562 116.9040625 17.8671875 116.15234375 C16.74236579 111.29122617 13.79011418 108.69935163 9.75317383 106.08056641 C6.53273885 104.23424318 3.27617101 102.47642422 -0.00390625 100.73828125 C-2.45878295 99.41185527 -4.90878682 98.07651574 -7.359375 96.7421875 C-8.28762085 96.23915855 -8.28762085 96.23915855 -9.23461914 95.72596741 C-15.16982343 92.5020927 -20.99934048 89.10781604 -26.81640625 85.67578125 C-34.88733132 80.929199 -43.00959835 76.29106145 -51.19140625 71.73828125 C-60.44810104 66.58607862 -69.62275274 61.3099804 -78.75976562 55.94873047 C-89.3332027 49.75396094 -100.00513113 43.73574209 -110.69140625 37.73828125 C-100.38282365 27.00774257 -83.99702099 21.48977059 -69.37890625 21.11328125 C-52.86148377 21.19978944 -37.75983412 29.41191666 -25.8984375 40.4140625 C-22.86446716 43.60912862 -20.79738788 46.87731493 -18.69140625 50.73828125 C-19.74328125 50.26390625 -20.79515625 49.78953125 -21.87890625 49.30078125 C-29.7614596 45.97189418 -37.93354007 45.41672397 -46.00390625 48.48828125 C-49.68003622 50.12083031 -52.8179504 51.8648254 -55.69140625 54.73828125 C-55.69140625 55.39828125 -55.69140625 56.05828125 -55.69140625 56.73828125 C-55.05976562 57.08906738 -54.428125 57.43985352 -53.77734375 57.80126953 C-41.02611259 64.89115617 -28.34312813 72.06874958 -15.76293945 79.45849609 C-7.11534671 84.52415701 1.61609478 89.43031541 10.37695312 94.296875 C11.37146484 94.84988281 12.36597656 95.40289062 13.390625 95.97265625 C14.26952393 96.45959961 15.14842285 96.94654297 16.05395508 97.44824219 C17.84764718 98.47454095 19.5891219 99.59196669 21.30859375 100.73828125 C22.29859375 100.73828125 23.28859375 100.73828125 24.30859375 100.73828125 C29.69263794 77.02163371 23.98360996 50.09076357 11.49462891 29.54931641 C-3.37636367 6.84181889 -27.27561382 -7.60239727 -53.4296875 -13.3515625 C-67.98183801 -16.16198158 -82.69356716 -14.81325491 -96.69140625 -10.26171875 Z M-604.00390625 22.30078125 C-606.25484093 25.55213135 -606.81725646 27.18083092 -606.83184814 31.07647705 C-606.83755829 31.98769821 -606.84326843 32.89891937 -606.84915161 33.8377533 C-606.85026947 34.84036697 -606.85138733 35.84298065 -606.85253906 36.87597656 C-606.85750397 37.92977005 -606.86246887 38.98356354 -606.86758423 40.06929016 C-606.88223303 43.56833542 -606.88901287 47.06733532 -606.89453125 50.56640625 C-606.90028108 52.99298098 -606.90603883 55.41955568 -606.9118042 57.84613037 C-606.92232234 62.94055392 -606.92815948 68.03496165 -606.93164062 73.12939453 C-606.93712281 79.65755833 -606.96114174 86.18551328 -606.98961258 92.7136116 C-607.00823743 97.72876597 -607.01344452 102.74387006 -607.0149765 107.75905609 C-607.01800459 110.16560761 -607.02603835 112.5721582 -607.03916168 114.97867584 C-607.05621628 118.34694785 -607.05434293 121.71471014 -607.04785156 125.08300781 C-607.05706635 126.07752457 -607.06628113 127.07204132 -607.07577515 128.09669495 C-607.0437685 133.39842552 -606.70641327 137.17571668 -603.69140625 141.73828125 C-598.84518388 146.11170144 -595.89960178 146.88505569 -589.54243279 146.86132908 C-588.4195795 146.86305985 -588.4195795 146.86305985 -587.27404231 146.86482558 C-584.73962905 146.86749429 -582.20527801 146.86296799 -579.67086792 146.85853577 C-577.8459799 146.85897142 -576.02109193 146.85984621 -574.1962043 146.86112493 C-569.16121946 146.86337112 -564.1262557 146.85934692 -559.09127355 146.85434687 C-553.66930849 146.85004432 -548.2473447 146.85148866 -542.82537842 146.85224915 C-533.4246988 146.85277451 -524.02402611 146.84962645 -514.62334824 146.84401131 C-501.03140211 146.83589793 -487.43945935 146.83328125 -473.84751107 146.83202332 C-451.79759012 146.82983254 -429.74767285 146.82317176 -407.69775391 146.8137207 C-386.27327494 146.80453999 -364.84879695 146.79745455 -343.42431641 146.79321289 C-342.10458981 146.79295017 -340.78486321 146.79268744 -339.4251449 146.79241676 C-332.80472668 146.79111176 -326.18430845 146.78984804 -319.56389022 146.78860486 C-264.60639301 146.77823145 -209.64889981 146.76061244 -154.69140625 146.73828125 C-156.23721704 142.70550998 -158.13699612 139.35879387 -160.50390625 135.73828125 C-175.26492203 112.37334005 -178.36185592 82.44159217 -172.60009766 55.72363281 C-169.75436298 43.98168635 -164.43627458 33.45527376 -158.171875 23.19140625 C-156.89511492 21.0758249 -155.77994444 18.95342865 -154.69140625 16.73828125 C-210.77005947 16.66965405 -266.84870853 16.61677225 -322.92739547 16.58508526 C-329.54404497 16.58133302 -336.16069438 16.57745007 -342.77734375 16.57348633 C-344.75327463 16.57230593 -344.75327463 16.57230593 -346.7691233 16.57110169 C-368.11432051 16.55803841 -389.45949117 16.53437949 -410.8046744 16.50682286 C-432.69756211 16.47879432 -454.59043714 16.46211039 -476.48334205 16.45601577 C-489.99859011 16.45189403 -503.51376984 16.43886356 -517.02899687 16.41453185 C-526.28976419 16.39870614 -535.55049605 16.3938737 -544.81127591 16.39777712 C-550.15876976 16.3997036 -555.50614399 16.39669596 -560.85361671 16.38066483 C-565.74651262 16.36610318 -570.63920808 16.36530457 -575.53211306 16.37558457 C-577.30475585 16.37685576 -579.07741097 16.37301864 -580.85002936 16.3636317 C-583.25555244 16.3516311 -585.66034743 16.35805752 -588.06585884 16.36913776 C-588.7576131 16.36125672 -589.44936736 16.35337568 -590.16208386 16.34525582 C-596.04053112 16.40664137 -600.05528806 17.92528541 -604.00390625 22.30078125 Z M15.30859375 16.73828125 C16.10852893 18.18098012 16.90880631 19.62348925 17.70922852 21.06591797 C18.15484634 21.86923553 18.60046417 22.6725531 19.05958557 23.50021362 C19.99299066 25.17275969 20.94182504 26.83671194 21.8984375 28.49609375 C35.56443219 52.50071051 39.66037718 80.83333655 33.4765625 107.94921875 C29.80738475 119.85257131 24.72150526 130.87248999 17.875 141.26953125 C16.18032361 143.72101986 16.18032361 143.72101986 15.30859375 146.73828125 C56.32068782 146.82983127 97.33276858 146.90031718 138.34494442 146.94254257 C143.18650608 146.94754541 148.02806754 146.9527227 152.86962891 146.95800781 C153.83349899 146.95905705 154.79736908 146.9601063 155.79044735 146.96118733 C171.39850225 146.97859385 187.00649823 147.01013292 202.61451817 147.04689243 C218.62908886 147.08429496 234.64362869 147.10651565 250.65824127 147.11463523 C260.54059658 147.12012443 270.42278536 147.1374633 280.30508941 147.16994712 C287.08121989 147.19108649 293.85726424 147.1974826 300.6334253 147.19228676 C304.54329508 147.18972408 308.45287381 147.19365999 312.36269188 147.21510315 C315.94445014 147.23460346 319.52572229 147.23552911 323.10750318 147.22187683 C325.01237414 147.21939301 326.9172396 147.2366139 328.82202721 147.25460649 C335.78544076 147.20600455 340.42135957 146.56407271 346.30859375 142.73828125 C350.82490967 137.09956084 350.88409528 132.07681209 350.82617188 125.03295898 C350.83318115 123.97843536 350.84019043 122.92391174 350.84741211 121.83743286 C350.86496124 118.36530931 350.85338048 114.89400628 350.83984375 111.421875 C350.84253933 109.00244491 350.8464223 106.58301587 350.85144043 104.16358948 C350.85733116 99.09894471 350.84878505 94.03458256 350.83007812 88.9699707 C350.80727712 82.48104862 350.82042235 75.99278792 350.84436798 69.50389004 C350.85882673 64.51014732 350.85421971 59.51656125 350.84385681 54.5228138 C350.8411904 52.13022852 350.84445625 49.73762897 350.85377502 47.34506035 C350.86394272 44.00106024 350.84843546 40.65812952 350.82617188 37.31420898 C350.83831726 35.83421669 350.83831726 35.83421669 350.85070801 34.32432556 C350.78070167 28.64356117 350.27785363 25.12494838 346.30859375 20.73828125 C340.61063411 15.52554029 334.67555096 16.18787582 327.24880981 16.25726318 C325.90306807 16.25551807 324.55732765 16.25201425 323.21159446 16.24690652 C319.51946437 16.23797077 315.82779922 16.25395048 312.13572836 16.27401876 C308.15215682 16.29129975 304.1686113 16.28544661 300.18501282 16.28240967 C293.2851249 16.28031271 286.38538833 16.29285797 279.48553848 16.31536102 C269.50955163 16.34787535 259.53363792 16.35828746 249.55760382 16.36331299 C233.37201992 16.37206653 217.18651667 16.39868373 201.00097656 16.43652344 C185.27864994 16.47324199 169.55634522 16.50155452 153.83398438 16.51855469 C152.86478715 16.51960558 151.89558993 16.52065648 150.8970231 16.52173921 C146.03482388 16.52695938 141.17262452 16.53201421 136.31042504 16.53698683 C95.97642517 16.57845071 55.64251408 16.64890077 15.30859375 16.73828125 Z " fill="#060606" transform="translate(608.69140625,25.26171875)"/>
<path d="M0 0 C0.33 3.3 0.66 6.6 1 10 C2.175625 8.906875 3.35125 7.81375 4.5625 6.6875 C10.82263878 1.28101651 16.12144613 -0.54446129 24.3515625 -0.28515625 C30.69383264 0.39771354 34.85352293 3.09961801 39 8 C39 8.66 39 9.32 39 10 C39.72445312 9.44570312 40.44890625 8.89140625 41.1953125 8.3203125 C42.16210938 7.59585938 43.12890625 6.87140625 44.125 6.125 C45.55199219 5.04605469 45.55199219 5.04605469 47.0078125 3.9453125 C53.97894113 -0.58683118 60.90668738 -0.65983695 69 0 C74.40033744 1.80011248 77.46071371 4.92142741 80 10 C80.09128293 11.94044277 80.11752248 13.8840756 80.11352539 15.82666016 C80.11341209 17.65833237 80.11341209 17.65833237 80.11329651 19.52700806 C80.10818952 20.86435995 80.10297352 22.20171143 80.09765625 23.5390625 C80.0957914 24.90383859 80.09436781 26.26861534 80.09336853 27.63339233 C80.08954863 31.22715093 80.07972283 34.82086917 80.06866455 38.41461182 C80.05843911 42.08108982 80.05386848 45.74757435 80.04882812 49.4140625 C80.0381001 56.60939553 80.02050756 63.80468697 80 71 C71.42 71 62.84 71 54 71 C53.93941406 67.05289063 53.87882812 63.10578125 53.81640625 59.0390625 C53.75465513 55.22979745 53.69125157 51.42056327 53.62768555 47.61132812 C53.58428752 44.95738452 53.54261612 42.3034121 53.50268555 39.64941406 C53.44510075 35.84170842 53.3813725 32.03414845 53.31640625 28.2265625 C53.29969376 27.03382721 53.28298126 25.84109192 53.26576233 24.61221313 C53.2358445 22.96072769 53.2358445 22.96072769 53.20532227 21.27587891 C53.18977798 20.30325104 53.1742337 19.33062317 53.15821838 18.32852173 C53.14869349 15.97609526 53.14869349 15.97609526 52 14 C47.89916455 13.624732 47.89916455 13.624732 44.25 15.1875 C41.64815583 18.96017404 40.75151815 22.52707916 40.68115234 27.06567383 C40.66128265 28.04631302 40.64141296 29.02695221 40.62094116 30.03730774 C40.60938995 31.0833165 40.59783875 32.12932526 40.5859375 33.20703125 C40.56657135 34.28756271 40.5472052 35.36809418 40.5272522 36.48136902 C40.46757897 39.9249996 40.42111959 43.36866383 40.375 46.8125 C40.33680899 49.15040502 40.2977566 51.48829615 40.2578125 53.82617188 C40.16026982 59.55070802 40.08060252 65.27510002 40 71 C31.09 71 22.18 71 13 71 C12.505 42.29 12.505 42.29 12 13 C5.41171283 14.25153374 5.41171283 14.25153374 3.125 16.9375 C1.28104144 20.31809069 0.86277521 23.0543491 0.79467773 26.83862305 C0.77473251 27.8194133 0.75478729 28.80020355 0.73423767 29.81071472 C0.70916893 31.39521172 0.70916893 31.39521172 0.68359375 33.01171875 C0.66281265 34.09508011 0.64203156 35.17844147 0.62062073 36.29463196 C0.55518203 39.75885616 0.49626647 43.2231568 0.4375 46.6875 C0.39430939 49.03451315 0.35069493 51.38151853 0.30664062 53.72851562 C0.19870802 59.48559984 0.09959189 65.24274123 0 71 C-8.91 71 -17.82 71 -27 71 C-27 47.9 -27 24.8 -27 1 C-5 0 -5 0 0 0 Z " fill="#020202" transform="translate(131,83)"/>
<path d="M0 0 C0.33 11.55 0.66 23.1 1 35 C2.98 32.69 4.96 30.38 7 28 C14.02210035 23.02069248 21.58120381 22.98204098 30 24 C34.62495699 25.92297976 37.27128729 27.75533578 40 32 C40.95620172 35.66872766 41.12176287 39.11084227 41.11352539 42.8918457 C41.11341209 44.63308464 41.11341209 44.63308464 41.11329651 46.40950012 C41.10813522 47.65237289 41.10297394 48.89524567 41.09765625 50.17578125 C41.0962413 51.45607712 41.09482635 52.73637299 41.09336853 54.0554657 C41.08956397 57.4469704 41.07975143 60.83843177 41.06866455 64.22991943 C41.05840598 67.69559126 41.05380649 71.16127035 41.04882812 74.62695312 C41.03865883 81.41800692 41.01908196 88.20894199 41 95 C32.42 95 23.84 95 15 95 C14.67 76.19 14.34 57.38 14 38 C12.35 37.67 10.7 37.34 9 37 C8.02969365 38.34561352 7.07437225 39.70203594 6.125 41.0625 C5.59132813 41.81660156 5.05765625 42.57070312 4.5078125 43.34765625 C0.93378077 49.63461879 0.67843377 55.80391869 0.5859375 62.87109375 C0.56657135 63.793423 0.5472052 64.71575226 0.5272522 65.66603088 C0.4678388 68.58976211 0.42122491 71.51353353 0.375 74.4375 C0.33678498 76.4290529 0.29773123 78.4205899 0.2578125 80.41210938 C0.16060213 85.27465321 0.0807306 90.13704336 0 95 C-8.25 95 -16.5 95 -25 95 C-25 63.98 -25 32.96 -25 1 C-16.6811971 0.40579979 -8.33999734 0 0 0 Z " fill="#030303" transform="translate(900,59)"/>
<path d="M0 0 C0.87809326 -0.01015137 1.75618652 -0.02030273 2.66088867 -0.03076172 C11.60900061 0.08762381 19.75239353 1.97517133 26.80859375 7.69140625 C31.46065037 12.49387579 33.4529385 18.61381012 33.5625 25.1875 C33.541875 26.26 33.52125 27.3325 33.5 28.4375 C32.10582227 28.77769152 30.70955342 29.10931779 29.3125 29.4375 C28.53519531 29.623125 27.75789063 29.80875 26.95703125 30 C24.42009775 30.45172743 22.07120097 30.51057143 19.5 30.4375 C19.54640625 29.64085938 19.5928125 28.84421875 19.640625 28.0234375 C19.8074723 23.12527734 19.92724995 19.41162988 17.9375 14.875 C13.22983149 10.16733149 8.17613455 9.04893046 1.73046875 8.97851562 C0.95316406 8.98560547 0.17585938 8.99269531 -0.625 9 C-1.41003906 8.98001953 -2.19507813 8.96003906 -3.00390625 8.93945312 C-6.93808713 8.94277031 -9.0403812 9.16257095 -12.484375 11.22265625 C-15.06288831 14.05602262 -15.53451222 15.6867363 -15.7421875 19.41796875 C-15.40777018 22.20657772 -14.28468356 24.08150297 -12.328125 26.0703125 C-6.64686025 30.31912161 0.42128122 32.41581226 7 34.875 C18.77171624 39.38005254 29.95632185 45.05160108 36.0625 56.6875 C39.11938073 64.8628787 38.57813858 72.99527406 35 80.875 C29.42517956 90.73814386 21.15092321 94.01586045 10.58911133 96.97241211 C-0.89500629 99.52906094 -14.70819187 97.96150096 -24.875 92.125 C-30.00524351 88.62423957 -33.60458144 84.4368382 -35.5 78.4375 C-35.75757648 73.75475967 -35.58774542 69.13188019 -35.5 64.4375 C-28.57 62.9525 -28.57 62.9525 -21.5 61.4375 C-21.53480469 62.67886719 -21.56960937 63.92023438 -21.60546875 65.19921875 C-21.63361584 66.84113226 -21.66091501 68.48306046 -21.6875 70.125 C-21.71263672 70.94162109 -21.73777344 71.75824219 -21.76367188 72.59960938 C-21.82177095 77.3830995 -21.6611995 80.58273478 -18.5 84.4375 C-11.50055423 89.41787488 -3.88123602 89.45091743 4.5 88.4375 C10.03238604 86.09270481 10.03238604 86.09270481 13.5 81.4375 C14.1228713 77.33759443 14.1228713 77.33759443 13.5 73.4375 C10.18684175 69.48836074 6.81345148 67.31566798 2.1875 65.125 C0.9505119 64.52606011 -0.28646688 63.92710099 -1.5234375 63.328125 C-2.84852457 62.69700515 -4.17405957 62.06682504 -5.5 61.4375 C-27.95375926 50.75916498 -27.95375926 50.75916498 -33.5 39.4375 C-34.65913227 35.99655388 -34.6664405 32.67631078 -34.6875 29.0625 C-34.70167969 27.96164063 -34.71585938 26.86078125 -34.73046875 25.7265625 C-34.26279443 19.05229513 -31.74642368 13.45847759 -26.8125 8.8671875 C-24.78031671 7.23652429 -22.70859992 5.81933053 -20.5 4.4375 C-19.83871094 4.01984375 -19.17742188 3.6021875 -18.49609375 3.171875 C-12.53728246 0.14450039 -6.55068225 0.05384907 0 0 Z " fill="#040404" transform="translate(55.5,58.5625)"/>
<path d="M0 0 C0.33 3.63 0.66 7.26 1 11 C1.56847656 10.45730469 2.13695312 9.91460937 2.72265625 9.35546875 C10.86094527 1.81498394 16.48537533 -0.32476492 27.59765625 -0.3984375 C33.24295162 0.26266483 37.39942409 2.62787211 41 7 C42.83560925 10.78597285 43.24498569 13.79584182 43.22705078 17.98364258 C43.22689972 19.16448929 43.22674866 20.345336 43.22659302 21.56196594 C43.21627045 22.82671249 43.20594788 24.09145905 43.1953125 25.39453125 C43.1924826 26.69702316 43.18965271 27.99951508 43.18673706 29.34147644 C43.17912697 32.79222384 43.15950135 36.24280098 43.1373291 39.69348145 C43.11681388 43.21945857 43.10761342 46.74546423 43.09765625 50.27148438 C43.07731579 57.18113961 43.03816327 64.09032821 43 71 C34.09 71 25.18 71 16 71 C15.93941406 66.96910156 15.87882812 62.93820313 15.81640625 58.78515625 C15.76546942 55.57920569 15.71354797 52.37327446 15.66095734 49.16735077 C15.60564023 45.77867386 15.55207469 42.38998963 15.50268555 39.0012207 C15.44599054 35.11660573 15.38142415 31.23214122 15.31640625 27.34765625 C15.29969376 26.12788589 15.28298126 24.90811554 15.26576233 23.65138245 C15.2358445 21.96975258 15.2358445 21.96975258 15.20532227 20.25415039 C15.18977798 19.26153702 15.1742337 18.26892365 15.15821838 17.24623108 C15.24881556 15.03025703 15.24881556 15.03025703 14 14 C11.12693772 13.49904977 11.12693772 13.49904977 8 14 C2.92219901 18.6425609 0.91779399 25.24432151 0.56762695 31.94726562 C0.52671703 33.76665941 0.500905 35.58644012 0.48828125 37.40625 C0.47033005 38.3715564 0.45237885 39.33686279 0.43388367 40.3314209 C0.38008802 43.38757068 0.34598394 46.44356706 0.3125 49.5 C0.27929978 51.58335454 0.24480764 53.66668891 0.20898438 55.75 C0.1219684 60.83335166 0.06163682 65.91602512 0 71 C-8.58 71 -17.16 71 -26 71 C-26 48.23 -26 25.46 -26 2 C-4 0 -4 0 0 0 Z " fill="#010101" transform="translate(294,83)"/>
<path d="M0 0 C3.01668052 1.64740709 5.05298597 3.53174015 7.203125 6.203125 C7.88375 6.88375 8.564375 7.564375 9.265625 8.265625 C15.28943765 17.39850224 15.203125 25.12838754 15.203125 36.203125 C2.663125 36.203125 -9.876875 36.203125 -22.796875 36.203125 C-21.76977361 49.78240122 -21.76977361 49.78240122 -15.046875 60.703125 C-10.10692291 62.98310289 -6.67036799 62.81561309 -1.546875 61.140625 C1.92561737 58.69409629 3.18090466 56.20809276 4.203125 52.203125 C4.68873805 49.2085112 5.00410224 46.22964355 5.203125 43.203125 C8.58018125 43.74038395 11.899811 44.31377123 15.203125 45.203125 C15.7018246 51.18752018 14.64425834 55.24126418 11.203125 60.203125 C4.98152097 67.53729822 -2.01302307 69.69853595 -11.37890625 70.515625 C-22.26100532 70.87425236 -33.45156571 69.28817596 -42.078125 62.10546875 C-50.29398571 53.01200473 -51.19793081 42.88000955 -51.01171875 31.1875 C-50.41343662 20.092086 -45.65017278 11.3625767 -37.69921875 3.7421875 C-27.23081456 -4.72711692 -12.08207953 -5.13669249 0 0 Z " fill="#040404" transform="translate(398.796875,85.796875)"/>
<path d="M0 0 C24.75 0 49.5 0 75 0 C75 2.97 75 5.94 75 9 C67.41 9 59.82 9 52 9 C52 37.05 52 65.1 52 94 C42.43 94 32.86 94 23 94 C23 65.95 23 37.9 23 9 C15.41 9 7.82 9 0 9 C0 6.03 0 3.06 0 0 Z " fill="#020202" transform="translate(656,60)"/>
<path d="M0 0 C0.80759766 -0.01998047 1.61519531 -0.03996094 2.44726562 -0.06054688 C9.37827336 -0.05496186 14.53107883 1.78701848 19.76953125 6.3671875 C28.36732993 16.78495816 29.5625 24.71236527 29.5625 38.4375 C17.6825 38.4375 5.8025 38.4375 -6.4375 38.4375 C-5.41788306 51.71629249 -5.41788306 51.71629249 -0.4375 62.4375 C3.61668158 65.14028772 6.80756314 64.96396928 11.5625 64.4375 C15.06073601 63.09775004 16.17302179 62.23593034 17.8125 58.875 C18.78495983 54.41789244 19.22121624 49.98196267 19.5625 45.4375 C21.04261371 45.74548326 22.52157325 46.059018 24 46.375 C24.82371094 46.54902344 25.64742187 46.72304687 26.49609375 46.90234375 C28.5625 47.4375 28.5625 47.4375 29.5625 48.4375 C29.63028324 54.75489833 28.20115159 59.32371939 24.5625 64.4375 C18.38740136 70.61259864 11.77284192 72.78719312 3.25488281 72.90600586 C2.40764648 72.89577393 1.56041016 72.88554199 0.6875 72.875 C-0.19583008 72.86670166 -1.07916016 72.85840332 -1.98925781 72.84985352 C-11.72602165 72.59717244 -18.60631306 70.11028563 -25.75 63.35546875 C-33.54643409 54.49424389 -34.27044929 42.6876533 -33.6328125 31.41210938 C-32.52501292 20.21225563 -26.67022708 11.95935902 -18.44140625 4.76171875 C-12.33243549 0.72479655 -7.17490463 -0.06268781 0 0 Z " fill="#030303" transform="translate(766.4375,82.5625)"/>
<path d="M0 0 C4.1885762 3.5370199 7.4357408 7.29892809 8.12109375 12.89453125 C8.1245345 15.07940645 8.03877033 17.20280479 7.8125 19.375 C6.19000059 20.21319158 4.56441503 21.0454116 2.9375 21.875 C2.03257812 22.3390625 1.12765625 22.803125 0.1953125 23.28125 C-2.1875 24.375 -2.1875 24.375 -4.1875 24.375 C-4.20167969 23.35019531 -4.21585938 22.32539062 -4.23046875 21.26953125 C-4.27739016 19.90881029 -4.32563744 18.54813459 -4.375 17.1875 C-4.38080078 16.51396484 -4.38660156 15.84042969 -4.39257812 15.14648438 C-4.5622336 11.28210976 -5.09867692 9.48733069 -7.51953125 6.42578125 C-10.10519298 4.11246703 -10.10519298 4.11246703 -13.6875 3.75 C-18.18388043 4.55292508 -19.46032292 5.73876389 -22.1875 9.375 C-25.72244773 16.38498109 -25.68037077 23.33754831 -25.63354492 31.04614258 C-25.62505774 33.17303123 -25.65382092 35.29720511 -25.68554688 37.42382812 C-25.72787638 45.37562843 -25.47960731 53.3974969 -21.1875 60.375 C-17.4682035 62.85532889 -13.53160535 63.060032 -9.1875 62.375 C-5.15446778 60.28379811 -2.74061337 58.64606175 -1.1875 54.375 C-0.80973192 51.46418192 -0.67917636 48.5564935 -0.5625 45.625 C-0.52382813 44.83222656 -0.48515625 44.03945312 -0.4453125 43.22265625 C-0.351392 41.27380584 -0.26837178 39.32443549 -0.1875 37.375 C1.29261371 37.68298326 2.77157325 37.996518 4.25 38.3125 C5.07371094 38.48652344 5.89742187 38.66054687 6.74609375 38.83984375 C8.8125 39.375 8.8125 39.375 9.8125 40.375 C10.74946216 48.238366 10.32515998 54.64664074 5.796875 61.27734375 C0.58838823 66.78316539 -6.91163218 69.40090682 -14.3828125 69.61328125 C-26.58299224 69.88946033 -36.11937363 69.22996966 -45.4296875 60.50390625 C-52.89986453 51.45669185 -53.85886225 40.63615162 -53.1875 29.375 C-51.79170953 19.11786087 -47.59201009 9.66398339 -39.5 2.9375 C-27.77860315 -4.85417999 -12.62830319 -6.43795849 0 0 Z " fill="#060606" transform="translate(856.1875,85.625)"/>
<path d="M0 0 C0 23.43 0 46.86 0 71 C-8.91 71 -17.82 71 -27 71 C-27 48.23 -27 25.46 -27 2 C-6 0 -6 0 0 0 Z " fill="#050505" transform="translate(253,83)"/>
<path d="M0 0 C2.31677408 1.64772953 3.74688579 3.35951018 4.4453125 6.13671875 C4.66234277 9.65523978 4.2383206 11.77527036 2.13671875 14.6015625 C-2.92268297 18.21542087 -9.08281015 17.76810816 -15.05078125 17.1640625 C-18.12443911 15.35602846 -19.48097857 14.30366786 -21.05078125 11.1640625 C-21.4721086 7.37211639 -21.34039961 5.62952057 -19.30078125 2.3515625 C-14.6815286 -2.13937758 -5.84125551 -2.38100701 0 0 Z " fill="#050505" transform="translate(248.05078125,58.8359375)"/>
<path d="M0 0 C2.625 0.5 2.625 0.5 4.875 3.25 C8.58484825 10.13971818 7.6965619 16.77131445 7.625 24.5 C2.675 24.5 -2.275 24.5 -7.375 24.5 C-7.84977408 9.46548749 -7.84977408 9.46548749 -4.375 2.5 C-2.375 0.5 -2.375 0.5 0 0 Z " fill="#F5F5F5" transform="translate(383.375,89.5)"/>
<path d="M0 0 C2.92616587 1.90200781 3.9227112 3.69249466 5.0078125 6.984375 C6.03483242 12.49441838 5.66097214 18.0446325 5.5 23.625 C0.88 23.625 -3.74 23.625 -8.5 23.625 C-8.94331984 8.25657895 -8.94331984 8.25657895 -5.5 1.625 C-2.5 -0.375 -2.5 -0.375 0 0 Z " fill="#F7F7F7" transform="translate(768.5,89.375)"/>
<path d="M0 0 C-0.54269531 0.30292969 -1.08539063 0.60585938 -1.64453125 0.91796875 C-2.35996094 1.33691406 -3.07539063 1.75585938 -3.8125 2.1875 C-4.87404297 2.79658203 -4.87404297 2.79658203 -5.95703125 3.41796875 C-9.07375252 5.83149095 -10.76782177 8.17539593 -11.27730942 12.17927361 C-11.39126413 14.94968925 -11.40516038 17.705523 -11.38818359 20.47827148 C-11.39344055 21.53250305 -11.39869751 22.58673462 -11.40411377 23.6729126 C-11.4173111 27.15579063 -11.40857567 30.63821111 -11.3984375 34.12109375 C-11.40045845 36.54338163 -11.40337007 38.96566892 -11.40713501 41.38795471 C-11.41155814 46.46450595 -11.40512802 51.54089881 -11.39111328 56.61743164 C-11.37403077 63.12200514 -11.38385706 69.62620703 -11.40183067 76.13076687 C-11.41267644 81.13306981 -11.40921831 86.13528481 -11.4014473 91.13759041 C-11.39944702 93.53575751 -11.40189849 95.93393262 -11.40888596 98.33209038 C-11.41651219 101.68571969 -11.4048786 105.03874928 -11.38818359 108.39233398 C-11.39425629 109.3821376 -11.40032898 110.37194122 -11.40658569 111.39173889 C-11.35803774 116.66098379 -11.03989108 120.48912509 -8 125 C-4.95202627 127.36702059 -4.95202627 127.36702059 -2 129 C-2.99 129.33 -3.98 129.66 -5 130 C-8.79132305 127.29191211 -11.17549588 125.32171639 -13 121 C-13.25726891 118.75980568 -13.25726891 118.75980568 -13.26742554 116.2694397 C-13.27595551 115.32181259 -13.28448547 114.37418549 -13.29327393 113.39784241 C-13.29236755 112.36501633 -13.29146118 111.33219025 -13.29052734 110.26806641 C-13.29724457 109.17496658 -13.30396179 108.08186676 -13.31088257 106.9556427 C-13.32990012 103.33756989 -13.33378866 99.7196822 -13.3359375 96.1015625 C-13.34236268 93.5881645 -13.34909083 91.07476726 -13.35610962 88.56137085 C-13.3680917 83.29057615 -13.37187507 78.01982848 -13.37060547 72.74902344 C-13.36940431 66.66409633 -13.39050252 60.57952406 -13.4220928 54.49468672 C-13.45143536 48.63312519 -13.45858054 42.77170372 -13.45738602 36.91007614 C-13.45974698 34.41978888 -13.46859825 31.92949902 -13.48405075 29.43925858 C-13.50364078 25.95611355 -13.49789933 22.47388232 -13.48583984 18.99072266 C-13.49707886 17.96194504 -13.50831787 16.93316742 -13.51989746 15.87321472 C-13.46756271 9.92624712 -12.95745978 6.53135706 -9 2 C-5.54456476 -0.67796231 -4.11335812 -1.26363756 0 0 Z " fill="#020202" transform="translate(14,42)"/>
<path d="M0 0 C-0.54269531 0.30292969 -1.08539063 0.60585938 -1.64453125 0.91796875 C-6.02707165 3.48432124 -8.62198936 5.37609042 -11 10 C-11.66 10 -12.32 10 -13 10 C-11.60466338 5.56029258 -9.43871468 3.09484321 -6 0 C-3.50907189 -1.24546405 -2.58919267 -0.7767578 0 0 Z " fill="#171717" transform="translate(14,42)"/>
</svg>
